<svg width="40" height="27" viewBox="0 0 40 27" fill="none" xmlns="http://www.w3.org/2000/svg">
<g id="American Express">
<g id="Button container">
<rect id="Card" y="1.35352" width="40" height="26" rx="2.51813" fill="#F4F5FF"/>
<g id="Button container_2">
<mask id="mask0_75_960" style="mask-type:alpha" maskUnits="userSpaceOnUse" x="0" y="1" width="40" height="27">
<rect id="Text input" y="1.35352" width="40" height="26" rx="2.51813" fill="#F4F5FF"/>
</mask>
<g mask="url(#mask0_75_960)">
<g id="Button">
<path id="Vector" d="M17.3118 20.3943V16.6093L15.5889 18.4734L17.3118 20.3943Z" fill="#306FC8"/>
<path id="Vector_2" d="M10.0908 17.084V17.936L12.5544 17.9308V18.9068H10.0908V19.8414H12.8527L14.1384 18.4575L12.9041 17.084H10.0908Z" fill="#306FC8"/>
<path id="Vector_3" d="M20.5573 9.91212C20.7013 9.8295 20.7888 9.66427 20.7888 9.46289C20.7888 9.2615 20.6962 9.11692 20.5573 9.03947C20.4236 8.96201 20.223 8.95685 20.0224 8.95685H18.6338V10.0102H20.007C20.223 10.0102 20.403 9.9999 20.5573 9.91212Z" fill="#306FC8"/>
<path id="Vector_4" d="M2.06738 10.6559H3.60517L2.83371 8.77637L2.06738 10.6559Z" fill="#306FC8"/>
<path id="Vector_5" d="M19.9033 17.084H18.4375V18.2716H19.893C20.3199 18.2716 20.5873 18.0651 20.5873 17.6571C20.5822 17.2492 20.3044 17.084 19.9033 17.084Z" fill="#306FC8"/>
<path id="Vector_6" d="M2.35554 12.5713H3.32245L3.75961 13.6298H7.5398V12.8243L7.87924 13.6298H9.83363L10.1731 12.814V13.6298H19.5644V11.9052H19.7495C19.8833 11.9052 19.9193 11.9207 19.9193 12.1324V13.6298H24.7744V13.2219C25.1601 13.4336 25.767 13.6298 26.5796 13.6298H28.6214L29.0637 12.5713H30.0306L30.4678 13.6298H34.392V12.6281L34.9937 13.6298H38.1464V7.04102H35.0297V7.81556L34.5823 7.04102H31.3781V7.81556L30.9872 7.04102H26.6567C25.9264 7.04102 25.2835 7.13912 24.7744 7.41796V7.04102H21.7914V7.41796C21.4416 7.13396 21.0045 7.04102 20.5107 7.04102H9.5919L8.85129 8.73986L8.11068 7.04102H4.67509V7.81556L4.28421 7.04102H1.35264L0 10.165V13.6298H1.91838L2.35554 12.5713ZM24.9852 8.52298C25.3452 8.14604 25.9213 7.97047 26.6979 7.97047H27.7728V8.98255H26.7185C26.3019 8.98255 26.0704 9.04451 25.8493 9.26655C25.6538 9.46277 25.5201 9.83971 25.5201 10.3354C25.5201 10.8415 25.6178 11.1978 25.839 11.4456C26.0036 11.6315 26.3173 11.6883 26.6207 11.6883H27.1248L28.7088 7.97047H30.3855L32.2936 12.4422V7.97047H34.0114L35.9863 11.2597V7.97047H37.1435V12.7004H35.5389L33.4148 9.15811V12.7004H31.1261L30.6941 11.6418H28.354L27.9219 12.7004H26.6156C26.0653 12.7004 25.371 12.5713 24.9801 12.1737C24.5841 11.7709 24.3835 11.2287 24.3835 10.3716C24.3835 9.66931 24.5069 9.02902 24.9852 8.52298ZM22.6811 7.97047H23.8332V12.7004H22.6811V7.97047ZM17.5123 7.97047H20.1044C20.6753 7.97047 21.097 7.99113 21.4571 8.19767C21.8171 8.40938 22.0382 8.7192 22.0382 9.24589C22.0382 9.99462 21.5342 10.3819 21.2359 10.5007C21.4828 10.5936 21.6936 10.764 21.7914 10.9034C21.9508 11.1306 21.9765 11.3475 21.9765 11.7606V12.7004H20.845V12.1014C20.845 11.8226 20.8707 11.4095 20.6599 11.1874C20.5004 11.017 20.2536 10.9809 19.8421 10.9809H18.6335V12.7004H17.5071V7.97047H17.5123ZM12.9761 7.97047H16.7305V8.95673H14.0973V9.80873H16.6637V10.7795H14.0973V11.7141L16.7305 11.709V12.6952H12.9761V7.97047ZM1.23435 12.7004H0.0102862L2.02124 7.97047H3.6979L5.60599 12.4422V7.97047H7.44722L8.91301 11.1771L10.2656 7.97047H12.1377V12.7004H10.9857V8.99804L9.35532 12.7004H8.36784L6.73233 8.99287V12.7004H4.4385L4.00648 11.6418H1.66637L1.23435 12.7004Z" fill="#306FC8"/>
<path id="Vector_7" d="M29.5212 8.77637L28.7549 10.6559H30.2875L29.5212 8.77637Z" fill="#306FC8"/>
<path id="Vector_8" d="M37.5086 17.193C37.3903 17.2704 37.3389 17.384 37.3389 17.5338C37.3389 17.7093 37.4417 17.8333 37.5857 17.8849C37.6989 17.9262 37.8275 17.9365 38.0178 17.9365L38.6195 17.952C39.2418 17.9675 39.6533 18.0708 39.9053 18.3341C39.9413 18.3703 39.9721 18.4064 39.9979 18.4426V17.1104H37.956C37.7555 17.1104 37.6166 17.1207 37.5086 17.193Z" fill="#306FC8"/>
<path id="Vector_9" d="M38.4814 20.8222H36.311V19.8101H38.4711C38.682 19.8101 38.8311 19.7791 38.9237 19.6965C39.0008 19.6242 39.0574 19.5209 39.0574 19.3867C39.0574 19.2473 39.0008 19.1388 38.9186 19.0717C38.8363 18.9994 38.718 18.9684 38.5277 18.9684C37.4785 18.9374 36.1567 19.0046 36.1567 17.5019C36.1567 16.8255 36.5836 16.0974 37.7665 16.0974H40.0037V15.168H37.9208C37.2985 15.168 36.8305 15.3126 36.5116 15.5449V15.168H33.4411C32.9525 15.168 32.3662 15.2867 32.0936 15.5449V15.168H26.5957V15.5449C26.1585 15.2351 25.423 15.168 25.0733 15.168H21.4474V15.5449C21.1028 15.2093 20.3416 15.168 19.8736 15.168H15.8106L14.8797 16.18L14.0156 15.168H7.95703V21.7568H13.9076L14.8591 20.7292L15.7643 21.7516L19.4262 21.7568V20.2025H19.7913C20.2748 20.2025 20.8508 20.1922 21.3497 19.9753V21.7568H24.3841V20.0321H24.5333C24.7184 20.0321 24.7339 20.0476 24.7339 20.2232V21.7568H33.9143C34.4903 21.7568 35.1126 21.607 35.4521 21.3385V21.7568H38.3631C38.9648 21.7568 39.5614 21.669 40.014 21.4521V20.2283C39.7209 20.6311 39.2066 20.8222 38.4814 20.8222ZM19.8325 19.2421H18.4335V20.8222H16.2426L14.8642 19.2679L13.4242 20.8273H8.96508V16.0974H13.491L14.8694 17.6517L16.3043 16.0974H19.9045C20.7891 16.0974 21.792 16.3556 21.792 17.662C21.7869 18.9684 20.8148 19.2421 19.8325 19.2421ZM26.6008 19.0304C26.7602 19.2576 26.786 19.4745 26.7911 19.8875V20.8222H25.6596V20.2232C25.6596 19.9443 25.6853 19.5313 25.4745 19.3092C25.3099 19.1388 25.0682 19.1027 24.6567 19.1027H23.4481V20.8222H22.3217V16.0923H24.9139C25.4847 16.0923 25.9013 16.1129 26.2665 16.3246C26.6265 16.5363 26.8477 16.8462 26.8477 17.3728C26.8477 18.1216 26.3436 18.5088 26.0505 18.6276C26.2974 18.7206 26.5082 18.891 26.6008 19.0304ZM31.2245 17.0837H28.5963V17.9357H31.1679V18.9116H28.5963V19.8462H31.2296V20.8273H27.4751V16.0974H31.2296V17.0837H31.2245ZM34.084 20.8222H31.8931V19.8101H34.0737C34.2846 19.8101 34.4338 19.7791 34.5263 19.6965C34.6035 19.6242 34.6601 19.5209 34.6601 19.3867C34.6601 19.2473 34.6035 19.1388 34.5212 19.0717C34.4389 18.9994 34.3206 18.9684 34.1303 18.9684C33.0811 18.9374 31.7593 19.0046 31.7593 17.5019C31.7593 16.8203 32.1862 16.0974 33.3691 16.0974H35.6218V17.1095H33.5594C33.3537 17.1095 33.22 17.1147 33.1068 17.187C32.9885 17.2644 32.9423 17.378 32.9423 17.5278C32.9423 17.7033 33.0451 17.8272 33.1891 17.8789C33.3074 17.9202 33.4309 17.9305 33.6211 17.9305L34.2229 17.946C34.8452 17.9615 35.2567 18.0648 35.5087 18.3281C35.7298 18.5656 35.8481 18.8393 35.8481 19.3299C35.8533 20.3419 35.2258 20.8222 34.084 20.8222Z" fill="#306FC8"/>
<path id="Vector_10" d="M25.3708 17.1614C25.2371 17.0891 25.0313 17.084 24.8359 17.084H23.4473V18.1374H24.8205C25.0365 18.1374 25.2216 18.1322 25.3708 18.0444C25.5148 17.9618 25.6022 17.7966 25.6022 17.5952C25.5971 17.3886 25.5097 17.2441 25.3708 17.1614Z" fill="#306FC8"/>
</g>
</g>
</g>
</g>
</g>
</svg>
