<svg width="40" height="27" viewBox="0 0 40 27" fill="none" xmlns="http://www.w3.org/2000/svg">
<g id="Discover">
<g id="Button">
<rect id="Card" y="1.35352" width="40" height="26" rx="2.51813" fill="#F4F5FF"/>
<g id="Horizontal container">
<path id="Vector" d="M6.17817 11.8945H4.80078V16.7802H6.17087C6.8994 16.7802 7.42548 16.6057 7.88724 16.2162C8.43598 15.755 8.76053 15.0598 8.76053 14.3407C8.76068 12.8991 7.69992 11.8945 6.17817 11.8945ZM7.27434 15.5648C6.97946 15.8351 6.5966 15.9531 5.99031 15.9531H5.73853V12.7224H5.99031C6.5966 12.7224 6.96448 12.8325 7.27434 13.1175C7.59889 13.4109 7.79404 13.8657 7.79404 14.3336C7.79404 14.8028 7.59889 15.2714 7.27434 15.5648Z" fill="#173C6A"/>
<path id="Vector_2" d="M10.1307 11.8945H9.19238V16.7802H10.1307V11.8945Z" fill="#173C6A"/>
<path id="Vector_3" d="M12.4253 13.7691C11.8622 13.5575 11.6969 13.4179 11.6969 13.154C11.6969 12.8462 11.9915 12.6125 12.3958 12.6125C12.677 12.6125 12.908 12.7297 13.1525 13.0081L13.6434 12.3552C13.24 11.9967 12.7573 11.8135 12.2299 11.8135C11.3787 11.8135 10.7295 12.4138 10.7295 13.2134C10.7295 13.8865 11.0317 14.2311 11.913 14.5532C12.2804 14.6847 12.4674 14.7724 12.5617 14.8313C12.7492 14.9557 12.8431 15.1318 12.8431 15.3368C12.8431 15.7327 12.5332 16.026 12.1145 16.026C11.667 16.026 11.3065 15.7987 11.0905 15.3744L10.4844 15.9673C10.9167 16.6118 11.4359 16.8974 12.1499 16.8974C13.125 16.8974 13.809 16.239 13.809 15.2932C13.8089 14.517 13.4927 14.1655 12.4253 13.7691Z" fill="#173C6A"/>
<path id="Vector_4" d="M14.1045 14.3401C14.1045 15.7761 15.2149 16.8896 16.6437 16.8896C17.0477 16.8896 17.3936 16.809 17.8201 16.605V15.4832C17.445 15.8645 17.1127 16.0182 16.6874 16.0182C15.7423 16.0182 15.0717 15.3223 15.0717 14.333C15.0717 13.395 15.7636 12.6549 16.6438 12.6549C17.0914 12.6549 17.4301 12.8171 17.8203 13.2047V12.0833C17.4084 11.8711 17.0698 11.7832 16.666 11.7832C15.2441 11.7834 14.1045 12.9196 14.1045 14.3401Z" fill="#173C6A"/>
<path id="Vector_5" d="M25.2601 15.1762L23.9773 11.8945H22.9521L24.9938 16.9056H25.4986L27.5768 11.8945H26.5596L25.2601 15.1762Z" fill="#173C6A"/>
<path id="Vector_6" d="M28.001 16.7802H30.6621V15.9532H28.9386V14.6344H30.5986V13.8068H28.9386V12.7224H30.6621V11.8945H28.001V16.7802Z" fill="#173C6A"/>
<path id="Vector_7" d="M34.3779 13.3369C34.3779 12.4222 33.7576 11.8945 32.6755 11.8945H31.2842V16.7802H32.2214V14.8176H32.3438L33.6425 16.7803H34.7964L33.2821 14.7219C33.9888 14.576 34.3779 14.085 34.3779 13.3369ZM32.4955 14.1438H32.2215V12.6641H32.5104C33.0947 12.6641 33.4125 12.9128 33.4125 13.3883C33.4125 13.8795 33.0948 14.1438 32.4955 14.1438Z" fill="#173C6A"/>
<g id="Rating">
<path id="Vector_8" d="M20.686 16.953C22.0994 16.953 23.2451 15.7894 23.2451 14.3539C23.2451 12.9185 22.0994 11.7549 20.686 11.7549C19.2727 11.7549 18.127 12.9185 18.127 14.3539C18.127 15.7894 19.2727 16.953 20.686 16.953Z" fill="url(#paint0_linear_75_978)"/>
<path id="Vector_9" opacity="0.65" d="M20.686 16.953C22.0994 16.953 23.2451 15.7894 23.2451 14.3539C23.2451 12.9185 22.0994 11.7549 20.686 11.7549C19.2727 11.7549 18.127 12.9185 18.127 14.3539C18.127 15.7894 19.2727 16.953 20.686 16.953Z" fill="url(#paint1_linear_75_978)"/>
</g>
<g id="Text input">
<path id="Vector_10" d="M34.9765 12.078C34.9765 11.9923 34.9185 11.9455 34.8164 11.9455H34.6807V12.3749H34.7815V12.2083L34.8999 12.3749H35.023L34.884 12.1978C34.9437 12.1816 34.9765 12.1376 34.9765 12.078ZM34.7987 12.1367H34.7816V12.0244H34.7998C34.8496 12.0244 34.8757 12.0426 34.8757 12.0796C34.8757 12.1175 34.8493 12.1367 34.7987 12.1367Z" fill="#173C6A"/>
<path id="Vector_11" d="M34.837 11.7852C34.6317 11.7852 34.4688 11.9515 34.4688 12.1595C34.4688 12.3674 34.6336 12.534 34.837 12.534C35.037 12.534 35.2009 12.3655 35.2009 12.1595C35.2009 11.9543 35.0369 11.7852 34.837 11.7852ZM34.8354 12.467C34.6738 12.467 34.5417 12.3305 34.5417 12.16C34.5417 11.9891 34.6721 11.8526 34.8354 11.8526C34.9962 11.8526 35.1273 11.9922 35.1273 12.16C35.1273 12.329 34.9964 12.467 34.8354 12.467Z" fill="#173C6A"/>
</g>
</g>
</g>
</g>
<defs>
<linearGradient id="paint0_linear_75_978" x1="21.9959" y1="16.4369" x2="20.1848" y2="13.6448" gradientUnits="userSpaceOnUse">
<stop stop-color="#F89F21"/>
<stop offset="0.2502" stop-color="#F79A23"/>
<stop offset="0.5331" stop-color="#F78E22"/>
<stop offset="0.6196" stop-color="#F68721"/>
<stop offset="0.7232" stop-color="#F48220"/>
<stop offset="1" stop-color="#F27623"/>
</linearGradient>
<linearGradient id="paint1_linear_75_978" x1="21.716" y1="16.3986" x2="19.0621" y2="11.2912" gradientUnits="userSpaceOnUse">
<stop stop-color="#F68721" stop-opacity="0"/>
<stop offset="0.3587" stop-color="#E27027" stop-opacity="0.2704"/>
<stop offset="0.703" stop-color="#D4612C" stop-opacity="0.5299"/>
<stop offset="0.9816" stop-color="#D15D2D" stop-opacity="0.74"/>
</linearGradient>
</defs>
</svg>
