<svg width="40" height="27" viewBox="0 0 40 27" fill="none" xmlns="http://www.w3.org/2000/svg">
<g id="JCB">
<g id="Button container">
<rect id="Card" y="1.35352" width="40" height="26" rx="2.51813" fill="#F4F5FF"/>
<g id="Button">
<path id="Vector" fill-rule="evenodd" clip-rule="evenodd" d="M30.3844 19.1976C30.3844 21.0094 28.9386 22.4785 27.154 22.4785H9.61621V9.50988C9.61621 7.69763 11.0622 6.22853 12.8468 6.22853L30.3844 6.22852V19.1976H30.3844Z" fill="white"/>
<path id="Vector_2" fill-rule="evenodd" clip-rule="evenodd" d="M24.6664 14.6385H24.6779H24.7002H24.7225H24.7447H24.767H24.7893H24.8115H24.8338H24.8561H24.8784H24.9006H24.9229H24.9452H24.9674H24.9897H25.012H25.0342H25.0565H25.0788H25.1011H25.1233H25.1456H25.1679H25.1901H25.2124H25.2347H25.257H25.2792H25.3015H25.3238H25.346H25.3683H25.3906H25.4128H25.4351H25.4574H25.4797H25.5019H25.5242H25.5465H25.5687H25.591H25.6133H25.6356H25.6578H25.6801H25.7024H25.7246H25.7469H25.7692H25.7914H25.8137H25.836H25.8583H25.8805H25.9028H25.9251H25.9473H25.9696H25.9919H26.0104L26.0142 14.6386C26.021 14.6387 26.0285 14.6391 26.0364 14.6395C26.0436 14.6399 26.051 14.6404 26.0587 14.641C26.066 14.6415 26.0735 14.6422 26.081 14.6428C26.0885 14.6435 26.0959 14.6443 26.1032 14.6451C26.1109 14.646 26.1184 14.6469 26.1255 14.6479C26.1335 14.649 26.141 14.6501 26.1478 14.6513C26.1527 14.6521 26.1572 14.653 26.1612 14.6539L26.17 14.6559C26.1775 14.6577 26.1849 14.6596 26.1923 14.6617C26.1998 14.6638 26.2072 14.666 26.2146 14.6684C26.2221 14.6708 26.2295 14.6734 26.2368 14.6761C26.2443 14.6788 26.2517 14.6817 26.2591 14.6848C26.2666 14.6879 26.274 14.6912 26.2814 14.6946C26.2889 14.6981 26.2963 14.7017 26.3037 14.7055C26.3112 14.7094 26.3186 14.7134 26.3259 14.7176C26.3334 14.7219 26.3409 14.7264 26.3482 14.731C26.3557 14.7358 26.3632 14.7407 26.3705 14.7458C26.378 14.751 26.3854 14.7564 26.3927 14.762C26.4003 14.7678 26.4077 14.7738 26.415 14.78C26.4226 14.7864 26.43 14.793 26.4373 14.7998C26.4449 14.8069 26.4523 14.8142 26.4596 14.8217C26.4672 14.8296 26.4746 14.8377 26.4818 14.8461C26.4895 14.8549 26.4969 14.864 26.5041 14.8734C26.5118 14.8835 26.5192 14.8938 26.5264 14.9044C26.5342 14.916 26.5416 14.928 26.5486 14.9402C26.5566 14.954 26.564 14.9682 26.5709 14.9828C26.5791 15.0001 26.5866 15.0179 26.5932 15.0362C26.6021 15.0608 26.6096 15.0863 26.6154 15.1127C26.6256 15.1583 26.6311 15.2064 26.6311 15.2566C26.6311 15.3071 26.6257 15.3554 26.6154 15.4012C26.6096 15.4276 26.6021 15.4532 26.5932 15.4779C26.5865 15.4962 26.5791 15.5141 26.5709 15.5314C26.564 15.546 26.5566 15.5602 26.5486 15.5741C26.5416 15.5863 26.5342 15.5982 26.5264 15.6099C26.5192 15.6205 26.5118 15.6308 26.5041 15.6409C26.4969 15.6503 26.4895 15.6593 26.4818 15.6682C26.4746 15.6766 26.4672 15.6847 26.4596 15.6926C26.4523 15.7001 26.4449 15.7073 26.4373 15.7144C26.43 15.7212 26.4226 15.7278 26.415 15.7342C26.4077 15.7403 26.4003 15.7463 26.3927 15.7521C26.3854 15.7576 26.378 15.763 26.3705 15.7682C26.3632 15.7733 26.3557 15.7782 26.3482 15.7829C26.3409 15.7876 26.3334 15.792 26.3259 15.7963C26.3186 15.8005 26.3112 15.8045 26.3037 15.8083C26.2963 15.8121 26.2889 15.8157 26.2814 15.8192C26.274 15.8226 26.2666 15.8258 26.2591 15.8289C26.2517 15.8319 26.2443 15.8348 26.2368 15.8375C26.2295 15.8402 26.2221 15.8428 26.2146 15.8451C26.2072 15.8475 26.1998 15.8497 26.1923 15.8518C26.1849 15.8538 26.1775 15.8557 26.17 15.8574L26.1612 15.8594C26.1572 15.8604 26.1527 15.8613 26.1478 15.8622C26.141 15.8634 26.1335 15.8645 26.1255 15.8657C26.1184 15.8666 26.1109 15.8676 26.1032 15.8684C26.0959 15.8693 26.0885 15.87 26.081 15.8707C26.0735 15.8714 26.066 15.872 26.0587 15.8725C26.051 15.8731 26.0436 15.8736 26.0364 15.8739C26.0285 15.8743 26.021 15.8747 26.0142 15.8748L26.0022 15.875H25.9919H25.9696H25.9473H25.9251H25.9028H25.8805H25.8583H25.836H25.8137H25.7914H25.7692H25.7469H25.7246H25.7024H25.6801H25.6578H25.6356H25.6133H25.591H25.5687H25.5465H25.5242H25.5019H25.4797H25.4574H25.4351H25.4128H25.3906H25.3683H25.346H25.3238H25.3015H25.2792H25.257H25.2347H25.2124H25.1901H25.1679H25.1456H25.1233H25.1011H25.0788H25.0565H25.0342H25.012H24.9897H24.9674H24.9452H24.9229H24.9006H24.8784H24.8561H24.8338H24.8115H24.7893H24.767H24.7447H24.7225H24.7002H24.6779H24.6664V14.6385ZM26.4596 13.239C26.4686 13.2805 26.4734 13.3245 26.4734 13.3708C26.4734 13.417 26.4686 13.4609 26.4596 13.5024C26.4539 13.5291 26.4464 13.5547 26.4374 13.5792C26.4307 13.5971 26.4233 13.6145 26.4151 13.6312C26.4082 13.6453 26.4008 13.6589 26.3928 13.6721C26.3858 13.6838 26.3783 13.6951 26.3705 13.7061C26.3634 13.7161 26.356 13.7258 26.3483 13.7352C26.3411 13.744 26.3337 13.7525 26.326 13.7608C26.3188 13.7685 26.3114 13.7761 26.3038 13.7833C26.2965 13.7903 26.2891 13.797 26.2815 13.8035C26.2742 13.8097 26.2668 13.8158 26.2592 13.8216C26.2519 13.8272 26.2445 13.8326 26.2369 13.8379C26.2296 13.843 26.2222 13.8478 26.2147 13.8525C26.2073 13.8571 26.1999 13.8615 26.1924 13.8657C26.1851 13.8699 26.1776 13.8738 26.1701 13.8776C26.1628 13.8813 26.1553 13.8849 26.1479 13.8883C26.1405 13.8916 26.1331 13.8947 26.1256 13.8977C26.1182 13.9007 26.1108 13.9035 26.1033 13.9061C26.096 13.9087 26.0885 13.9112 26.0811 13.9135C26.0737 13.9157 26.0663 13.9179 26.0588 13.9198C26.0514 13.9218 26.044 13.9236 26.0365 13.9252C26.0291 13.9269 26.0217 13.9284 26.0142 13.9297L26.0088 13.9307C26.0045 13.9315 25.9987 13.9323 25.992 13.9332C25.9854 13.934 25.9778 13.9349 25.9697 13.9357C25.9626 13.9365 25.9552 13.9372 25.9474 13.9378C25.9401 13.9385 25.9326 13.939 25.9252 13.9395C25.9177 13.94 25.9102 13.9404 25.9029 13.9407C25.8952 13.941 25.8877 13.9412 25.8806 13.9413L25.8771 13.9413H25.8584H25.8361H25.8138H25.7916H25.7693H25.747H25.7247H25.7025H25.6802H25.6579H25.6357H25.6134H25.5911H25.5689H25.5466H25.5243H25.502H25.4798H25.4575H25.4352H25.413H25.3907H25.3684H25.3462H25.3239H25.3016H25.2793H25.2571H25.2348H25.2125H25.1903H25.168H25.1457H25.1235H25.1012H25.0789H25.0567H25.0344H25.0121H24.9898H24.9676H24.9453H24.923H24.9008H24.8785H24.8562H24.834H24.8117H24.7894H24.7671H24.7449H24.7226H24.7003H24.6781H24.6664V12.8002H24.6781H24.7003H24.7226H24.7449H24.7671H24.7894H24.8117H24.834H24.8562H24.8785H24.9008H24.923H24.9453H24.9676H24.9898H25.0121H25.0344H25.0567H25.0789H25.1012H25.1235H25.1457H25.168H25.1903H25.2125H25.2348H25.2571H25.2793H25.3016H25.3239H25.3462H25.3684H25.3907H25.413H25.4352H25.4575H25.4798H25.502H25.5243H25.5466H25.5689H25.5911H25.6134H25.6357H25.6579H25.6802H25.7025H25.7247H25.747H25.7693H25.7916H25.8138H25.8361H25.8584H25.8806H25.89L25.9029 12.8007C25.9102 12.801 25.9177 12.8014 25.9252 12.8019C25.9326 12.8024 25.9401 12.803 25.9474 12.8036C25.9552 12.8042 25.9626 12.8049 25.9697 12.8056C25.9778 12.8064 25.9854 12.8072 25.992 12.808C25.9987 12.8088 26.0045 12.8095 26.0088 12.8101L26.0142 12.8111C26.0217 12.8125 26.0291 12.814 26.0365 12.8157C26.044 12.8174 26.0514 12.8192 26.0588 12.8211C26.0663 12.8232 26.0737 12.8253 26.0811 12.8276C26.0885 12.8299 26.096 12.8324 26.1033 12.835C26.1108 12.8376 26.1182 12.8404 26.1256 12.8434C26.1331 12.8464 26.1405 12.8496 26.1479 12.8529C26.1553 12.8563 26.1628 12.8599 26.1701 12.8636C26.1776 12.8674 26.1851 12.8714 26.1924 12.8755C26.1999 12.8797 26.2073 12.8841 26.2147 12.8887C26.2222 12.8934 26.2296 12.8983 26.2369 12.9034C26.2445 12.9086 26.2519 12.9141 26.2592 12.9197C26.2668 12.9255 26.2742 12.9316 26.2815 12.9378C26.2891 12.9443 26.2965 12.951 26.3038 12.958C26.3114 12.9653 26.3188 12.9728 26.326 12.9806C26.3337 12.9888 26.3411 12.9973 26.3483 13.0061C26.356 13.0155 26.3634 13.0253 26.3705 13.0353C26.3783 13.0463 26.3858 13.0576 26.3928 13.0693C26.4008 13.0824 26.4082 13.0961 26.4151 13.1101C26.4233 13.1269 26.4307 13.1442 26.4374 13.1622C26.4464 13.1867 26.4539 13.2124 26.4596 13.239ZM29.2215 7.32231H29.2306L29.2306 19.0411C29.2306 19.1111 29.2274 19.1804 29.2215 19.2488C29.2163 19.3091 29.2088 19.3687 29.1992 19.4275C29.1927 19.4671 29.1853 19.5062 29.1769 19.5451C29.1701 19.5767 29.1627 19.6081 29.1546 19.6392C29.1477 19.666 29.1402 19.6927 29.1324 19.7191C29.1253 19.743 29.1179 19.7669 29.1101 19.7905C29.103 19.8119 29.0955 19.8331 29.0878 19.8542C29.0807 19.8739 29.0732 19.8934 29.0655 19.9128C29.0583 19.9311 29.0509 19.9492 29.0433 19.9672C29.036 19.9843 29.0286 20.0012 29.021 20.0181C29.0137 20.0342 29.0063 20.0501 28.9987 20.066C28.9914 20.0812 28.984 20.0963 28.9765 20.1113C28.9692 20.1257 28.9617 20.14 28.9542 20.1542C28.9469 20.1679 28.9394 20.1814 28.9319 20.1949C28.9246 20.2079 28.9172 20.2209 28.9096 20.2338C28.9023 20.2464 28.8949 20.2589 28.8874 20.2713C28.88 20.2833 28.8726 20.2954 28.8651 20.3073C28.8578 20.3189 28.8503 20.3304 28.8428 20.3418C28.8355 20.3529 28.828 20.3639 28.8205 20.3748C28.8132 20.3856 28.8058 20.3964 28.7982 20.407C28.7909 20.4174 28.7835 20.4278 28.776 20.438C28.7687 20.448 28.7612 20.4579 28.7537 20.4678C28.7463 20.4775 28.7389 20.4873 28.7314 20.4969C28.7241 20.5063 28.7167 20.5156 28.7092 20.5249C28.7018 20.534 28.6943 20.543 28.6869 20.552C28.6795 20.5609 28.6721 20.5698 28.6646 20.5786C28.6573 20.5872 28.6498 20.5956 28.6423 20.6041C28.635 20.6125 28.6275 20.6208 28.6201 20.629C28.6127 20.6372 28.6053 20.6453 28.5978 20.6533C28.5904 20.6612 28.583 20.6689 28.5755 20.6767C28.5681 20.6844 28.5607 20.6922 28.5532 20.6998C28.5459 20.7072 28.5384 20.7145 28.531 20.7219C28.5236 20.7292 28.5162 20.7365 28.5087 20.7437C28.5013 20.7508 28.4939 20.7577 28.4864 20.7647C28.479 20.7716 28.4716 20.7785 28.4641 20.7853C28.4568 20.7921 28.4494 20.7988 28.4419 20.8054C28.4345 20.812 28.427 20.8184 28.4196 20.8249C28.4122 20.8313 28.4048 20.8377 28.3973 20.844C28.39 20.8503 28.3825 20.8564 28.375 20.8625C28.3676 20.8686 28.3603 20.8747 28.3528 20.8807C28.3454 20.8867 28.3379 20.8924 28.3305 20.8983C28.3231 20.9041 28.3157 20.9099 28.3082 20.9156C28.3009 20.9212 28.2934 20.9267 28.286 20.9323C28.2785 20.9378 28.2711 20.9434 28.2637 20.9488C28.2563 20.9542 28.2488 20.9594 28.2414 20.9647C28.234 20.9699 28.2266 20.9752 28.2191 20.9803C28.2117 20.9854 28.2043 20.9904 28.1969 20.9954C28.1895 21.0004 28.1821 21.0054 28.1746 21.0103C28.1672 21.0152 28.1598 21.02 28.1523 21.0247C28.1449 21.0295 28.1375 21.0342 28.13 21.0389C28.1226 21.0435 28.1152 21.048 28.1078 21.0526L28.0855 21.066C28.0781 21.0703 28.0707 21.0747 28.0632 21.079C28.0558 21.0833 28.0484 21.0875 28.0409 21.0917C28.0335 21.0959 28.0261 21.1001 28.0187 21.1042C28.0113 21.1082 28.0038 21.1122 27.9964 21.1161C27.989 21.1201 27.9816 21.1242 27.9741 21.1281C27.9667 21.1319 27.9593 21.1356 27.9518 21.1393C27.9444 21.1431 27.937 21.1469 27.9296 21.1506C27.9222 21.1542 27.9147 21.1578 27.9073 21.1613L27.885 21.1719L27.8628 21.1822C27.8553 21.1855 27.8479 21.1888 27.8405 21.1921C27.833 21.1953 27.8257 21.1987 27.8182 21.2019C27.8108 21.205 27.8034 21.208 27.7959 21.2111C27.7885 21.2142 27.7811 21.2174 27.7737 21.2204C27.7663 21.2233 27.7588 21.2262 27.7514 21.2291C27.744 21.232 27.7366 21.2348 27.7291 21.2377L27.7068 21.246C27.6994 21.2487 27.692 21.2513 27.6845 21.254C27.6771 21.2566 27.6698 21.2594 27.6623 21.2619C27.6549 21.2645 27.6474 21.2668 27.64 21.2693L27.6177 21.2766C27.6103 21.279 27.6029 21.2813 27.5955 21.2836L27.5732 21.2903C27.5658 21.2925 27.5584 21.2948 27.5509 21.2969C27.5435 21.299 27.5361 21.301 27.5286 21.3031C27.5212 21.3051 27.5138 21.3072 27.5064 21.3092L27.4841 21.3149L27.4618 21.3204L27.4395 21.3258C27.4321 21.3275 27.4247 21.3291 27.4173 21.3307C27.4098 21.3324 27.4024 21.3341 27.395 21.3356L27.3727 21.3402L27.3504 21.3445C27.343 21.3459 27.3356 21.3474 27.3282 21.3488C27.3208 21.3501 27.3133 21.3512 27.3059 21.3525L27.2836 21.3563L27.2613 21.3596L27.2391 21.3628C27.2316 21.3638 27.2243 21.365 27.2168 21.366C27.2094 21.3669 27.2019 21.3677 27.1945 21.3686C27.1871 21.3695 27.1797 21.3704 27.1723 21.3712C27.1648 21.372 27.1574 21.3728 27.15 21.3735C27.1426 21.3743 27.1351 21.3749 27.1277 21.3755C27.1203 21.3762 27.1129 21.3769 27.1054 21.3775C27.098 21.3781 27.0906 21.3786 27.0832 21.3791L27.0609 21.3805C27.0535 21.381 27.0461 21.3815 27.0386 21.3819C27.0312 21.3823 27.0238 21.3825 27.0163 21.3828L26.9941 21.3836L26.9718 21.3842C26.9644 21.3844 26.9569 21.3844 26.9495 21.3845L26.9272 21.3848L26.9226 21.3848H26.905H26.8827H26.8604H26.8381H26.8159H26.7936H26.7713H26.7491H26.7268H26.7045H26.6822H26.66H26.6377H26.6154H26.5931H26.5708H26.5486H26.5263H26.504H26.4818H26.4595H26.4372H26.4149H26.3927H26.3704H26.3481H26.3259H26.3036H26.2813H26.259H26.2367H26.2145H26.1922H26.1699H26.1476H26.1254H26.1031H26.0808H26.0586H26.0363H26.014H25.9917H25.9695H25.9472H25.9249H25.9026H25.8804H25.8581H25.8358H25.8135H25.7913H25.769H25.7467H25.7244H25.7022H25.6799H25.6576H25.6354H25.6131H25.5908H25.5685H25.5463H25.524H25.5017H25.4794H25.4572H25.4349H25.4126H25.3903H25.3681H25.3458H25.3235H25.3012H25.279H25.2567H25.2344H25.2122H25.1899H25.1676H25.1453H25.123H25.1008H25.0785H25.0562H25.0339H25.0117H24.9894H24.9671H24.9449H24.9226H24.9003H24.878H24.8558H24.8335H24.8112H24.7889H24.7667H24.7444H24.7221H24.6998H24.6776H24.6553H24.633H24.6107H24.5885H24.5662H24.5439H24.5217H24.4994H24.4771H24.4548H24.4326H24.4103H24.388H24.3657H24.3435H24.3212H24.2989H24.2766H24.2544H24.2321H24.2098H24.1875H24.1653H24.143H24.1207H24.0985H24.0762H24.0539H24.0316H24.0094H23.9871H23.9648H23.9425H23.9202H23.898H23.8757H23.8534H23.8312H23.8089H23.7866H23.7643H23.7421H23.7198H23.6975H23.6752H23.653H23.6307H23.6084H23.5861H23.5381V16.6067H23.5861H23.6084H23.6307H23.653H23.6752H23.6975H23.7198H23.7421H23.7643H23.7866H23.8089H23.8312H23.8534H23.8757H23.898H23.9202H23.9425H23.9648H23.9871H24.0094H24.0316H24.0539H24.0762H24.0985H24.1207H24.143H24.1653H24.1875H24.2098H24.2321H24.2544H24.2766H24.2989H24.3212H24.3435H24.3657H24.388H24.4103H24.4326H24.4548H24.4771H24.4994H24.5217H24.5439H24.5662H24.5885H24.6107H24.633H24.6553H24.6776H24.6998H24.7221H24.7444H24.7667H24.7889H24.8112H24.8335H24.8558H24.878H24.9003H24.9226H24.9449H24.9671H24.9894H25.0117H25.0339H25.0562H25.0785H25.1008H25.123H25.1453H25.1676H25.1899H25.2122H25.2344H25.2567H25.279H25.3012H25.3235H25.3458H25.3681H25.3903H25.4126H25.4349H25.4572H25.4794H25.5017H25.524H25.5463H25.5685H25.5908H25.6131H25.6354H25.6576H25.6799H25.7022H25.7244H25.7467H25.769H25.7913H25.8135H25.8358H25.8581H25.8804H25.9026H25.9249H25.9472H25.9695H25.9917H26.014H26.0363H26.0586H26.0808H26.1031H26.1254H26.1476H26.1699H26.1922H26.2145H26.2367H26.259H26.2813H26.3036H26.3259H26.3481H26.3704H26.3927H26.4149H26.4372H26.4595H26.4818H26.504H26.5263H26.5486H26.5708H26.5931H26.6154H26.6377H26.66H26.6822H26.7045H26.7268H26.7491H26.7713H26.7936H26.8159H26.8381H26.8604H26.8827H26.905H26.9272H26.9495H26.9718H26.9941H27.0163H27.0386H27.0609H27.0832H27.1054H27.1172L27.1277 16.6066L27.15 16.6064L27.1723 16.6059C27.1797 16.6057 27.1871 16.6056 27.1945 16.6054C27.202 16.6051 27.2094 16.6048 27.2168 16.6044L27.2391 16.6034L27.2613 16.602L27.2836 16.6004L27.3059 16.5987L27.3282 16.5966C27.3356 16.5959 27.3431 16.5952 27.3504 16.5944C27.3579 16.5936 27.3653 16.5927 27.3727 16.5918L27.395 16.5891C27.4024 16.5881 27.4099 16.5872 27.4173 16.5861C27.4247 16.5851 27.4321 16.5839 27.4395 16.5828C27.447 16.5816 27.4544 16.5805 27.4618 16.5793L27.4841 16.5755L27.5064 16.5714C27.5138 16.57 27.5213 16.5686 27.5286 16.5672C27.5361 16.5657 27.5435 16.564 27.5509 16.5625L27.5732 16.5576C27.5806 16.5559 27.5881 16.5542 27.5955 16.5524C27.6029 16.5507 27.6103 16.5488 27.6177 16.5469C27.6252 16.545 27.6326 16.5431 27.64 16.5411C27.6474 16.5392 27.6549 16.5371 27.6623 16.5351C27.6697 16.533 27.6771 16.5308 27.6845 16.5286C27.692 16.5264 27.6994 16.5242 27.7068 16.5219L27.7291 16.5148C27.7366 16.5124 27.744 16.5099 27.7514 16.5074C27.7588 16.5048 27.7663 16.5023 27.7737 16.4996C27.7811 16.4969 27.7886 16.4943 27.7959 16.4915C27.8034 16.4887 27.8108 16.4858 27.8182 16.4829C27.8257 16.48 27.8331 16.477 27.8405 16.474C27.8479 16.471 27.8554 16.4679 27.8628 16.4648C27.8702 16.4616 27.8776 16.4583 27.885 16.455C27.8925 16.4517 27.8999 16.4483 27.9073 16.4448C27.9148 16.4413 27.9222 16.4378 27.9296 16.4342C27.937 16.4306 27.9445 16.427 27.9518 16.4232C27.9593 16.4194 27.9667 16.4156 27.9741 16.4117C27.9816 16.4077 27.989 16.4036 27.9964 16.3995C28.0039 16.3954 28.0113 16.3912 28.0187 16.387C28.0261 16.3826 28.0336 16.3783 28.0409 16.3738C28.0484 16.3693 28.0559 16.3648 28.0632 16.3602C28.0707 16.3554 28.0781 16.3506 28.0855 16.3458C28.093 16.3408 28.1004 16.3358 28.1078 16.3307C28.1153 16.3256 28.1227 16.3203 28.13 16.315C28.1375 16.3096 28.145 16.3041 28.1523 16.2986C28.1598 16.2929 28.1672 16.2872 28.1746 16.2813C28.1821 16.2754 28.1895 16.2694 28.1969 16.2633C28.2044 16.257 28.2118 16.2507 28.2191 16.2443C28.2267 16.2378 28.2341 16.2311 28.2414 16.2244C28.2489 16.2174 28.2564 16.2104 28.2637 16.2033C28.2712 16.196 28.2786 16.1886 28.286 16.1811C28.2935 16.1733 28.3009 16.1655 28.3082 16.1576C28.3158 16.1493 28.3232 16.141 28.3305 16.1326C28.3381 16.1238 28.3455 16.115 28.3528 16.106C28.3604 16.0966 28.3678 16.0872 28.375 16.0776C28.3826 16.0675 28.3901 16.0574 28.3973 16.0471C28.405 16.0362 28.4124 16.0251 28.4196 16.0139C28.4273 16.002 28.4347 15.9899 28.4419 15.9778C28.4496 15.9646 28.457 15.9514 28.4641 15.9379C28.4719 15.9232 28.4794 15.9084 28.4864 15.8934C28.4943 15.8766 28.5017 15.8595 28.5087 15.8421C28.5167 15.8223 28.5242 15.8021 28.531 15.7816C28.5393 15.7563 28.5467 15.7306 28.5532 15.7043C28.5627 15.666 28.5702 15.6266 28.5755 15.5863C28.582 15.5374 28.5854 15.4871 28.5854 15.4355C28.5854 15.3852 28.582 15.3363 28.5755 15.2889C28.5702 15.2499 28.5627 15.2119 28.5532 15.1749C28.5468 15.1497 28.5393 15.1249 28.531 15.1007C28.5241 15.0808 28.5167 15.0612 28.5087 15.0419C28.5017 15.0253 28.4943 15.0088 28.4864 14.9927C28.4793 14.9781 28.4719 14.9638 28.4641 14.9496C28.457 14.9366 28.4496 14.9238 28.4419 14.9111C28.4347 14.8994 28.4273 14.8878 28.4196 14.8763C28.4124 14.8655 28.405 14.8548 28.3973 14.8443C28.3901 14.8344 28.3827 14.8246 28.375 14.8149C28.3678 14.8056 28.3604 14.7965 28.3528 14.7875C28.3455 14.7788 28.3381 14.7702 28.3305 14.7618C28.3232 14.7536 28.3158 14.7456 28.3082 14.7377C28.3009 14.73 28.2935 14.7225 28.286 14.715C28.2786 14.7078 28.2712 14.7006 28.2637 14.6936C28.2564 14.6867 28.2489 14.68 28.2414 14.6733C28.2341 14.6668 28.2267 14.6604 28.2191 14.654C28.2118 14.6479 28.2044 14.6417 28.1969 14.6357C28.1895 14.6298 28.1821 14.624 28.1746 14.6182C28.1672 14.6126 28.1598 14.6071 28.1523 14.6016C28.145 14.5962 28.1375 14.5909 28.13 14.5857C28.1227 14.5806 28.1153 14.5755 28.1078 14.5705C28.1004 14.5656 28.093 14.5607 28.0855 14.5559C28.0781 14.5513 28.0707 14.5466 28.0632 14.542C28.0559 14.5375 28.0484 14.5331 28.0409 14.5288C28.0336 14.5245 28.0261 14.5202 28.0187 14.516C28.0113 14.5119 28.0039 14.5079 27.9964 14.5039C27.989 14.4999 27.9816 14.496 27.9741 14.4922C27.9667 14.4884 27.9593 14.4846 27.9518 14.4809C27.9445 14.4773 27.9371 14.4736 27.9296 14.4701C27.9222 14.4666 27.9148 14.4632 27.9073 14.4599C27.8999 14.4565 27.8925 14.4532 27.885 14.45C27.8776 14.4468 27.8702 14.4436 27.8628 14.4405C27.8553 14.4374 27.848 14.4344 27.8405 14.4314C27.8331 14.4284 27.8257 14.4255 27.8182 14.4227C27.8108 14.4199 27.8034 14.4172 27.7959 14.4144C27.7885 14.4117 27.7811 14.4091 27.7737 14.4065C27.7663 14.4039 27.7589 14.4013 27.7514 14.3988C27.744 14.3963 27.7366 14.3939 27.7291 14.3915C27.7217 14.3892 27.7143 14.3869 27.7068 14.3846L27.6845 14.378C27.6771 14.3758 27.6697 14.3737 27.6623 14.3716C27.6549 14.3696 27.6474 14.3676 27.64 14.3656C27.6326 14.3637 27.6252 14.3618 27.6177 14.3599C27.6103 14.3581 27.6029 14.3562 27.5955 14.3545C27.5881 14.3527 27.5806 14.351 27.5732 14.3493C27.5658 14.3477 27.5584 14.3461 27.5509 14.3445C27.5435 14.3429 27.5361 14.3414 27.5286 14.3399L27.5064 14.3355L27.4841 14.3315C27.4767 14.3302 27.4693 14.3289 27.4618 14.3277L27.4395 14.3241C27.4321 14.323 27.4247 14.3219 27.4173 14.3208L27.395 14.3177L27.3727 14.3149L27.3504 14.3123L27.3282 14.31L27.3059 14.3079L27.2836 14.306L27.2631 14.3044L27.263 14.2772L27.2836 14.274L27.3059 14.2703C27.3134 14.269 27.3208 14.2677 27.3282 14.2663L27.3504 14.262C27.3579 14.2605 27.3653 14.2589 27.3727 14.2573L27.395 14.2524C27.4024 14.2507 27.4099 14.249 27.4173 14.2472C27.4247 14.2453 27.4321 14.2434 27.4395 14.2415C27.447 14.2396 27.4544 14.2375 27.4618 14.2355C27.4693 14.2335 27.4767 14.2314 27.4841 14.2292C27.4916 14.227 27.499 14.2248 27.5064 14.2226C27.5138 14.2203 27.5213 14.2179 27.5286 14.2155C27.5361 14.2131 27.5435 14.2106 27.5509 14.208C27.5584 14.2055 27.5658 14.2028 27.5732 14.2002C27.5807 14.1975 27.5881 14.1947 27.5955 14.1919C27.6029 14.1891 27.6104 14.1862 27.6177 14.1832C27.6252 14.1802 27.6326 14.1772 27.64 14.1741C27.6475 14.1709 27.6549 14.1678 27.6623 14.1645C27.6698 14.1612 27.6772 14.1578 27.6845 14.1544C27.692 14.1509 27.6995 14.1473 27.7068 14.1437C27.7143 14.1401 27.7217 14.1363 27.7291 14.1326C27.7366 14.1287 27.744 14.1248 27.7514 14.1209C27.7589 14.1168 27.7663 14.1127 27.7737 14.1086C27.7812 14.1044 27.7886 14.1001 27.7959 14.0957C27.8034 14.0913 27.8109 14.0868 27.8182 14.0822C27.8257 14.0775 27.8331 14.0728 27.8405 14.068C27.848 14.0631 27.8554 14.0581 27.8628 14.053C27.8703 14.0479 27.8777 14.0427 27.885 14.0373C27.8925 14.0319 27.9 14.0264 27.9073 14.0209C27.9148 14.0151 27.9223 14.0094 27.9296 14.0035C27.9371 13.9975 27.9445 13.9914 27.9518 13.9852C27.9594 13.9788 27.9668 13.9723 27.9741 13.9658C27.9817 13.9591 27.9891 13.9522 27.9964 13.9453C28.0039 13.9381 28.0114 13.9309 28.0187 13.9236C28.0262 13.916 28.0337 13.9084 28.0409 13.9006C28.0485 13.8925 28.0559 13.8844 28.0632 13.8761C28.0708 13.8674 28.0782 13.8587 28.0855 13.8499C28.0931 13.8406 28.1005 13.8312 28.1078 13.8218C28.1154 13.8118 28.1228 13.8016 28.13 13.7914C28.1377 13.7806 28.1451 13.7696 28.1523 13.7585C28.16 13.7466 28.1674 13.7347 28.1746 13.7225C28.1823 13.7094 28.1898 13.6961 28.1969 13.6826C28.2047 13.6679 28.2121 13.6529 28.2191 13.6378C28.227 13.6207 28.2345 13.6035 28.2414 13.586C28.2495 13.5657 28.2569 13.5451 28.2637 13.5242C28.2722 13.498 28.2796 13.4713 28.286 13.4443C28.2962 13.4005 28.3037 13.3558 28.3082 13.3103C28.3119 13.2745 28.3137 13.2381 28.3137 13.2013C28.3137 13.1626 28.3118 13.1247 28.3082 13.0879C28.3036 13.0407 28.2962 12.9952 28.286 12.9512C28.2796 12.9238 28.2721 12.897 28.2637 12.8708C28.2569 12.8499 28.2495 12.8293 28.2414 12.8092C28.2344 12.7918 28.227 12.7748 28.2191 12.7581C28.2121 12.7431 28.2046 12.7285 28.1969 12.714C28.1897 12.7008 28.1823 12.6878 28.1746 12.675C28.1674 12.6631 28.16 12.6513 28.1523 12.6398C28.1451 12.629 28.1377 12.6183 28.13 12.6078C28.1228 12.5979 28.1154 12.5881 28.1078 12.5784C28.1005 12.5692 28.0931 12.5601 28.0855 12.5511C28.0782 12.5425 28.0708 12.5342 28.0632 12.5259C28.0559 12.5179 28.0485 12.51 28.0409 12.5022C28.0336 12.4947 28.0262 12.4873 28.0187 12.48C28.0114 12.473 28.0039 12.466 27.9964 12.4591C27.9891 12.4525 27.9816 12.4459 27.9741 12.4394C27.9668 12.4331 27.9594 12.4269 27.9518 12.4207C27.9445 12.4148 27.9371 12.4089 27.9296 12.4031C27.9222 12.3974 27.9148 12.3918 27.9073 12.3863C27.8999 12.381 27.8925 12.3757 27.885 12.3704C27.8777 12.3653 27.8703 12.3603 27.8628 12.3554C27.8554 12.3505 27.848 12.3457 27.8405 12.341C27.8331 12.3363 27.8257 12.3318 27.8182 12.3273C27.8108 12.3228 27.8034 12.3185 27.7959 12.3142C27.7886 12.31 27.7812 12.3058 27.7737 12.3017C27.7663 12.2977 27.7589 12.2938 27.7514 12.2898C27.744 12.286 27.7366 12.2822 27.7291 12.2785C27.7217 12.2748 27.7143 12.2711 27.7068 12.2676C27.6995 12.2641 27.692 12.2606 27.6845 12.2573C27.6772 12.2539 27.6698 12.2507 27.6623 12.2474C27.6549 12.2443 27.6475 12.2411 27.64 12.238C27.6326 12.235 27.6252 12.232 27.6177 12.2291C27.6104 12.2261 27.6029 12.2233 27.5955 12.2204C27.5881 12.2177 27.5807 12.215 27.5732 12.2123C27.5658 12.2096 27.5584 12.2071 27.5509 12.2045C27.5435 12.202 27.5361 12.1995 27.5286 12.1971C27.5213 12.1947 27.5138 12.1924 27.5064 12.1901C27.499 12.1878 27.4916 12.1855 27.4841 12.1833C27.4767 12.1811 27.4693 12.179 27.4618 12.177C27.4544 12.1749 27.447 12.1729 27.4395 12.171L27.4173 12.1652C27.4099 12.1634 27.4025 12.1615 27.395 12.1598C27.3876 12.158 27.3802 12.1563 27.3727 12.1547L27.3504 12.1499C27.343 12.1483 27.3357 12.1467 27.3282 12.1453C27.3208 12.1438 27.3133 12.1425 27.3059 12.1411L27.2836 12.1371C27.2762 12.1358 27.2688 12.1345 27.2613 12.1333L27.2391 12.1299L27.2168 12.1267L27.1945 12.1237L27.1723 12.121L27.15 12.1186L27.1277 12.1163L27.1054 12.1143L27.0832 12.1126L27.0609 12.111L27.0386 12.1097L27.0298 12.1092L27.0163 12.1083L26.9941 12.107L26.9718 12.1058L26.9495 12.1046L26.9272 12.1035L26.905 12.1025L26.8827 12.1017L26.8604 12.101L26.8381 12.1005L26.8159 12.1002L26.8036 12.1002H26.7936H26.7713H26.7491H26.7268H26.7045H26.6822H26.66H26.6377H26.6154H26.5931H26.5708H26.5486H26.5263H26.504H26.4818H26.4595H26.4372H26.4149H26.3927H26.3704H26.3481H26.3259H26.3036H26.2813H26.259H26.2367H26.2145H26.1922H26.1699H26.1476H26.1254H26.1031H26.0808H26.0586H26.0363H26.014H25.9917H25.9695H25.9472H25.9249H25.9026H25.8804H25.8581H25.8358H25.8135H25.7913H25.769H25.7467H25.7244H25.7022H25.6799H25.6576H25.6354H25.6131H25.5908H25.5685H25.5463H25.524H25.5017H25.4794H25.4572H25.4349H25.4126H25.3903H25.3681H25.3458H25.3235H25.3012H25.279H25.2567H25.2344H25.2122H25.1899H25.1676H25.1453H25.123H25.1008H25.0785H25.0562H25.0339H25.0117H24.9894H24.9671H24.9449H24.9226H24.9003H24.878H24.8558H24.8335H24.8112H24.7889H24.7667H24.7444H24.7221H24.6998H24.6776H24.6553H24.633H24.6107H24.5885H24.5662H24.5439H24.5217H24.4994H24.4771H24.4548H24.4326H24.4103H24.388H24.3657H24.3435H24.3212H24.2989H24.2766H24.2544H24.2321H24.2098H24.1875H24.1653H24.143H24.1207H24.0985H24.0762H24.0539H24.0316H24.0094H23.9871H23.9648H23.9425H23.9202H23.898H23.8757H23.8534H23.8312H23.8089H23.7866H23.7643H23.7421H23.7198H23.6975H23.6752H23.653H23.6307H23.6084H23.5861H23.5381V9.66626C23.5381 9.50252 23.5547 9.34274 23.5861 9.18847C23.5929 9.15543 23.6003 9.12268 23.6084 9.09018C23.6153 9.06238 23.6228 9.03478 23.6307 9.00738C23.6377 8.98292 23.6452 8.95862 23.653 8.93449C23.6601 8.91244 23.6675 8.8905 23.6752 8.86875C23.6824 8.84858 23.6898 8.82851 23.6975 8.8086C23.7047 8.79 23.7121 8.7715 23.7198 8.75314C23.727 8.73582 23.7344 8.71857 23.7421 8.70145C23.7493 8.68519 23.7568 8.66905 23.7643 8.653C23.7716 8.63768 23.779 8.62248 23.7866 8.60735C23.7939 8.5928 23.8013 8.57836 23.8089 8.56398C23.8162 8.55012 23.8236 8.53636 23.8312 8.52267C23.8385 8.5094 23.8459 8.49624 23.8534 8.48313C23.8608 8.47042 23.8682 8.45776 23.8757 8.44522C23.883 8.43305 23.8905 8.42098 23.898 8.40896C23.9053 8.39731 23.9128 8.38578 23.9202 8.37429C23.9276 8.36304 23.935 8.35183 23.9425 8.34071C23.9499 8.32982 23.9572 8.31892 23.9648 8.30816C23.9721 8.29774 23.9796 8.28744 23.9871 8.27715C23.9944 8.26702 24.0019 8.25697 24.0094 8.24698C24.0167 8.23714 24.0241 8.22726 24.0316 8.21754C24.039 8.20809 24.0464 8.19879 24.0539 8.18946C24.0613 8.18025 24.0687 8.17112 24.0762 8.16204C24.0836 8.15308 24.0909 8.14412 24.0985 8.13527C24.1058 8.12665 24.1133 8.11817 24.1207 8.10966C24.1281 8.10122 24.1355 8.09277 24.143 8.08444C24.1503 8.07628 24.1578 8.0682 24.1653 8.06014C24.1726 8.05219 24.1801 8.0443 24.1875 8.03644C24.1949 8.0287 24.2023 8.02096 24.2098 8.01331C24.2172 8.00579 24.2246 7.99838 24.2321 7.99097C24.2395 7.98361 24.2468 7.97616 24.2544 7.96891C24.2617 7.9618 24.2692 7.95486 24.2766 7.94785C24.284 7.94088 24.2914 7.93388 24.2989 7.927C24.3063 7.92023 24.3137 7.9136 24.3212 7.90694C24.3286 7.90032 24.336 7.8937 24.3435 7.88718C24.3509 7.88075 24.3583 7.87441 24.3657 7.86807C24.3731 7.86179 24.3805 7.85553 24.388 7.84934C24.3954 7.84321 24.4028 7.83715 24.4103 7.83114L24.4326 7.81334L24.4548 7.79602C24.4622 7.79034 24.4696 7.78469 24.4771 7.77911C24.4845 7.77357 24.4919 7.76806 24.4994 7.76261L24.5217 7.74654C24.529 7.74127 24.5365 7.73604 24.5439 7.73086L24.5662 7.71554L24.5885 7.70064C24.5959 7.69575 24.6033 7.69087 24.6107 7.68607L24.633 7.67193C24.6404 7.66726 24.6478 7.6626 24.6553 7.65802C24.6627 7.65348 24.6701 7.64908 24.6776 7.64463C24.685 7.64019 24.6924 7.63571 24.6998 7.63136C24.7072 7.62707 24.7147 7.62292 24.7221 7.6187C24.7295 7.61448 24.7369 7.61019 24.7444 7.60607C24.7518 7.602 24.7592 7.59806 24.7667 7.59407C24.7741 7.59007 24.7815 7.58606 24.7889 7.58214C24.7963 7.57826 24.8038 7.57449 24.8112 7.5707C24.8186 7.56694 24.826 7.56315 24.8335 7.55946L24.8558 7.54852C24.8632 7.54494 24.8706 7.54146 24.878 7.53795C24.8855 7.53446 24.8928 7.53092 24.9003 7.52751C24.9077 7.52413 24.9152 7.52091 24.9226 7.51761C24.93 7.51431 24.9374 7.51095 24.9449 7.50773C24.9522 7.50454 24.9597 7.5015 24.9671 7.49839C24.9745 7.49529 24.9819 7.49216 24.9894 7.48914L25.0117 7.48024L25.0339 7.47163C25.0414 7.46878 25.0488 7.4659 25.0562 7.46314C25.0636 7.4604 25.0711 7.45783 25.0785 7.45517C25.0859 7.45251 25.0933 7.44979 25.1008 7.4472C25.1082 7.44463 25.1156 7.44221 25.123 7.43972L25.1453 7.43239C25.1527 7.42999 25.1601 7.42757 25.1676 7.42525C25.175 7.42294 25.1824 7.42076 25.1899 7.41853C25.1973 7.41628 25.2047 7.41396 25.2122 7.4118C25.2195 7.40967 25.227 7.40768 25.2344 7.40562C25.2418 7.40355 25.2492 7.40147 25.2567 7.39948L25.279 7.39363C25.2864 7.39174 25.2938 7.38994 25.3012 7.38812C25.3087 7.3863 25.3161 7.38435 25.3235 7.38261C25.3309 7.38088 25.3384 7.37931 25.3458 7.37764L25.3681 7.37271L25.3903 7.36804C25.3977 7.36654 25.4052 7.36514 25.4126 7.36371C25.42 7.36227 25.4274 7.36073 25.4349 7.35936C25.4423 7.35799 25.4497 7.35683 25.4572 7.35555L25.4794 7.3518C25.4869 7.3506 25.4943 7.34937 25.5017 7.34824C25.5091 7.34712 25.5166 7.34612 25.524 7.34507C25.5314 7.34402 25.5388 7.34288 25.5463 7.3419C25.5537 7.34093 25.5611 7.34007 25.5685 7.33917L25.5908 7.33658C25.5982 7.33575 25.6056 7.33484 25.6131 7.33409C25.6205 7.33334 25.6279 7.33275 25.6354 7.33208L25.6576 7.33007L25.6799 7.32837C25.6873 7.32782 25.6947 7.32739 25.7022 7.32692C25.7096 7.32647 25.717 7.32589 25.7244 7.3255C25.7318 7.32511 25.7393 7.32488 25.7467 7.32456L25.769 7.32372C25.7764 7.32347 25.7838 7.32316 25.7913 7.32299C25.7987 7.32282 25.8061 7.3228 25.8135 7.32269C25.821 7.32257 25.8284 7.32244 25.8358 7.32241L25.8414 7.32233H25.8581H25.8804H25.9026H25.9249H25.9472H25.9695H25.9917H26.014H26.0363H26.0586H26.0808H26.1031H26.1254H26.1476H26.1699H26.1922H26.2145H26.2367H26.259H26.2813H26.3036H26.3259H26.3481H26.3704H26.3927H26.4149H26.4372H26.4595H26.4818H26.504H26.5263H26.5486H26.5708H26.5931H26.6154H26.6377H26.66H26.6822H26.7045H26.7268H26.7491H26.7713H26.7936H26.8159H26.8381H26.8604H26.8827H26.905H26.9272H26.9495H26.9718H26.9941H27.0163H27.0386H27.0609H27.0832H27.1054H27.1277H27.15H27.1723H27.1945H27.2168H27.2391H27.2613H27.2836H27.3059H27.3282H27.3504H27.3727H27.395H27.4173H27.4395H27.4618H27.4841H27.5064H27.5286H27.5509H27.5732H27.5955H27.6177H27.64H27.6623H27.6845H27.7068H27.7291H27.7514H27.7737H27.7959H27.8182H27.8405H27.8628H27.885H27.9073H27.9296H27.9518H27.9741H27.9964H28.0187H28.0409H28.0632H28.0855H28.1078H28.13H28.1523H28.1746H28.1969H28.2191H28.2414H28.2637H28.286H28.3082H28.3305H28.3528H28.375H28.3973H28.4196H28.4419H28.4641H28.4864H28.5087H28.531H28.5532H28.5755H28.5978H28.6201H28.6423H28.6646H28.6869H28.7092H28.7314H28.7537H28.776H28.7982H28.8205H28.8428H28.8651H28.8874H28.9096H28.9319H28.9542H28.9765H28.9987H29.021H29.0433H29.0655H29.0878H29.1101H29.1324H29.1546H29.1769H29.1992H29.2215V7.32231Z" fill="url(#paint0_linear_75_1003)"/>
<path id="Vector_3" fill-rule="evenodd" clip-rule="evenodd" d="M10.8173 15.4778C10.8014 15.4701 10.7854 15.4624 10.7695 15.4546V9.66624C10.7695 9.50297 10.786 9.3436 10.8173 9.18974C10.824 9.15671 10.8315 9.12397 10.8395 9.09146C10.8464 9.06361 10.8539 9.036 10.8618 9.00857C10.8688 8.98412 10.8762 8.95985 10.884 8.93574C10.8911 8.91367 10.8985 8.8917 10.9062 8.86991C10.9134 8.84976 10.9208 8.82971 10.9285 8.80982C10.9356 8.79122 10.9431 8.77268 10.9507 8.7543C10.9579 8.73698 10.9653 8.71977 10.9729 8.70267C10.9802 8.68641 10.9876 8.67029 10.9952 8.65424C11.0024 8.6389 11.0099 8.62368 11.0174 8.60853C11.0247 8.59398 11.0321 8.57954 11.0396 8.56518C11.0469 8.55132 11.0543 8.53756 11.0619 8.52387C11.0692 8.51062 11.0766 8.49744 11.0841 8.48435C11.0914 8.47164 11.0988 8.45896 11.1063 8.4464C11.1136 8.43425 11.1211 8.42219 11.1286 8.41019C11.1359 8.39857 11.1433 8.38702 11.1508 8.37553C11.1581 8.36428 11.1655 8.35306 11.173 8.34195C11.1804 8.33103 11.1877 8.32014 11.1953 8.30936C11.2026 8.29895 11.21 8.28868 11.2175 8.27839C11.2249 8.26826 11.2323 8.25821 11.2398 8.24822C11.2471 8.23839 11.2545 8.22849 11.262 8.21878C11.2693 8.20935 11.2768 8.20007 11.2842 8.19075C11.2916 8.18154 11.299 8.17238 11.3065 8.16328C11.3138 8.15434 11.3212 8.14541 11.3287 8.13658C11.336 8.12794 11.3435 8.11945 11.3509 8.11092C11.3583 8.10246 11.3657 8.09402 11.3732 8.0857C11.3805 8.07754 11.3879 8.0695 11.3954 8.06145C11.4027 8.05349 11.4101 8.04559 11.4176 8.03774C11.425 8.02999 11.4324 8.02225 11.4399 8.0146C11.4472 8.00708 11.4547 7.99967 11.4621 7.99227C11.4695 7.9849 11.4768 7.97747 11.4843 7.97022C11.4917 7.96311 11.4991 7.95618 11.5066 7.94916C11.514 7.94217 11.5213 7.93516 11.5288 7.92828C11.5361 7.92153 11.5436 7.91491 11.551 7.90825C11.5584 7.90163 11.5658 7.895 11.5733 7.88847C11.5806 7.88204 11.5881 7.87572 11.5955 7.86938C11.6029 7.8631 11.6103 7.85682 11.6177 7.85063C11.6251 7.84452 11.6325 7.83847 11.64 7.83243C11.6474 7.82645 11.6547 7.82052 11.6622 7.81464C11.6696 7.8088 11.677 7.80305 11.6844 7.79731C11.6918 7.79163 11.6992 7.78597 11.7067 7.78038L11.7289 7.76392C11.7363 7.7585 11.7437 7.75312 11.7511 7.74779C11.7585 7.74252 11.7659 7.73731 11.7734 7.73214C11.7808 7.72698 11.7882 7.72186 11.7956 7.7168C11.803 7.71179 11.8104 7.70686 11.8178 7.70193C11.8252 7.69704 11.8326 7.69211 11.8401 7.68729C11.8474 7.68253 11.8549 7.67788 11.8623 7.67319C11.8697 7.66852 11.8771 7.6638 11.8845 7.65922C11.8919 7.6547 11.8993 7.65032 11.9068 7.64587C11.9142 7.64143 11.9215 7.63691 11.929 7.63254C11.9364 7.62825 11.9438 7.62414 11.9512 7.61992C11.9587 7.6157 11.966 7.61143 11.9735 7.60728C11.9809 7.6032 11.9883 7.59926 11.9957 7.59527C12.0031 7.59127 12.0105 7.58726 12.0179 7.58334C12.0253 7.57946 12.0327 7.57565 12.0402 7.57185L12.0624 7.56064C12.0698 7.55694 12.0772 7.55325 12.0847 7.54965C12.092 7.54607 12.0995 7.5426 12.1069 7.53909C12.1143 7.53559 12.1217 7.53201 12.1291 7.52859C12.1365 7.5252 12.1439 7.52201 12.1514 7.51871C12.1588 7.51541 12.1661 7.51206 12.1736 7.50883C12.181 7.50564 12.1884 7.50257 12.1958 7.49946L12.2181 7.49023L12.2403 7.48127L12.2625 7.47268C12.27 7.46983 12.2773 7.46689 12.2848 7.46411C12.2921 7.46138 12.2996 7.45883 12.307 7.45616C12.3144 7.4535 12.3218 7.4508 12.3292 7.44821L12.3515 7.44066L12.3737 7.43333C12.3811 7.43093 12.3885 7.42847 12.3959 7.42615C12.4033 7.42384 12.4108 7.42165 12.4182 7.41942C12.4256 7.41717 12.433 7.41488 12.4404 7.4127C12.4478 7.41055 12.4552 7.40854 12.4626 7.40646L12.4849 7.40033C12.4923 7.39834 12.4997 7.39632 12.5071 7.3944C12.5145 7.39249 12.5219 7.39075 12.5293 7.38891C12.5367 7.38707 12.5441 7.38516 12.5516 7.3834C12.559 7.38165 12.5664 7.38002 12.5738 7.37835L12.596 7.37344C12.6035 7.37183 12.6108 7.3702 12.6183 7.36868C12.6257 7.36718 12.6331 7.36579 12.6405 7.36435C12.6479 7.3629 12.6553 7.3614 12.6627 7.36004C12.6702 7.35867 12.6776 7.35743 12.685 7.35614L12.7072 7.35239C12.7146 7.35119 12.722 7.34989 12.7294 7.34875C12.7368 7.3476 12.7443 7.34665 12.7517 7.34558C12.7591 7.34453 12.7665 7.3434 12.7739 7.34241L12.7961 7.33958L12.8184 7.33701C12.8258 7.33617 12.8332 7.33519 12.8406 7.33442C12.848 7.33365 12.8554 7.33309 12.8628 7.3324L12.8851 7.33041C12.8925 7.32977 12.8999 7.32915 12.9073 7.32861C12.9147 7.32807 12.9221 7.32764 12.9296 7.32717C12.937 7.3267 12.9444 7.32616 12.9518 7.32574C12.9592 7.32533 12.9666 7.32505 12.974 7.32471L12.9963 7.32385C13.0037 7.32359 13.0111 7.32319 13.0185 7.32301C13.0259 7.32282 13.0333 7.32284 13.0407 7.32272C13.0481 7.32261 13.0555 7.32248 13.063 7.32244L13.0728 7.32231H13.0852H13.1074H13.1297H13.1519H13.1741H13.1964H13.2186H13.2408H13.2631H13.2853H13.3075H13.3298H13.352H13.3742H13.3965H13.4187H13.441H13.4632H13.4854H13.5077H13.5299H13.5521H13.5744H13.5966H13.6188H13.6411H13.6633H13.6855H13.7078H13.73H13.7522H13.7745H13.7967H13.8189H13.8412H13.8634H13.8856H13.9079H13.9301H13.9523H13.9746H13.9968H14.019H14.0413H14.0635H14.0857H14.108H14.1302H14.1524H14.1747H14.1969H14.2191H14.2414H14.2636H14.2859H14.3081H14.3303H14.3526H14.3748H14.397H14.4193H14.4415H14.4637H14.486H14.5082H14.5304H14.5527H14.5749H14.5971H14.6194H14.6416H14.6638H14.6861H14.7083H14.7305H14.7528H14.775H14.7973H14.8195H14.8417H14.864H14.8862H14.9084H14.9307H14.9529H14.9751H14.9973H15.0196H15.0418H15.064H15.0863H15.1085H15.1308H15.153H15.1752H15.1975H15.2197H15.2419H15.2642H15.2864H15.3086H15.3309H15.3531H15.3753H15.3976H15.4198H15.442H15.4643H15.4865H15.5087H15.531H15.5532H15.5754H15.5977H15.6199H15.6422H15.6644H15.6866H15.7089H15.7311H15.7533H15.7756H15.7978H15.82H15.8423H15.8645H15.8867H15.909H15.9312H15.9534H15.9757H15.9979H16.0201H16.0424H16.0646H16.0868H16.1091H16.1313H16.1535H16.1758H16.198H16.2202H16.2425H16.2647H16.2869H16.3092H16.3314H16.3536H16.3759H16.3981H16.4203H16.4426H16.4615V19.0411C16.4615 19.143 16.455 19.2435 16.4426 19.342C16.4366 19.3894 16.4291 19.4363 16.4203 19.4828C16.4137 19.5182 16.4063 19.5533 16.3981 19.5881C16.3912 19.6174 16.3838 19.6465 16.3759 19.6754C16.3689 19.7007 16.3614 19.7258 16.3536 19.7508C16.3466 19.7734 16.3391 19.7958 16.3314 19.8182C16.3243 19.8388 16.3169 19.8593 16.3092 19.8797C16.302 19.8987 16.2946 19.9176 16.2869 19.9364C16.2797 19.9541 16.2723 19.9717 16.2647 19.9892C16.2575 20.0057 16.2501 20.0222 16.2425 20.0386C16.2352 20.0542 16.2278 20.0697 16.2202 20.0851C16.213 20.1 16.2056 20.1147 16.198 20.1293C16.1907 20.1434 16.1833 20.1574 16.1758 20.1713C16.1685 20.1848 16.1611 20.1982 16.1535 20.2115C16.1463 20.2243 16.1388 20.237 16.1313 20.2497C16.124 20.262 16.1166 20.2741 16.1091 20.2862C16.1018 20.298 16.0943 20.3098 16.0868 20.3215C16.0795 20.3329 16.0721 20.3443 16.0646 20.3556C16.0573 20.3665 16.0499 20.3774 16.0424 20.3882C16.0351 20.3987 16.0276 20.4092 16.0201 20.4196C16.0128 20.4299 16.0054 20.4401 15.9979 20.4502C15.9906 20.4601 15.9832 20.4699 15.9757 20.4797C15.9683 20.4893 15.9609 20.4987 15.9534 20.5081C15.9461 20.5175 15.9387 20.5268 15.9312 20.536C15.9239 20.5449 15.9164 20.5538 15.909 20.5627C15.9016 20.5714 15.8942 20.5801 15.8867 20.5887C15.8793 20.5972 15.872 20.6058 15.8645 20.6142C15.8572 20.6224 15.8497 20.6304 15.8423 20.6386C15.8349 20.6466 15.8275 20.6547 15.82 20.6626C15.8127 20.6704 15.8052 20.678 15.7978 20.6857C15.7904 20.6933 15.783 20.7009 15.7756 20.7084C15.7682 20.7158 15.7608 20.7231 15.7533 20.7304C15.746 20.7376 15.7385 20.7447 15.7311 20.7518C15.7237 20.7588 15.7163 20.7659 15.7089 20.7728C15.7015 20.7796 15.6941 20.7863 15.6866 20.793C15.6792 20.7997 15.6719 20.8064 15.6644 20.813C15.6571 20.8195 15.6496 20.8258 15.6422 20.8321C15.6348 20.8385 15.6274 20.8449 15.6199 20.8512C15.6126 20.8573 15.6051 20.8633 15.5977 20.8694C15.5903 20.8754 15.5829 20.8815 15.5754 20.8874C15.5681 20.8933 15.5606 20.899 15.5532 20.9047C15.5458 20.9105 15.5385 20.9163 15.531 20.9219C15.5236 20.9275 15.5162 20.9329 15.5087 20.9384C15.5013 20.9438 15.494 20.9494 15.4865 20.9547C15.4792 20.96 15.4717 20.9652 15.4643 20.9704C15.4569 20.9756 15.4495 20.9809 15.442 20.986C15.4347 20.991 15.4272 20.9959 15.4198 21.0009C15.4124 21.0058 15.405 21.0108 15.3976 21.0157C15.3902 21.0205 15.3827 21.0251 15.3753 21.0298C15.3679 21.0345 15.3606 21.0393 15.3531 21.0439C15.3457 21.0485 15.3383 21.0529 15.3309 21.0573C15.3235 21.0618 15.3161 21.0663 15.3086 21.0707C15.3013 21.075 15.2938 21.0793 15.2864 21.0835C15.279 21.0878 15.2716 21.092 15.2642 21.0961C15.2568 21.1003 15.2494 21.1044 15.2419 21.1084L15.2197 21.1203C15.2123 21.1242 15.2049 21.1281 15.1975 21.132C15.1901 21.1358 15.1827 21.1395 15.1752 21.1432C15.1678 21.1469 15.1605 21.1508 15.153 21.1544C15.1456 21.158 15.1382 21.1614 15.1308 21.165C15.1233 21.1685 15.116 21.1721 15.1085 21.1755C15.1012 21.1789 15.0937 21.1822 15.0863 21.1855L15.064 21.1954L15.0418 21.205C15.0344 21.2081 15.027 21.2111 15.0196 21.2142C15.0122 21.2173 15.0048 21.2204 14.9973 21.2234C14.99 21.2263 14.9825 21.2291 14.9751 21.2319C14.9677 21.2348 14.9603 21.2377 14.9529 21.2405C14.9455 21.2433 14.9381 21.2459 14.9307 21.2486L14.9084 21.2566L14.8862 21.2643C14.8788 21.2668 14.8714 21.2692 14.864 21.2717C14.8565 21.2741 14.8492 21.2766 14.8417 21.279C14.8343 21.2813 14.8269 21.2835 14.8195 21.2858L14.7973 21.2925L14.775 21.2989C14.7676 21.301 14.7602 21.303 14.7528 21.305C14.7454 21.307 14.738 21.3092 14.7305 21.3111C14.7232 21.313 14.7157 21.3148 14.7083 21.3166C14.7009 21.3185 14.6935 21.3203 14.6861 21.3221L14.6638 21.3273L14.6416 21.3323C14.6342 21.3339 14.6268 21.3356 14.6194 21.3372C14.612 21.3387 14.6045 21.34 14.5971 21.3415C14.5897 21.343 14.5823 21.3444 14.5749 21.3458L14.5527 21.3499C14.5453 21.3512 14.5379 21.3524 14.5304 21.3536C14.523 21.3549 14.5156 21.3562 14.5082 21.3574C14.5008 21.3585 14.4934 21.3595 14.486 21.3606L14.4637 21.3638C14.4563 21.3648 14.4489 21.3658 14.4415 21.3668C14.4341 21.3677 14.4267 21.3685 14.4193 21.3693C14.4118 21.3702 14.4045 21.3711 14.397 21.3719C14.3896 21.3727 14.3822 21.3734 14.3748 21.3741L14.3526 21.3761C14.3451 21.3767 14.3378 21.3775 14.3303 21.3781C14.3229 21.3787 14.3155 21.379 14.3081 21.3795L14.2859 21.3809L14.2636 21.3821C14.2562 21.3825 14.2488 21.3827 14.2414 21.383C14.234 21.3833 14.2266 21.3836 14.2191 21.3839C14.2118 21.3841 14.2043 21.3842 14.1969 21.3843L14.1747 21.3846C14.1678 21.3846 14.161 21.3848 14.1541 21.3848H14.1524H14.1302H14.108H14.0857H14.0635H14.0413H14.019H13.9968H13.9746H13.9523H13.9301H13.9079H13.8856H13.8634H13.8412H13.8189H13.7967H13.7745H13.7522H13.73H13.7078H13.6855H13.6633H13.6411H13.6188H13.5966H13.5744H13.5521H13.5299H13.5077H13.4854H13.4632H13.441H13.4187H13.3965H13.3742H13.352H13.3298H13.3075H13.2853H13.2631H13.2408H13.2186H13.1964H13.1741H13.1519H13.1297H13.1074H13.0852H13.063H13.0407H13.0185H12.9963H12.974H12.9518H12.9296H12.9073H12.8851H12.8628H12.8406H12.8184H12.7961H12.7739H12.7517H12.7294H12.7072H12.685H12.6627H12.6405H12.6183H12.596H12.5738H12.5516H12.5293H12.5071H12.4849H12.4626H12.4404H12.4182H12.3959H12.3737H12.3515H12.3292H12.307H12.2848H12.2625H12.2403H12.2181H12.1958H12.1736H12.1514H12.1291H12.1069H12.0847H12.0624H12.0402H12.0179H11.9957H11.9735H11.9512H11.929H11.9068H11.8845H11.8623H11.8401H11.8178H11.7956H11.7734H11.7511H11.7289H11.7067H11.6844H11.6622H11.64H11.6177H11.5955H11.5733H11.551H11.5288H11.5066H11.4843H11.4621H11.4399H11.4176H11.3954H11.3732H11.3509H11.3287H11.3065H11.2842H11.262H11.2398H11.2175H11.1953H11.173H11.1508H11.1286H11.1063H11.0841H11.0619H11.0396H11.0174H10.9952H10.9729H10.9507H10.9285H10.9062H10.884H10.8618H10.8395H10.8173H10.7695V16.4455C10.7695 16.4455 10.786 16.4501 10.8173 16.4581L10.8395 16.4638L10.8618 16.4693L10.884 16.4747L10.9062 16.48L10.9285 16.4853L10.9507 16.4905L10.9729 16.4956L10.9952 16.5006L11.0174 16.5055L11.0396 16.5104L11.0619 16.5152L11.0841 16.52L11.1063 16.5247L11.1286 16.5293L11.1508 16.5339L11.173 16.5384L11.1953 16.5429L11.2175 16.5473L11.2398 16.5516L11.262 16.5559L11.2842 16.5602L11.3065 16.5643L11.3287 16.5685L11.3509 16.5725L11.3732 16.5766L11.3954 16.5805L11.4176 16.5844L11.4399 16.5883L11.4621 16.5921L11.4843 16.5958L11.5066 16.5995L11.5288 16.6032L11.551 16.6068L11.5733 16.6104L11.5955 16.6139L11.6177 16.6173L11.64 16.6207L11.6622 16.6241L11.6844 16.6274L11.7067 16.6306L11.7289 16.6339L11.7511 16.637L11.7734 16.6401L11.7956 16.6432L11.8178 16.6462L11.8401 16.6492L11.8623 16.6521L11.8845 16.6549L11.9068 16.6578L11.929 16.6605L11.9512 16.6633L11.9735 16.6659L11.9957 16.6685L12.0179 16.6711L12.0402 16.6736L12.0624 16.6761L12.0847 16.6785L12.1069 16.6809L12.1291 16.6832L12.1514 16.6855L12.1736 16.6878L12.1958 16.69L12.2181 16.6921L12.2403 16.6942L12.2625 16.6963L12.2848 16.6982L12.307 16.7002L12.3292 16.702L12.3515 16.7039L12.3737 16.7057L12.3959 16.7074L12.4182 16.7091L12.4404 16.7108L12.4626 16.7124L12.4849 16.7139L12.5071 16.7154L12.5293 16.7169L12.5516 16.7183L12.5738 16.7196L12.596 16.7209L12.6183 16.7221L12.6405 16.7233L12.6627 16.7245L12.685 16.7256L12.7072 16.7266L12.7294 16.7276L12.7517 16.7286L12.7739 16.7295L12.7961 16.7303L12.8184 16.7311L12.8406 16.7318L12.8628 16.7325L12.8851 16.7332L12.9073 16.7337L12.9296 16.7342L12.9518 16.7348L12.974 16.7351L12.9963 16.7355L13.0185 16.7359L13.0407 16.7361L13.063 16.7363L13.0852 16.7365L13.1074 16.7366L13.1297 16.7366L13.1382 16.7367L13.1519 16.7366L13.1741 16.7364L13.1964 16.7363L13.2186 16.7362L13.2408 16.736L13.2631 16.7356L13.2853 16.7352L13.3075 16.7348L13.3298 16.7344L13.352 16.7338L13.3742 16.7331L13.3965 16.7324L13.4187 16.7317L13.441 16.731L13.4632 16.73L13.4854 16.729L13.5077 16.728L13.5299 16.727L13.5521 16.7257L13.5744 16.7244L13.5966 16.7231L13.6188 16.7218L13.6411 16.7203L13.6633 16.7187L13.6855 16.7171L13.7078 16.7154L13.73 16.7136L13.7522 16.7117L13.7745 16.7097L13.7967 16.7078L13.8189 16.7056L13.8412 16.7033L13.8634 16.7011L13.8856 16.6987L13.9079 16.6962L13.9301 16.6936L13.9523 16.6909L13.9746 16.6883L13.9968 16.6853L14.019 16.6823L14.0413 16.6793L14.0635 16.6762C14.071 16.6751 14.0783 16.6739 14.0857 16.6728L14.108 16.6694L14.1302 16.666L14.1524 16.6624C14.1599 16.6612 14.1672 16.6599 14.1747 16.6586L14.1969 16.6549C14.2043 16.6536 14.2118 16.6524 14.2191 16.651C14.2266 16.6497 14.2339 16.6483 14.2414 16.6469L14.2636 16.6426L14.2859 16.6384L14.3081 16.634C14.3156 16.6325 14.3229 16.6309 14.3303 16.6294L14.3526 16.6247L14.3748 16.62C14.3823 16.6183 14.3896 16.6166 14.397 16.6149L14.4193 16.6098C14.4266 16.6081 14.4342 16.6065 14.4415 16.6047C14.449 16.6029 14.4563 16.601 14.4637 16.5992L14.486 16.5936C14.4933 16.5918 14.5009 16.59 14.5082 16.5881C14.5157 16.5862 14.523 16.5841 14.5304 16.5822L14.5527 16.5761C14.5601 16.5741 14.5676 16.5721 14.5749 16.5701C14.5824 16.568 14.5897 16.5658 14.5971 16.5637L14.6194 16.5571C14.6268 16.5549 14.6343 16.5528 14.6416 16.5506L14.6638 16.5437L14.6861 16.5366C14.6935 16.5342 14.701 16.5319 14.7083 16.5295L14.7305 16.522L14.7528 16.5143C14.7602 16.5117 14.7677 16.5093 14.775 16.5067C14.7825 16.504 14.7898 16.5012 14.7973 16.4985L14.8195 16.4902C14.8269 16.4874 14.8344 16.4847 14.8417 16.4819C14.8492 16.479 14.8565 16.476 14.864 16.473C14.8714 16.4701 14.8788 16.4672 14.8862 16.4642L14.9084 16.455L14.9307 16.4455C14.938 16.4423 14.9456 16.4393 14.9529 16.436C14.9604 16.4327 14.9677 16.4293 14.9751 16.4259L14.9973 16.4157L15.0196 16.4052C15.0271 16.4017 15.0344 16.398 15.0418 16.3944C15.0492 16.3907 15.0568 16.3871 15.064 16.3834C15.0716 16.3796 15.0789 16.3757 15.0863 16.3718C15.0937 16.3679 15.1012 16.3641 15.1085 16.3602C15.116 16.3562 15.1234 16.3521 15.1308 16.348C15.1382 16.3439 15.1456 16.3398 15.153 16.3356C15.1605 16.3314 15.1679 16.3271 15.1752 16.3228C15.1827 16.3184 15.1901 16.314 15.1975 16.3095C15.2049 16.3051 15.2124 16.3006 15.2197 16.296C15.2272 16.2914 15.2346 16.2867 15.2419 16.2819C15.2494 16.2772 15.2569 16.2724 15.2642 16.2676C15.2717 16.2627 15.279 16.2576 15.2864 16.2526C15.2938 16.2475 15.3013 16.2425 15.3086 16.2373C15.3162 16.232 15.3235 16.2267 15.3309 16.2213C15.3383 16.2159 15.3458 16.2105 15.3531 16.205C15.3606 16.1994 15.368 16.1936 15.3753 16.1879C15.3828 16.1821 15.3903 16.1763 15.3976 16.1704C15.4051 16.1644 15.4125 16.1583 15.4198 16.1522C15.4273 16.146 15.4347 16.1396 15.442 16.1333C15.4495 16.1269 15.457 16.1204 15.4643 16.1139C15.4718 16.1072 15.4791 16.1003 15.4865 16.0934C15.494 16.0865 15.5015 16.0796 15.5087 16.0726C15.5163 16.0653 15.5237 16.0579 15.531 16.0505C15.5385 16.0429 15.5459 16.0353 15.5532 16.0276C15.5607 16.0198 15.5682 16.012 15.5754 16.004C15.583 15.9957 15.5903 15.9873 15.5977 15.9789C15.6052 15.9703 15.6126 15.9615 15.6199 15.9528C15.6274 15.9438 15.6349 15.9347 15.6422 15.9256C15.6497 15.9161 15.6571 15.9066 15.6644 15.8969C15.672 15.8869 15.6793 15.8767 15.6866 15.8665C15.6942 15.8559 15.7016 15.8452 15.7089 15.8345C15.7164 15.8232 15.7238 15.8119 15.7311 15.8006C15.7387 15.7886 15.7461 15.7766 15.7533 15.7645C15.7609 15.7517 15.7684 15.7389 15.7756 15.7259C15.7832 15.7121 15.7906 15.6983 15.7978 15.6844C15.8055 15.6694 15.8129 15.6544 15.82 15.6393C15.8277 15.623 15.8351 15.6066 15.8423 15.5901C15.85 15.5721 15.8574 15.554 15.8645 15.5358C15.8723 15.5157 15.8797 15.4954 15.8867 15.4749C15.8947 15.4517 15.902 15.4283 15.909 15.4046C15.917 15.377 15.9244 15.3491 15.9312 15.3209C15.9396 15.2859 15.947 15.2506 15.9534 15.2148C15.963 15.1616 15.9703 15.1075 15.9757 15.0527C15.9831 14.9763 15.9868 14.8985 15.9868 14.8195V12.1002H15.9757H15.9534H15.9312H15.909H15.8867H15.8645H15.8423H15.82H15.7978H15.7756H15.7533H15.7311H15.7089H15.6866H15.6644H15.6422H15.6199H15.5977H15.5754H15.5532H15.531H15.5087H15.4865H15.4643H15.442H15.4198H15.3976H15.3753H15.3531H15.3309H15.3086H15.2864H15.2642H15.2419H15.2197H15.1975H15.1752H15.153H15.1308H15.1085H15.0863H15.064H15.0418H15.0196H14.9973H14.9751H14.9529H14.9307H14.9084H14.8862H14.864H14.8417H14.8195H14.7973H14.775H14.7528H14.7305H14.7083H14.6861H14.6638H14.6416H14.6194H14.5971H14.5749H14.5527H14.5304H14.5082H14.486H14.4637H14.4415H14.4193H14.397H14.3748H14.3526H14.3303H14.3081H14.2859H14.2636H14.2414H14.2191H14.1969H14.1747H14.1524H14.1302H14.108H14.0857H14.0635H14.0413H14.019H14.0022V14.8195C14.0022 14.8621 14.0004 14.904 13.9968 14.9451C13.9923 14.9974 13.9848 15.0484 13.9746 15.098C13.9682 15.1287 13.9608 15.1587 13.9523 15.1882C13.9456 15.2118 13.9382 15.2349 13.9301 15.2576C13.9232 15.277 13.9158 15.2961 13.9079 15.3148C13.9008 15.3316 13.8934 15.3481 13.8856 15.3644C13.8785 15.3792 13.8712 15.3938 13.8634 15.4082C13.8563 15.4215 13.8488 15.4344 13.8412 15.4473C13.834 15.4594 13.8266 15.4713 13.8189 15.4831C13.8117 15.4941 13.8043 15.505 13.7967 15.5157C13.7895 15.5259 13.7821 15.5361 13.7745 15.546C13.7672 15.5555 13.7598 15.5647 13.7522 15.5739C13.745 15.5827 13.7376 15.5914 13.73 15.6C13.7227 15.6082 13.7153 15.6164 13.7078 15.6244C13.7005 15.6321 13.6931 15.6397 13.6855 15.6473C13.6782 15.6545 13.6708 15.6617 13.6633 15.6688C13.656 15.6756 13.6486 15.6823 13.6411 15.6889C13.6338 15.6953 13.6263 15.7017 13.6188 15.7079C13.6115 15.714 13.6041 15.72 13.5966 15.7259C13.5893 15.7316 13.5818 15.7373 13.5744 15.7429C13.567 15.7483 13.5596 15.7537 13.5521 15.759C13.5448 15.7641 13.5374 15.7692 13.5299 15.7742C13.5226 15.7791 13.5151 15.7839 13.5077 15.7886C13.5003 15.7932 13.4929 15.7977 13.4854 15.8022C13.4781 15.8066 13.4707 15.8108 13.4632 15.8151C13.4559 15.8192 13.4484 15.8233 13.441 15.8273C13.4336 15.8312 13.4262 15.8351 13.4187 15.8388C13.4114 15.8426 13.404 15.8462 13.3965 15.8498C13.3891 15.8533 13.3817 15.8568 13.3742 15.8602C13.3669 15.8636 13.3595 15.8669 13.352 15.8701C13.3447 15.8732 13.3372 15.8763 13.3298 15.8793C13.3224 15.8823 13.315 15.8852 13.3075 15.888C13.3002 15.8908 13.2928 15.8936 13.2853 15.8963C13.2779 15.8989 13.2705 15.9016 13.2631 15.9041C13.2557 15.9066 13.2483 15.9091 13.2408 15.9114C13.2335 15.9138 13.226 15.916 13.2186 15.9183C13.2112 15.9205 13.2038 15.9226 13.1964 15.9247C13.189 15.9268 13.1816 15.9289 13.1741 15.9308C13.1668 15.9328 13.1594 15.9346 13.1519 15.9364C13.1445 15.9382 13.1371 15.94 13.1297 15.9416C13.1223 15.9433 13.1149 15.945 13.1074 15.9465C13.1001 15.9481 13.0927 15.9496 13.0852 15.9511C13.0778 15.9525 13.0704 15.9538 13.063 15.9551C13.0556 15.9565 13.0482 15.9578 13.0407 15.959L13.0185 15.9624C13.0111 15.9635 13.0037 15.9645 12.9963 15.9655C12.9889 15.9665 12.9815 15.9675 12.974 15.9684L12.9518 15.9709C12.9444 15.9716 12.937 15.9723 12.9296 15.973C12.9222 15.9737 12.9148 15.9744 12.9073 15.975C12.9 15.9755 12.8925 15.976 12.8851 15.9765C12.8777 15.977 12.8703 15.9774 12.8628 15.9778C12.8554 15.9782 12.8481 15.9786 12.8406 15.9789C12.8333 15.9792 12.8258 15.9794 12.8184 15.9796L12.7961 15.9801C12.7888 15.9803 12.7814 15.9803 12.7739 15.9804L12.7656 15.9804L12.7517 15.9804L12.7294 15.9802L12.7072 15.9799L12.685 15.9794L12.6627 15.9788L12.6405 15.9781L12.6183 15.9772L12.596 15.9761L12.5738 15.975L12.5516 15.9736L12.5293 15.9722L12.5071 15.9706L12.4849 15.9688L12.4626 15.9669L12.4404 15.9649L12.4182 15.9628L12.3959 15.9604L12.3737 15.958L12.3515 15.9554L12.3292 15.9527L12.307 15.9498L12.2848 15.9469L12.2625 15.9437L12.2403 15.9404L12.2181 15.937L12.1958 15.9335L12.1736 15.9298L12.1514 15.9261L12.1291 15.9221L12.1069 15.9181L12.0847 15.9139L12.0624 15.9096L12.0402 15.9051L12.0179 15.9005L11.9957 15.8958L11.9735 15.891L11.9512 15.886L11.929 15.8809L11.9068 15.8757L11.8845 15.8704L11.8623 15.8649L11.8401 15.8593L11.8178 15.8537L11.7956 15.8478L11.7734 15.8418L11.7511 15.8357L11.7289 15.8295L11.7067 15.8232L11.6844 15.8168L11.6622 15.8102L11.64 15.8035L11.6177 15.7967L11.5955 15.7898L11.5733 15.7828L11.551 15.7756L11.5288 15.7683L11.5066 15.761L11.4843 15.7535L11.4621 15.7458L11.4399 15.7381L11.4176 15.7303L11.3954 15.7223L11.3732 15.7142L11.3509 15.7061L11.3287 15.6978L11.3065 15.6894L11.2842 15.6809L11.262 15.6722L11.2398 15.6635L11.2175 15.6547L11.1953 15.6457L11.173 15.6367L11.1508 15.6275L11.1286 15.6183L11.1063 15.6089L11.0841 15.5994L11.0619 15.5898L11.0396 15.5802L11.0174 15.5704L10.9952 15.5605L10.9729 15.5505L10.9507 15.5404L10.9285 15.5303L10.9062 15.52L10.884 15.5096L10.8618 15.4991L10.8395 15.4885L10.8173 15.4778V15.4778Z" fill="url(#paint1_linear_75_1003)"/>
<path id="Vector_4" fill-rule="evenodd" clip-rule="evenodd" d="M17.202 12.6944C17.1858 12.7077 17.1699 12.7211 17.1543 12.7347V9.66624C17.1543 9.50306 17.1708 9.34379 17.202 9.18999C17.2088 9.15697 17.2162 9.12425 17.2243 9.09176C17.2312 9.06388 17.2386 9.03622 17.2465 9.00875C17.2535 8.98429 17.261 8.95999 17.2688 8.93586C17.2759 8.91381 17.2832 8.89187 17.291 8.87012C17.2981 8.84996 17.3055 8.8299 17.3132 8.81001C17.3204 8.79141 17.3278 8.7729 17.3355 8.75453C17.3427 8.7372 17.3501 8.71999 17.3577 8.70287C17.3649 8.68662 17.3724 8.67048 17.3799 8.65443C17.3872 8.63909 17.3946 8.6239 17.4022 8.60875C17.4094 8.5942 17.4168 8.57976 17.4244 8.56538C17.4317 8.55153 17.4391 8.53777 17.4466 8.52408C17.4539 8.51082 17.4613 8.49762 17.4689 8.48454C17.4762 8.47182 17.4835 8.45917 17.4911 8.44661C17.4984 8.43448 17.5058 8.42242 17.5133 8.41044C17.5206 8.39878 17.5281 8.38725 17.5356 8.37573C17.5429 8.36446 17.5503 8.35327 17.5578 8.34215C17.5652 8.33124 17.5725 8.32033 17.58 8.30957C17.5873 8.29914 17.5948 8.28889 17.6023 8.27861C17.6096 8.26849 17.617 8.25842 17.6245 8.24842C17.6319 8.23858 17.6392 8.22872 17.6467 8.21901C17.654 8.20958 17.6616 8.20028 17.669 8.19096C17.6763 8.18175 17.6837 8.17258 17.6912 8.16351C17.6986 8.15455 17.706 8.14562 17.7135 8.13679C17.7208 8.12816 17.7283 8.11965 17.7357 8.11114C17.7431 8.1027 17.7504 8.09423 17.7579 8.08588C17.7653 8.07773 17.7727 8.06967 17.7801 8.06162C17.7875 8.05367 17.7949 8.04578 17.8024 8.03792C17.8098 8.03018 17.8171 8.02244 17.8246 8.01479C17.832 8.00729 17.8394 7.99988 17.8468 7.99247C17.8542 7.98511 17.8616 7.97768 17.8691 7.97041C17.8764 7.9633 17.8839 7.95636 17.8913 7.94935C17.8987 7.94236 17.9061 7.93534 17.9136 7.92846C17.9209 7.92171 17.9284 7.91508 17.9358 7.90842C17.9432 7.90178 17.9506 7.89516 17.958 7.88864C17.9654 7.88221 17.9728 7.87589 17.9803 7.86955C17.9876 7.86327 17.995 7.85699 18.0025 7.85078C18.0099 7.84467 18.0173 7.83862 18.0247 7.8326C18.0321 7.82662 18.0395 7.82067 18.047 7.81479C18.0543 7.80897 18.0618 7.80322 18.0692 7.79748C18.0766 7.7918 18.084 7.78614 18.0914 7.78055C18.0988 7.775 18.1062 7.76952 18.1137 7.76407C18.1211 7.75867 18.1285 7.75327 18.1359 7.74794C18.1433 7.74268 18.1507 7.73748 18.1582 7.73229C18.1655 7.72713 18.1729 7.72199 18.1804 7.71693C18.1877 7.71193 18.1952 7.70699 18.2026 7.70206C18.21 7.69715 18.2174 7.69224 18.2249 7.68742C18.2322 7.68266 18.2397 7.67801 18.2471 7.67332C18.2545 7.66865 18.2619 7.66393 18.2693 7.65935C18.2767 7.65481 18.2841 7.65043 18.2916 7.64598C18.299 7.64154 18.3063 7.637 18.3138 7.63265C18.3211 7.62836 18.3286 7.62423 18.336 7.62002C18.3435 7.6158 18.3508 7.61154 18.3583 7.60742C18.3656 7.60333 18.3731 7.59939 18.3805 7.59538C18.3879 7.59139 18.3953 7.58737 18.4027 7.58345L18.425 7.57196L18.4472 7.56073C18.4546 7.55706 18.462 7.55334 18.4694 7.54974C18.4768 7.54616 18.4843 7.54269 18.4917 7.53919C18.4991 7.5357 18.5065 7.5321 18.5139 7.52869C18.5213 7.52529 18.5287 7.52211 18.5362 7.51881C18.5436 7.51551 18.5509 7.51215 18.5584 7.50893C18.5658 7.50574 18.5732 7.50264 18.5806 7.49953L18.6029 7.49031C18.6103 7.48729 18.6176 7.48427 18.6251 7.48133C18.6325 7.4784 18.6399 7.47559 18.6473 7.47274C18.6548 7.46989 18.6621 7.46694 18.6696 7.46417C18.6769 7.46143 18.6844 7.45888 18.6918 7.45622C18.6992 7.45356 18.7066 7.45086 18.714 7.44827C18.7214 7.44568 18.7289 7.44321 18.7363 7.44071L18.7585 7.43338C18.7659 7.43098 18.7733 7.42853 18.7808 7.42618C18.7881 7.42388 18.7956 7.4217 18.803 7.41947C18.8104 7.41722 18.8178 7.41492 18.8252 7.41274C18.8326 7.41058 18.84 7.40858 18.8475 7.4065L18.8697 7.40037C18.8771 7.39838 18.8845 7.39635 18.8919 7.39444C18.8993 7.39255 18.9067 7.39077 18.9142 7.38893C18.9216 7.38709 18.929 7.38518 18.9364 7.38342C18.9438 7.38167 18.9512 7.38004 18.9586 7.37837L18.9809 7.37346C18.9883 7.37187 18.9957 7.37022 19.0031 7.3687C19.0105 7.36718 19.0179 7.36581 19.0253 7.36437C19.0327 7.36292 19.0401 7.3614 19.0476 7.36004L19.0698 7.35614L19.092 7.3524C19.0995 7.35119 19.1068 7.34989 19.1143 7.34875C19.1217 7.3476 19.1291 7.34665 19.1365 7.34558C19.1439 7.34453 19.1513 7.34342 19.1587 7.34243L19.181 7.3396L19.2032 7.33701C19.2106 7.33617 19.218 7.33519 19.2255 7.33442C19.2328 7.33365 19.2403 7.33309 19.2477 7.3324L19.2699 7.33041C19.2773 7.32977 19.2847 7.32915 19.2922 7.32861C19.2996 7.32807 19.307 7.32764 19.3144 7.32717C19.3218 7.3267 19.3292 7.32616 19.3366 7.32574C19.344 7.32533 19.3515 7.32505 19.3589 7.32471L19.3811 7.32385C19.3885 7.32359 19.3959 7.32319 19.4034 7.32301C19.4107 7.32282 19.4182 7.32284 19.4256 7.32272C19.433 7.32261 19.4404 7.32248 19.4478 7.32244L19.4576 7.32231H19.47H19.4923H19.5145H19.5367H19.559H19.5812H19.6035H19.6257H19.6479H19.6702H19.6924H19.7146H19.7369H19.7591H19.7813H19.8036H19.8258H19.8481H19.8703H19.8925H19.9148H19.937H19.9592H19.9815H20.0037H20.0259H20.0482H20.0704H20.0926H20.1149H20.1371H20.1593H20.1816H20.2038H20.2261H20.2483H20.2705H20.2928H20.315H20.3372H20.3595H20.3817H20.4039H20.4262H20.4484H20.4706H20.4929H20.5151H20.5374H20.5596H20.5818H20.6041H20.6263H20.6485H20.6708H20.693H20.7152H20.7375H20.7597H20.7819H20.8042H20.8264H20.8486H20.8709H20.8931H20.9154H20.9376H20.9598H20.9821H21.0043H21.0265H21.0488H21.071H21.0932H21.1155H21.1377H21.16H21.1822H21.2044H21.2267H21.2489H21.2711H21.2934H21.3156H21.3378H21.3601H21.3823H21.4045H21.4268H21.449H21.4712H21.4935H21.5157H21.538H21.5602H21.5824H21.6047H21.6269H21.6491H21.6714H21.6936H21.7158H21.7381H21.7603H21.7826H21.8048H21.827H21.8493H21.8715H21.8937H21.916H21.9382H21.9604H21.9827H22.0049H22.0271H22.0494H22.0716H22.0938H22.1161H22.1383H22.1606H22.1828H22.205H22.2273H22.2495H22.2717H22.294H22.3162H22.3384H22.3607H22.3829H22.4051H22.4274H22.4496H22.4719H22.4941H22.5163H22.5386H22.5608H22.583H22.6053H22.6275H22.6497H22.672H22.6942H22.7164H22.7387H22.7609H22.7831H22.8054H22.8276H22.8465V19.0411C22.8465 19.143 22.84 19.2434 22.8276 19.3418C22.8216 19.3892 22.8141 19.4362 22.8054 19.4826C22.7987 19.518 22.7913 19.5531 22.7831 19.5879C22.7762 19.6172 22.7689 19.6464 22.7609 19.6752C22.7539 19.7006 22.7465 19.7257 22.7387 19.7507C22.7316 19.7733 22.7242 19.7957 22.7164 19.818C22.7093 19.8387 22.7019 19.8592 22.6942 19.8796C22.687 19.8986 22.6796 19.9175 22.672 19.9363C22.6648 19.954 22.6573 19.9716 22.6497 19.989C22.6425 20.0056 22.6351 20.0221 22.6275 20.0384C22.6202 20.0541 22.6128 20.0696 22.6053 20.085C22.598 20.0998 22.5906 20.1145 22.583 20.1292C22.5757 20.1433 22.5683 20.1573 22.5608 20.1712C22.5535 20.1847 22.5461 20.1981 22.5386 20.2114C22.5313 20.2242 22.5238 20.2369 22.5163 20.2496C22.509 20.2618 22.5016 20.274 22.4941 20.2861C22.4868 20.2979 22.4794 20.3097 22.4719 20.3213C22.4645 20.3328 22.4572 20.3442 22.4496 20.3555C22.4423 20.3664 22.4349 20.3772 22.4274 20.388C22.4201 20.3986 22.4126 20.409 22.4051 20.4195C22.3978 20.4297 22.3904 20.44 22.3829 20.4501C22.3756 20.46 22.3682 20.4698 22.3607 20.4795C22.3534 20.4891 22.3459 20.4986 22.3384 20.508C22.3311 20.5173 22.3237 20.5266 22.3162 20.5358C22.3089 20.5448 22.3014 20.5537 22.294 20.5626C22.2866 20.5713 22.2792 20.5799 22.2717 20.5886C22.2644 20.5971 22.257 20.6056 22.2495 20.614C22.2422 20.6222 22.2347 20.6303 22.2273 20.6384C22.2199 20.6465 22.2125 20.6546 22.205 20.6625C22.1977 20.6703 22.1902 20.6779 22.1828 20.6856C22.1754 20.6932 22.168 20.7007 22.1606 20.7082C22.1532 20.7156 22.1458 20.723 22.1383 20.7303C22.131 20.7375 22.1235 20.7446 22.1161 20.7517C22.1087 20.7587 22.1013 20.7658 22.0938 20.7727C22.0865 20.7795 22.079 20.7862 22.0716 20.7929C22.0642 20.7996 22.0569 20.8063 22.0494 20.8129C22.042 20.8194 22.0345 20.8257 22.0271 20.8321C22.0197 20.8384 22.0124 20.8448 22.0049 20.8511C21.9976 20.8572 21.9901 20.8632 21.9827 20.8693C21.9753 20.8753 21.9679 20.8814 21.9604 20.8873C21.9531 20.8932 21.9456 20.8989 21.9382 20.9046C21.9308 20.9104 21.9234 20.9161 21.916 20.9218C21.9086 20.9274 21.9011 20.9328 21.8937 20.9383C21.8863 20.9437 21.879 20.9493 21.8715 20.9546C21.8641 20.9599 21.8567 20.9651 21.8493 20.9703C21.8419 20.9755 21.8345 20.9808 21.827 20.9859C21.8197 20.9909 21.8122 20.9958 21.8048 21.0008C21.7974 21.0057 21.79 21.0108 21.7826 21.0156C21.7752 21.0204 21.7677 21.025 21.7603 21.0297C21.7529 21.0344 21.7455 21.0392 21.7381 21.0438C21.7307 21.0484 21.7233 21.0528 21.7158 21.0573C21.7084 21.0617 21.701 21.0662 21.6936 21.0706C21.6862 21.0749 21.6788 21.0792 21.6714 21.0834L21.6491 21.0961L21.6269 21.1083L21.6047 21.1202C21.5973 21.1241 21.5899 21.1281 21.5824 21.1319C21.5751 21.1357 21.5676 21.1394 21.5602 21.1431C21.5528 21.1469 21.5454 21.1507 21.538 21.1543C21.5306 21.1579 21.5231 21.1614 21.5157 21.1649C21.5083 21.1684 21.5009 21.172 21.4935 21.1754C21.4861 21.1788 21.4786 21.1821 21.4712 21.1855L21.449 21.1953L21.4268 21.2049L21.4045 21.2141C21.3971 21.2172 21.3897 21.2203 21.3823 21.2233C21.3749 21.2262 21.3675 21.229 21.3601 21.2319C21.3527 21.2347 21.3453 21.2377 21.3378 21.2405C21.3304 21.2432 21.323 21.2459 21.3156 21.2486L21.2934 21.2565L21.2711 21.2643C21.2637 21.2668 21.2563 21.2692 21.2489 21.2716C21.2415 21.274 21.2341 21.2766 21.2267 21.2789C21.2193 21.2813 21.2118 21.2834 21.2044 21.2857L21.1822 21.2924L21.16 21.2988C21.1526 21.3009 21.1451 21.3029 21.1377 21.305C21.1303 21.307 21.1229 21.3091 21.1155 21.3111C21.1081 21.313 21.1007 21.3147 21.0932 21.3166C21.0858 21.3184 21.0784 21.3203 21.071 21.3221L21.0488 21.3273L21.0265 21.3322C21.0191 21.3338 21.0118 21.3356 21.0043 21.3371C20.9969 21.3387 20.9895 21.34 20.9821 21.3415L20.9598 21.3458L20.9376 21.3499C20.9302 21.3512 20.9228 21.3524 20.9154 21.3536C20.9079 21.3548 20.9006 21.3562 20.8931 21.3573C20.8857 21.3585 20.8783 21.3595 20.8709 21.3606L20.8486 21.3638C20.8412 21.3648 20.8338 21.3658 20.8264 21.3667C20.819 21.3677 20.8116 21.3685 20.8042 21.3693C20.7968 21.3702 20.7894 21.3711 20.7819 21.3719C20.7746 21.3727 20.7671 21.3734 20.7597 21.3741L20.7375 21.3761C20.7301 21.3767 20.7227 21.3775 20.7152 21.3781C20.7079 21.3786 20.7004 21.379 20.693 21.3795L20.6708 21.3809L20.6485 21.3821C20.6411 21.3825 20.6337 21.3827 20.6263 21.383C20.6189 21.3833 20.6115 21.3836 20.6041 21.3839C20.5967 21.3841 20.5893 21.3841 20.5818 21.3843L20.5596 21.3846C20.5527 21.3846 20.5458 21.3848 20.5388 21.3848H20.5374H20.5151H20.4929H20.4706H20.4484H20.4262H20.4039H20.3817H20.3595H20.3372H20.315H20.2928H20.2705H20.2483H20.2261H20.2038H20.1816H20.1593H20.1371H20.1149H20.0926H20.0704H20.0482H20.0259H20.0037H19.9815H19.9592H19.937H19.9148H19.8925H19.8703H19.8481H19.8258H19.8036H19.7813H19.7591H19.7369H19.7146H19.6924H19.6702H19.6479H19.6257H19.6035H19.5812H19.559H19.5367H19.5145H19.4923H19.47H19.4478H19.4256H19.4034H19.3811H19.3589H19.3366H19.3144H19.2922H19.2699H19.2477H19.2255H19.2032H19.181H19.1587H19.1365H19.1143H19.092H19.0698H19.0476H19.0253H19.0031H18.9809H18.9586H18.9364H18.9142H18.8919H18.8697H18.8475H18.8252H18.803H18.7808H18.7585H18.7363H18.714H18.6918H18.6696H18.6473H18.6251H18.6029H18.5806H18.5584H18.5362H18.5139H18.4917H18.4694H18.4472H18.425H18.4027H18.3805H18.3583H18.336H18.3138H18.2916H18.2693H18.2471H18.2249H18.2026H18.1804H18.1582H18.1359H18.1137H18.0914H18.0692H18.047H18.0247H18.0025H17.9803H17.958H17.9358H17.9136H17.8913H17.8691H17.8468H17.8246H17.8024H17.7801H17.7579H17.7357H17.7135H17.6912H17.669H17.6467H17.6245H17.6023H17.58H17.5578H17.5356H17.5133H17.4911H17.4689H17.4466H17.4244H17.4022H17.3799H17.3577H17.3355H17.3132H17.291H17.2688H17.2465H17.2243H17.202H17.1543V15.9734C17.1699 15.987 17.1858 16.0004 17.202 16.0137C17.2094 16.0197 17.2168 16.0257 17.2243 16.0317C17.2316 16.0376 17.239 16.0435 17.2465 16.0493C17.2539 16.055 17.2613 16.0608 17.2688 16.0665C17.2761 16.072 17.2835 16.0775 17.291 16.083C17.2983 16.0885 17.3058 16.0939 17.3132 16.0993C17.3206 16.1046 17.328 16.1099 17.3355 16.1151L17.3577 16.1306C17.365 16.1357 17.3725 16.1407 17.3799 16.1457L17.4022 16.1604C17.4095 16.1652 17.4169 16.17 17.4244 16.1748C17.4317 16.1795 17.4392 16.1842 17.4466 16.1888L17.4689 16.2026C17.4763 16.2071 17.4836 16.2116 17.4911 16.216C17.4984 16.2204 17.5059 16.2247 17.5133 16.229L17.5356 16.2419L17.5578 16.2544L17.58 16.2666C17.5874 16.2706 17.5948 16.2747 17.6023 16.2786C17.6096 16.2826 17.6171 16.2864 17.6245 16.2903L17.6467 16.3017L17.669 16.313L17.6912 16.3239C17.6986 16.3275 17.706 16.3311 17.7135 16.3347L17.7357 16.3451L17.7579 16.3554L17.7801 16.3654L17.8024 16.3753L17.8246 16.3849L17.8468 16.3943L17.8691 16.4036L17.8913 16.4126L17.9136 16.4215L17.9358 16.4301C17.9432 16.433 17.9506 16.4359 17.958 16.4387L17.9803 16.4469C17.9877 16.4496 17.995 16.4524 18.0025 16.4551C18.0099 16.4578 18.0173 16.4604 18.0247 16.463L18.047 16.4709L18.0692 16.4784C18.0766 16.4809 18.084 16.4835 18.0914 16.486C18.0988 16.4884 18.1063 16.4908 18.1137 16.4932L18.1359 16.5005L18.1582 16.5074L18.1804 16.5143L18.2026 16.521L18.2249 16.5276L18.2471 16.534L18.2693 16.5403L18.2916 16.5464L18.3138 16.5525L18.336 16.5584L18.3583 16.5641L18.3805 16.5698L18.4027 16.5753L18.425 16.5808L18.4472 16.586L18.4694 16.5911L18.4917 16.5962L18.5139 16.6011L18.5362 16.606L18.5584 16.6106L18.5806 16.6153L18.6029 16.6197L18.6251 16.6241L18.6473 16.6284L18.6696 16.6325L18.6918 16.6367L18.714 16.6406L18.7363 16.6445L18.7585 16.6483L18.7808 16.6519L18.803 16.6556L18.8252 16.659L18.8475 16.6624L18.8697 16.6657L18.8919 16.669L18.9142 16.6721L18.9364 16.6751L18.9586 16.6781L18.9809 16.681L19.0031 16.6837L19.0253 16.6865L19.0476 16.6891L19.0698 16.6916L19.092 16.6942L19.1143 16.6965L19.1365 16.6988L19.1587 16.7011L19.181 16.7032L19.2032 16.7053L19.2255 16.7073L19.2477 16.7092L19.2699 16.7111L19.2922 16.7129L19.3144 16.7146L19.3366 16.7163L19.3589 16.7178L19.3811 16.7193L19.4034 16.7208L19.4256 16.7221L19.4478 16.7235L19.47 16.7248L19.4923 16.7259L19.5145 16.727L19.5367 16.7281L19.559 16.729L19.5812 16.7299L19.6035 16.7308L19.6257 16.7316L19.6479 16.7323L19.6702 16.7331L19.6924 16.7336L19.7146 16.7342L19.7369 16.7348L19.7591 16.7352L19.7813 16.7355L19.8036 16.7359L19.8258 16.7362L19.8481 16.7364L19.8703 16.7366L19.8925 16.7367L19.9148 16.7367L19.937 16.7367L19.9592 16.7367L19.9815 16.7365L20.0037 16.7364L20.0259 16.7362L20.0482 16.7359L20.0704 16.7356L20.0926 16.7353L20.1149 16.7349L20.1371 16.7344L20.1593 16.7339L20.1816 16.7334L20.2038 16.7327L20.2261 16.7321L20.2483 16.7314L20.2705 16.7306L20.2928 16.7299L20.315 16.7291L20.3372 16.7281L20.3595 16.7272L20.3817 16.7263L20.3926 16.7258L20.4039 16.7252L20.4262 16.7242L20.4484 16.723L20.4706 16.7217L20.4929 16.7203L20.5151 16.719L20.5374 16.7174L20.5596 16.7159L20.5818 16.7142L20.6041 16.7125L20.6263 16.7107L20.6485 16.7089L20.6708 16.707L20.693 16.705L20.7152 16.7029L20.7375 16.7008L20.7597 16.6987L20.7819 16.6964L20.8042 16.6941L20.8264 16.6917L20.8486 16.6893L20.8709 16.6868L20.8931 16.6843L20.9154 16.6816L20.9376 16.679L20.9598 16.6763L20.9821 16.6735L21.0043 16.6707L21.0265 16.6678L21.0488 16.6649L21.071 16.6618L21.0932 16.6588L21.1155 16.6557L21.1377 16.6526L21.16 16.6494L21.1822 16.6461L21.2044 16.6428L21.2267 16.6395L21.2489 16.6361L21.2711 16.6326L21.2934 16.6291L21.3156 16.6256L21.3378 16.622L21.3601 16.6184L21.3823 16.6147L21.4045 16.6109L21.4268 16.6072L21.449 16.6033L21.4712 16.5995L21.4935 16.5956L21.5157 16.5916L21.538 16.5876L21.5602 16.5835L21.5824 16.5795L21.6047 16.5753L21.6269 16.5712L21.6491 16.5669L21.6714 16.5626L21.6936 16.5583L21.7158 16.554L21.7381 16.5496L21.7603 16.5451L21.7826 16.5407L21.8048 16.5361L21.827 16.5315L21.8493 16.5269L21.8715 16.5222L21.8937 16.5175L21.916 16.5128L21.9382 16.5079L21.9604 16.5031L21.9827 16.4982L22.0049 16.4932L22.0271 16.4882L22.0494 16.4832L22.0716 16.4781L22.0938 16.4729L22.1161 16.4677L22.1383 16.4624L22.1606 16.457L22.1828 16.4516L22.2049 16.446V15.4546L22.1828 15.4657L22.1606 15.4769L22.1383 15.4879L22.1161 15.4989L22.0938 15.5098L22.0716 15.5205L22.0494 15.5311L22.0271 15.5417L22.0049 15.5521L21.9827 15.5624L21.9604 15.5726L21.9382 15.5826L21.916 15.5926L21.8937 15.6024L21.8715 15.6121L21.8493 15.6217L21.827 15.6312L21.8048 15.6406L21.7826 15.6498L21.7603 15.6589L21.7381 15.6679L21.7158 15.6768L21.6936 15.6855L21.6714 15.6942L21.6491 15.7026L21.6269 15.711L21.6047 15.7192L21.5824 15.7274L21.5602 15.7353L21.538 15.7432L21.5157 15.7509L21.4935 15.7585L21.4712 15.766L21.449 15.7733L21.4268 15.7805L21.4045 15.7876L21.3823 15.7946L21.3601 15.8014L21.3378 15.8081L21.3156 15.8147L21.2934 15.8211L21.2711 15.8274L21.2489 15.8336L21.2267 15.8396L21.2044 15.8455L21.1822 15.8513L21.16 15.857L21.1377 15.8625L21.1155 15.868L21.0932 15.8733L21.071 15.8784L21.0488 15.8834L21.0265 15.8884L21.0043 15.8931L20.9821 15.8978L20.9598 15.9023L20.9376 15.9067L20.9154 15.911L20.8931 15.9151L20.8709 15.9192L20.8486 15.9231L20.8264 15.9268L20.8042 15.9305L20.7819 15.934L20.7597 15.9374L20.7375 15.9407L20.7152 15.9439L20.693 15.9469L20.6708 15.9499L20.6485 15.9527L20.6263 15.9554L20.6041 15.9579L20.5818 15.9604L20.5596 15.9627L20.5374 15.9649L20.5151 15.967L20.4929 15.969L20.4706 15.9708L20.4572 15.9719L20.4484 15.9725L20.4262 15.974L20.4039 15.9755L20.3817 15.9767L20.3595 15.9779L20.3372 15.9789L20.315 15.9796L20.2928 15.9804L20.2705 15.9809L20.2483 15.9812L20.2261 15.9815C20.2186 15.9815 20.2112 15.9814 20.2038 15.9814L20.1816 15.9813L20.1593 15.981L20.1371 15.9805L20.1149 15.9799C20.1074 15.9797 20.1001 15.9793 20.0926 15.979C20.0852 15.9787 20.0778 15.9785 20.0704 15.9781L20.0482 15.9768L20.0259 15.9755L20.0037 15.9739L19.9815 15.9721C19.9741 15.9715 19.9666 15.971 19.9592 15.9703C19.9518 15.9696 19.9444 15.9688 19.937 15.968L19.9148 15.9658L19.8925 15.9631L19.8703 15.9604L19.8481 15.9574L19.8258 15.9542C19.8184 15.9531 19.811 15.952 19.8036 15.9508C19.7961 15.9497 19.7887 15.9484 19.7813 15.9471C19.7739 15.9459 19.7665 15.9447 19.7591 15.9434C19.7516 15.942 19.7443 15.9405 19.7369 15.9391C19.7295 15.9377 19.722 15.9364 19.7146 15.9349C19.7072 15.9334 19.6998 15.9318 19.6924 15.9302C19.685 15.9286 19.6775 15.9271 19.6702 15.9254C19.6627 15.9238 19.6553 15.922 19.6479 15.9202L19.6257 15.9149C19.6182 15.9131 19.6109 15.9112 19.6035 15.9092C19.596 15.9073 19.5886 15.9054 19.5812 15.9034C19.5738 15.9014 19.5664 15.8993 19.559 15.8972C19.5516 15.895 19.5441 15.8929 19.5367 15.8907C19.5293 15.8885 19.5219 15.8862 19.5145 15.8839C19.5071 15.8815 19.4997 15.8792 19.4923 15.8768C19.4848 15.8744 19.4774 15.8719 19.47 15.8693C19.4626 15.8668 19.4552 15.8643 19.4478 15.8617C19.4403 15.859 19.433 15.8563 19.4256 15.8535C19.4182 15.8508 19.4107 15.8481 19.4034 15.8452C19.3959 15.8423 19.3885 15.8393 19.3811 15.8364C19.3737 15.8334 19.3662 15.8304 19.3589 15.8274C19.3514 15.8243 19.344 15.821 19.3366 15.8177C19.3292 15.8145 19.3217 15.8113 19.3144 15.808C19.3069 15.8046 19.2995 15.801 19.2922 15.7976C19.2847 15.794 19.2773 15.7905 19.2699 15.7869C19.2625 15.7832 19.2551 15.7795 19.2477 15.7757C19.2402 15.7719 19.2328 15.768 19.2255 15.7641C19.218 15.7601 19.2105 15.7562 19.2032 15.7522C19.1957 15.748 19.1884 15.7437 19.181 15.7395C19.1735 15.7352 19.1661 15.7309 19.1587 15.7265C19.1513 15.722 19.1439 15.7175 19.1365 15.7129C19.129 15.7082 19.1217 15.7035 19.1143 15.6987C19.1068 15.6939 19.0994 15.6891 19.092 15.6842C19.0845 15.6791 19.0772 15.6739 19.0698 15.6687C19.0623 15.6634 19.0549 15.6581 19.0476 15.6527C19.0401 15.6473 19.0327 15.6418 19.0253 15.6362C19.0178 15.6305 19.0105 15.6246 19.0031 15.6187C18.9956 15.6128 18.9882 15.6068 18.9809 15.6007C18.9734 15.5945 18.9659 15.5883 18.9586 15.582C18.9511 15.5754 18.9437 15.5688 18.9364 15.5621C18.9289 15.5553 18.9215 15.5484 18.9142 15.5414C18.9067 15.5343 18.8992 15.5271 18.8919 15.5199C18.8844 15.5125 18.877 15.505 18.8697 15.4974C18.8621 15.4896 18.8548 15.4816 18.8475 15.4736C18.8399 15.4653 18.8325 15.457 18.8252 15.4486C18.8177 15.4399 18.8103 15.4312 18.803 15.4223C18.7955 15.4132 18.788 15.404 18.7808 15.3947C18.7732 15.385 18.7658 15.3753 18.7585 15.3654C18.751 15.3552 18.7435 15.3449 18.7363 15.3345C18.7287 15.3236 18.7213 15.3127 18.714 15.3016C18.7065 15.2899 18.6991 15.2782 18.6918 15.2663C18.6842 15.2539 18.6768 15.2413 18.6696 15.2285C18.6619 15.2151 18.6546 15.2015 18.6473 15.1878C18.6397 15.1732 18.6323 15.1584 18.6251 15.1435C18.6174 15.1276 18.61 15.1115 18.6029 15.0952C18.5952 15.0777 18.5877 15.06 18.5806 15.042C18.5728 15.0221 18.5655 15.0018 18.5584 14.9813C18.5505 14.9586 18.5431 14.9356 18.5362 14.9122C18.5281 14.8851 18.5207 14.8575 18.5139 14.8295C18.5055 14.7946 18.4981 14.7589 18.4917 14.7226C18.4821 14.6688 18.4746 14.6135 18.4694 14.5567C18.4635 14.4911 18.4604 14.4235 18.4604 14.354C18.4604 14.2844 18.4635 14.2167 18.4694 14.1511C18.4746 14.0943 18.4821 14.0389 18.4917 13.9851C18.4981 13.9488 18.5055 13.9131 18.5139 13.8782C18.5207 13.8501 18.5281 13.8225 18.5362 13.7954C18.5431 13.772 18.5505 13.749 18.5584 13.7262C18.5655 13.7058 18.5728 13.6855 18.5806 13.6656C18.5877 13.6475 18.5952 13.6298 18.6029 13.6123C18.61 13.596 18.6174 13.5799 18.6251 13.564C18.6323 13.549 18.6397 13.5342 18.6473 13.5197C18.6546 13.5059 18.6619 13.4923 18.6696 13.4789C18.6768 13.4661 18.6842 13.4535 18.6918 13.4411C18.6991 13.4292 18.7065 13.4175 18.714 13.4058C18.7213 13.3947 18.7287 13.3838 18.7363 13.3729C18.7435 13.3624 18.751 13.3521 18.7585 13.3419C18.7658 13.3321 18.7732 13.3223 18.7808 13.3127C18.788 13.3034 18.7955 13.2942 18.803 13.285C18.8103 13.2762 18.8177 13.2674 18.8252 13.2588C18.8325 13.2503 18.8399 13.242 18.8475 13.2337C18.8548 13.2257 18.8621 13.2177 18.8697 13.2099C18.877 13.2023 18.8844 13.1948 18.8919 13.1874C18.8992 13.1801 18.9067 13.173 18.9142 13.1659C18.9215 13.1589 18.9289 13.152 18.9364 13.1452C18.9437 13.1385 18.9511 13.1318 18.9586 13.1253C18.9659 13.119 18.9734 13.1128 18.9809 13.1066C18.9882 13.1005 18.9956 13.0945 19.0031 13.0885C19.0105 13.0826 19.0178 13.0768 19.0253 13.071C19.0327 13.0654 19.0401 13.06 19.0476 13.0545C19.0549 13.0491 19.0623 13.0438 19.0698 13.0386C19.0772 13.0334 19.0845 13.0281 19.092 13.0231C19.0994 13.0181 19.1068 13.0133 19.1143 13.0085C19.1217 13.0037 19.129 12.999 19.1365 12.9943C19.1439 12.9897 19.1513 12.9852 19.1587 12.9807C19.1661 12.9763 19.1735 12.972 19.181 12.9677C19.1884 12.9635 19.1957 12.9592 19.2032 12.9551C19.2105 12.951 19.218 12.947 19.2255 12.9431C19.2328 12.9392 19.2402 12.9353 19.2477 12.9315C19.2551 12.9277 19.2625 12.924 19.2699 12.9203C19.2773 12.9167 19.2847 12.9131 19.2922 12.9096C19.2995 12.9061 19.3069 12.9026 19.3144 12.8992C19.3217 12.8959 19.3292 12.8927 19.3366 12.8894C19.344 12.8862 19.3514 12.8829 19.3589 12.8798C19.3662 12.8767 19.3737 12.8738 19.3811 12.8708C19.3885 12.8678 19.3959 12.8648 19.4034 12.8619C19.4107 12.8591 19.4182 12.8564 19.4256 12.8536C19.433 12.8509 19.4403 12.8481 19.4478 12.8455C19.4552 12.8429 19.4626 12.8403 19.47 12.8378C19.4774 12.8353 19.4848 12.8328 19.4923 12.8303C19.4997 12.8279 19.5071 12.8256 19.5145 12.8233C19.5219 12.821 19.5293 12.8187 19.5367 12.8165L19.559 12.81C19.5664 12.8079 19.5738 12.8058 19.5812 12.8037C19.5886 12.8017 19.596 12.7998 19.6035 12.7979C19.6109 12.796 19.6182 12.794 19.6257 12.7922L19.6479 12.7869C19.6553 12.7851 19.6627 12.7834 19.6702 12.7817C19.6775 12.78 19.685 12.7785 19.6924 12.7769C19.6998 12.7754 19.7072 12.7737 19.7146 12.7722C19.722 12.7707 19.7295 12.7694 19.7369 12.768C19.7443 12.7666 19.7516 12.7651 19.7591 12.7638C19.7665 12.7624 19.7739 12.7613 19.7813 12.76C19.7887 12.7587 19.7961 12.7575 19.8036 12.7563L19.8258 12.7529L19.8481 12.7497L19.8703 12.7467L19.8925 12.744L19.9148 12.7413L19.937 12.7391C19.9444 12.7383 19.9518 12.7375 19.9592 12.7368C19.9666 12.7361 19.9741 12.7356 19.9815 12.735L20.0037 12.7332L20.0259 12.7316L20.0482 12.7303L20.0704 12.729C20.0778 12.7286 20.0852 12.7284 20.0926 12.7281C20.1001 12.7278 20.1074 12.7274 20.1149 12.7272L20.1371 12.7266L20.1593 12.7261L20.1816 12.7258L20.2038 12.7257C20.2112 12.7257 20.2186 12.7256 20.2261 12.7256L20.2483 12.7259L20.2705 12.7262L20.2928 12.7267L20.315 12.7275L20.3372 12.7282L20.3595 12.7292L20.3817 12.7304L20.4039 12.7316L20.4262 12.7331L20.4484 12.7346L20.4572 12.7352L20.4706 12.7363L20.4929 12.7381L20.5151 12.7401L20.5374 12.7421L20.5596 12.7443L20.5818 12.7466L20.6041 12.749L20.6263 12.7515L20.6485 12.7542L20.6708 12.7569L20.693 12.7598L20.7152 12.7628L20.7375 12.7659L20.7597 12.7692L20.7819 12.7725L20.8042 12.776L20.8264 12.7797L20.8486 12.7834L20.8709 12.7872L20.8931 12.7912L20.9154 12.7953L20.9376 12.7996L20.9598 12.8039L20.9821 12.8084L21.0043 12.813L21.0265 12.8178L21.0488 12.8226L21.071 12.8277L21.0932 12.8328L21.1155 12.838L21.1377 12.8434L21.16 12.8489L21.1822 12.8545L21.2044 12.8603L21.2267 12.8662L21.2489 12.8722L21.2711 12.8784L21.2934 12.8847L21.3156 12.8911L21.3378 12.8977L21.3601 12.9044L21.3823 12.9112L21.4045 12.9181L21.4268 12.9252L21.449 12.9324L21.4712 12.9398L21.4935 12.9473L21.5157 12.9549L21.538 12.9626L21.5602 12.9704L21.5824 12.9785L21.6047 12.9866L21.6269 12.9949L21.6491 13.0033L21.6714 13.0118L21.6936 13.0205L21.7158 13.0292L21.7381 13.0381L21.7603 13.0472L21.7826 13.0563L21.8048 13.0656L21.827 13.0751L21.8493 13.0846L21.8715 13.0943L21.8937 13.1041L21.916 13.114L21.9382 13.124L21.9604 13.1342L21.9827 13.1444L22.0049 13.1548L22.0271 13.1653L22.0494 13.176L22.0716 13.1867L22.0938 13.1975L22.1161 13.2085L22.1383 13.2195L22.1606 13.2307L22.1828 13.242L22.2049 13.2532V12.2611L22.1828 12.2555L22.1606 12.2501L22.1383 12.2447L22.1161 12.2394L22.0938 12.2342L22.0716 12.2291L22.0494 12.2239L22.0271 12.2189L22.0049 12.2139L21.9827 12.2089L21.9604 12.204L21.9382 12.1992L21.916 12.1943L21.8937 12.1896L21.8715 12.1849L21.8493 12.1802L21.827 12.1756L21.8048 12.171L21.7826 12.1665L21.7603 12.162L21.7381 12.1576L21.7158 12.1532L21.6936 12.1488L21.6714 12.1445L21.6491 12.1402L21.6269 12.136L21.6047 12.1318L21.5824 12.1277L21.5602 12.1236L21.538 12.1196L21.5157 12.1156L21.4935 12.1116L21.4712 12.1077L21.449 12.1039L21.4268 12.1L21.4045 12.0963L21.3823 12.0925L21.3601 12.0889L21.3378 12.0852L21.3156 12.0816L21.2934 12.0781L21.2711 12.0746L21.2489 12.0712L21.2267 12.0678L21.2044 12.0644L21.1822 12.0612L21.16 12.0579L21.1377 12.0547L21.1155 12.0516L21.0932 12.0485L21.071 12.0455L21.0488 12.0425L21.0265 12.0396L21.0043 12.0367L20.9821 12.0338L20.9598 12.0311L20.9376 12.0284L20.9154 12.0257L20.8931 12.0231L20.8709 12.0206L20.8486 12.0181L20.8264 12.0157L20.8042 12.0133L20.7819 12.011L20.7597 12.0088L20.7375 12.0066L20.7152 12.0045L20.693 12.0025L20.6708 12.0005L20.6485 11.9986L20.6263 11.9967L20.6041 11.9949L20.5818 11.9933L20.5596 11.9916L20.5374 11.9901L20.5151 11.9886L20.4929 11.9872L20.4706 11.9859L20.4484 11.9846L20.4262 11.9834L20.4039 11.9823L20.3926 11.9818L20.3817 11.9813L20.3595 11.9804L20.3372 11.9795L20.315 11.9785L20.2928 11.9777L20.2705 11.977L20.2483 11.9762L20.2261 11.9755L20.2038 11.9749L20.1816 11.9742L20.1593 11.9737L20.1371 11.9732L20.1149 11.9727L20.0926 11.9723L20.0704 11.972L20.0482 11.9717L20.0259 11.9714L20.0037 11.9712L19.9815 11.9711L19.9592 11.9709L19.937 11.9709L19.9148 11.9709L19.8925 11.971L19.8703 11.971L19.8481 11.9712L19.8258 11.9715L19.8036 11.9717L19.7813 11.9721L19.7591 11.9725L19.7369 11.9729L19.7146 11.9734L19.6924 11.974L19.6702 11.9745L19.6479 11.9753L19.6257 11.976L19.6035 11.9768L19.5812 11.9777L19.559 11.9786L19.5367 11.9796L19.5145 11.9807L19.4923 11.9818L19.47 11.9829L19.4478 11.9842L19.4256 11.9855L19.4034 11.9868L19.3811 11.9883L19.3589 11.9898L19.3366 11.9913L19.3144 11.9931L19.2922 11.9948L19.2699 11.9965L19.2477 11.9985L19.2255 12.0003L19.2032 12.0024L19.181 12.0045L19.1587 12.0066L19.1365 12.0088L19.1143 12.0112L19.092 12.0135L19.0698 12.016L19.0476 12.0186L19.0253 12.0212L19.0031 12.0239L18.9809 12.0267L18.9586 12.0296L18.9364 12.0326L18.9142 12.0356L18.8919 12.0387L18.8697 12.042L18.8475 12.0453L18.8252 12.0487L18.803 12.0521L18.7808 12.0558L18.7585 12.0595L18.7363 12.0632L18.714 12.0671L18.6918 12.0711L18.6696 12.0752L18.6473 12.0794L18.6251 12.0836L18.6029 12.088L18.5806 12.0925L18.5584 12.0971L18.5362 12.1018L18.5139 12.1066L18.4917 12.1116L18.4694 12.1166L18.4472 12.1218L18.425 12.127L18.4027 12.1325L18.3805 12.138L18.3583 12.1436L18.336 12.1494L18.3138 12.1553L18.2916 12.1613L18.2693 12.1675L18.2471 12.1738L18.2249 12.1802L18.2026 12.1868L18.1804 12.1935L18.1582 12.2004L18.1359 12.2074L18.1137 12.2146C18.1063 12.217 18.0988 12.2194 18.0914 12.2219L18.0692 12.2294C18.0618 12.2319 18.0543 12.2344 18.047 12.237L18.0247 12.2448L18.0025 12.2527C17.995 12.2554 17.9877 12.2582 17.9803 12.2609C17.9728 12.2637 17.9654 12.2664 17.958 12.2692L17.9358 12.2777C17.9284 12.2806 17.9209 12.2834 17.9136 12.2863L17.8913 12.2953L17.8691 12.3043L17.8468 12.3135L17.8246 12.323L17.8024 12.3326L17.7801 12.3425L17.7579 12.3525L17.7357 12.3628L17.7135 12.3732C17.706 12.3768 17.6986 12.3804 17.6912 12.384L17.669 12.3949L17.6467 12.4062L17.6245 12.4177C17.6171 12.4215 17.6096 12.4254 17.6023 12.4293C17.5948 12.4333 17.5874 12.4373 17.58 12.4414L17.5578 12.4536L17.5356 12.4661C17.5281 12.4703 17.5207 12.4746 17.5133 12.4789C17.5059 12.4833 17.4984 12.4876 17.4911 12.492C17.4836 12.4964 17.4763 12.5009 17.4689 12.5054C17.4614 12.51 17.454 12.5146 17.4466 12.5192C17.4392 12.5238 17.4317 12.5285 17.4244 12.5332C17.4169 12.538 17.4095 12.5428 17.4022 12.5476L17.3799 12.5624C17.3725 12.5674 17.365 12.5723 17.3577 12.5774L17.3355 12.5929C17.328 12.5982 17.3206 12.6035 17.3132 12.6088C17.3058 12.6142 17.2983 12.6196 17.291 12.625C17.2835 12.6305 17.2761 12.636 17.2688 12.6416C17.2613 12.6473 17.2539 12.653 17.2465 12.6588C17.239 12.6646 17.2316 12.6705 17.2243 12.6764C17.2168 12.6823 17.2094 12.6883 17.202 12.6944V12.6944Z" fill="url(#paint2_linear_75_1003)"/>
</g>
</g>
</g>
<defs>
<linearGradient id="paint0_linear_75_1003" x1="23.5381" y1="14.3536" x2="29.2307" y2="14.3536" gradientUnits="userSpaceOnUse">
<stop stop-color="#007B40"/>
<stop offset="1" stop-color="#55B330"/>
</linearGradient>
<linearGradient id="paint1_linear_75_1003" x1="10.7695" y1="14.3536" x2="16.4615" y2="14.3536" gradientUnits="userSpaceOnUse">
<stop stop-color="#1D2970"/>
<stop offset="1" stop-color="#006DBA"/>
</linearGradient>
<linearGradient id="paint2_linear_75_1003" x1="17.1543" y1="14.3536" x2="22.8465" y2="14.3536" gradientUnits="userSpaceOnUse">
<stop stop-color="#6E2B2F"/>
<stop offset="1" stop-color="#E30138"/>
</linearGradient>
</defs>
</svg>
