<svg width="40" height="27" viewBox="0 0 40 27" fill="none" xmlns="http://www.w3.org/2000/svg">
<g id="Maestro">
<g id="Button">
<rect id="Card" y="1.35352" width="40" height="26" rx="2.51813" fill="#F4F5FF"/>
<g id="Container">
<g id="Container_2">
<path id="Vector" d="M23.4994 20.7424H16.5V7.9668H23.4994V20.7424Z" fill="#6C6BBD"/>
<g id="Rating">
<path id="Vector_2" d="M16.948 14.3535C16.948 11.7619 18.1428 9.45343 20.0033 7.96573C18.6427 6.87785 16.9256 6.22853 15.0595 6.22853C10.6417 6.22853 7.06055 9.86616 7.06055 14.3535C7.06055 18.8409 10.6417 22.4785 15.0595 22.4785C16.9256 22.4785 18.6427 21.8292 20.0033 20.7413C18.1428 19.2536 16.948 16.9451 16.948 14.3535Z" fill="#EB001B"/>
</g>
<g id="Slider">
<path id="Vector_3" d="M32.9393 14.3535C32.9393 18.8409 29.3582 22.4785 24.9403 22.4785C23.0742 22.4785 21.3571 21.8292 19.9961 20.7413C21.8571 19.2536 23.0519 16.9451 23.0519 14.3535C23.0519 11.7619 21.8571 9.45343 19.9961 7.96573C21.3571 6.87785 23.0742 6.22853 24.9403 6.22853C29.3582 6.22853 32.9393 9.86616 32.9393 14.3535Z" fill="#0099DF"/>
</g>
</g>
<g id="Text input">
<path id="Vector_4" d="M27.2115 12.9645C27.326 12.9645 27.4906 12.9867 27.6164 13.0369L27.4412 13.5811C27.321 13.5308 27.2008 13.5143 27.0857 13.5143C26.7139 13.5143 26.528 13.7584 26.528 14.197V15.6858H25.959V13.0312H26.5224V13.3535C26.6701 13.1202 26.8835 12.9645 27.2115 12.9645ZM25.1097 13.5588H24.1802V14.7583C24.1802 15.0247 24.2729 15.2027 24.5577 15.2027C24.7054 15.2027 24.8913 15.1525 25.0603 15.0527L25.2242 15.5466C25.044 15.6744 24.7598 15.7525 24.5139 15.7525C23.841 15.7525 23.6063 15.3858 23.6063 14.7691V13.5588H23.0755V13.0312H23.6063V12.2258H24.1802V13.0312H25.1097V13.5588ZM17.8311 14.1252C17.8919 13.7419 18.1209 13.4806 18.5259 13.4806C18.892 13.4806 19.1274 13.7139 19.1875 14.1252H17.8311ZM19.7783 14.3585C19.7727 13.5308 19.2695 12.9645 18.5365 12.9645C17.7711 12.9645 17.2353 13.5308 17.2353 14.3585C17.2353 15.202 17.793 15.7519 18.5753 15.7519C18.969 15.7519 19.3295 15.6521 19.6469 15.38L19.3677 14.9522C19.1493 15.1302 18.8701 15.23 18.6079 15.23C18.2417 15.23 17.9081 15.0577 17.8261 14.5804H19.767C19.7727 14.5079 19.7783 14.4361 19.7783 14.3585ZM22.2769 13.7088C22.1185 13.6084 21.7962 13.4806 21.4626 13.4806C21.1509 13.4806 20.965 13.5976 20.965 13.7921C20.965 13.9695 21.1615 14.0197 21.4075 14.0527L21.6754 14.0915C22.2443 14.1754 22.5886 14.4195 22.5886 14.8861C22.5886 15.3915 22.1511 15.7525 21.3969 15.7525C20.97 15.7525 20.5763 15.6413 20.2646 15.408L20.5325 14.9579C20.724 15.108 21.0088 15.2357 21.4025 15.2357C21.7906 15.2357 21.9984 15.1194 21.9984 14.9134C21.9984 14.7641 21.8507 14.6802 21.539 14.6363L21.2711 14.5975C20.6859 14.5136 20.3685 14.2473 20.3685 13.8144C20.3685 13.2867 20.7954 12.9645 21.457 12.9645C21.8726 12.9645 22.25 13.0592 22.5229 13.2423L22.2769 13.7088ZM29.2901 13.513C29.173 13.513 29.0648 13.534 28.964 13.5753C28.8638 13.6173 28.7768 13.6758 28.7036 13.7508C28.6304 13.8258 28.5728 13.9161 28.5309 14.021C28.4889 14.1258 28.4683 14.2415 28.4683 14.3674C28.4683 14.4939 28.4889 14.609 28.5309 14.7138C28.5728 14.8187 28.6304 14.909 28.7036 14.984C28.7768 15.059 28.8638 15.1175 28.964 15.1595C29.0648 15.2014 29.173 15.2218 29.2901 15.2218C29.4071 15.2218 29.516 15.2014 29.6162 15.1595C29.7169 15.1175 29.8046 15.059 29.8778 14.984C29.9523 14.909 30.0099 14.8187 30.0524 14.7138C30.0944 14.609 30.115 14.4939 30.115 14.3674C30.115 14.2415 30.0944 14.1258 30.0524 14.021C30.0099 13.9161 29.9523 13.8258 29.8778 13.7508C29.8046 13.6758 29.7169 13.6173 29.6162 13.5753C29.516 13.534 29.4071 13.513 29.2901 13.513ZM29.2901 12.9645C29.4929 12.9645 29.6806 13.0001 29.8534 13.0719C30.0261 13.1431 30.1757 13.2416 30.3015 13.3668C30.428 13.4921 30.5262 13.6402 30.5976 13.8105C30.6689 13.9815 30.7046 14.1672 30.7046 14.3674C30.7046 14.5676 30.6689 14.7533 30.5976 14.9243C30.5262 15.0946 30.428 15.2434 30.3015 15.3686C30.1757 15.4938 30.0261 15.5917 29.8534 15.6635C29.6806 15.7347 29.4929 15.7703 29.2901 15.7703C29.0873 15.7703 28.8995 15.7347 28.7268 15.6635C28.554 15.5917 28.4057 15.4938 28.2805 15.3686C28.1553 15.2434 28.0571 15.0946 27.9857 14.9243C27.9144 14.7533 27.8787 14.5676 27.8787 14.3674C27.8787 14.1672 27.9144 13.9815 27.9857 13.8105C28.0571 13.6402 28.1553 13.4921 28.2805 13.3668C28.4057 13.2416 28.554 13.1431 28.7268 13.0719C28.8995 13.0001 29.0873 12.9645 29.2901 12.9645ZM14.5089 14.3585C14.5089 13.8919 14.8099 13.5086 15.3019 13.5086C15.7719 13.5086 16.0893 13.8754 16.0893 14.3585C16.0893 14.8416 15.7719 15.2078 15.3019 15.2078C14.8099 15.2078 14.5089 14.8251 14.5089 14.3585ZM16.625 14.3585V13.0312H16.0567V13.3535C15.8758 13.1145 15.6029 12.9645 15.2312 12.9645C14.4982 12.9645 13.9243 13.5474 13.9243 14.3585C13.9243 15.169 14.4982 15.7525 15.2312 15.7525C15.6029 15.7525 15.8758 15.6025 16.0567 15.3635V15.6858H16.625V14.3585ZM13.4211 15.6858V14.0197C13.4211 13.3923 13.0274 12.9702 12.3933 12.9645C12.0597 12.9587 11.7149 13.0643 11.4745 13.4368C11.2943 13.1424 11.0095 12.9645 10.6102 12.9645C10.3316 12.9645 10.0581 13.0477 9.84468 13.3586V13.0312H9.27637V15.6858H9.85032V14.2142C9.85032 13.7533 10.1019 13.5086 10.49 13.5086C10.8674 13.5086 11.0589 13.7584 11.0589 14.2085V15.6858H11.6329V14.2142C11.6329 13.7533 11.8958 13.5086 12.2725 13.5086C12.6612 13.5086 12.8471 13.7584 12.8471 14.2085V15.6858H13.4211Z" fill="white"/>
</g>
</g>
</g>
</g>
</svg>
