<svg width="40" height="27" viewBox="0 0 40 27" fill="none" xmlns="http://www.w3.org/2000/svg">
<g id="MasterCard">
<g id="Button">
<rect id="Card" y="1.35352" width="40" height="26" rx="2.51813" fill="#F4F5FF"/>
<g id="Container">
<g id="Container_2">
<path id="Vector" d="M23.4915 20.7435H16.4922V7.96793H23.4915V20.7435Z" fill="#FF5F00"/>
<g id="Rating">
<path id="Vector_2" d="M16.9402 14.3547C16.9402 11.7631 18.1349 9.45455 19.9954 7.96686C18.6349 6.87898 16.9178 6.22966 15.0517 6.22966C10.6339 6.22966 7.05273 9.86729 7.05273 14.3547C7.05273 18.842 10.6339 22.4797 15.0517 22.4797C16.9178 22.4797 18.6349 21.8303 19.9954 20.7425C18.1349 19.2548 16.9402 16.9463 16.9402 14.3547Z" fill="#EB001B"/>
</g>
<g id="Rating_2">
<path id="Vector_3" d="M32.9315 14.3547C32.9315 18.842 29.3504 22.4797 24.9325 22.4797C23.0664 22.4797 21.3493 21.8303 19.9883 20.7425C21.8493 19.2548 23.044 16.9463 23.044 14.3547C23.044 11.7631 21.8493 9.45455 19.9883 7.96686C21.3493 6.87898 23.0664 6.22966 24.9325 6.22966C29.3504 6.22966 32.9315 9.86729 32.9315 14.3547Z" fill="#F79E1B"/>
</g>
</g>
<g id="Text input">
<path id="Vector_4" d="M13.0722 14.406C13.0722 14.0511 13.3012 13.7596 13.6754 13.7596C14.033 13.7596 14.2743 14.0386 14.2743 14.406C14.2743 14.7735 14.033 15.0525 13.6754 15.0525C13.3012 15.0525 13.0722 14.7609 13.0722 14.406ZM14.6819 14.406V13.3965H14.2496V13.6416C14.1125 13.4598 13.9044 13.3457 13.6216 13.3457C13.0642 13.3457 12.6271 13.7896 12.6271 14.406C12.6271 15.023 13.0642 15.4664 13.6216 15.4664C13.9044 15.4664 14.1125 15.3523 14.2496 15.1705V15.4156H14.6819V14.406ZM29.2897 14.406C29.2897 14.0511 29.5187 13.7596 29.8929 13.7596C30.2509 13.7596 30.4918 14.0386 30.4918 14.406C30.4918 14.7735 30.2509 15.0525 29.8929 15.0525C29.5187 15.0525 29.2897 14.7609 29.2897 14.406ZM30.8998 14.406V12.5856H30.467V13.6416C30.3299 13.4598 30.1219 13.3457 29.8391 13.3457C29.2816 13.3457 28.8446 13.7896 28.8446 14.406C28.8446 15.023 29.2816 15.4664 29.8391 15.4664C30.1219 15.4664 30.3299 15.3523 30.467 15.1705V15.4156H30.8998V14.406ZM20.0477 13.7388C20.3262 13.7388 20.5052 13.9162 20.5509 14.2286H19.5192C19.5654 13.937 19.7397 13.7388 20.0477 13.7388ZM20.0562 13.3457C19.4735 13.3457 19.066 13.7765 19.066 14.406C19.066 15.0481 19.4902 15.4664 20.0853 15.4664C20.3847 15.4664 20.659 15.3905 20.9003 15.1835L20.6885 14.8581C20.5218 14.993 20.3095 15.0694 20.11 15.0694C19.8315 15.0694 19.5778 14.9384 19.5154 14.5748H20.9917C20.996 14.5202 21.0003 14.465 21.0003 14.406C20.996 13.7765 20.6132 13.3457 20.0562 13.3457ZM25.2759 14.406C25.2759 14.0511 25.5049 13.7596 25.8791 13.7596C26.2366 13.7596 26.478 14.0386 26.478 14.406C26.478 14.7735 26.2366 15.0525 25.8791 15.0525C25.5049 15.0525 25.2759 14.7609 25.2759 14.406ZM26.8855 14.406V13.3965H26.4532V13.6416C26.3157 13.4598 26.1081 13.3457 25.8253 13.3457C25.2678 13.3457 24.8308 13.7896 24.8308 14.406C24.8308 15.023 25.2678 15.4664 25.8253 15.4664C26.1081 15.4664 26.3157 15.3523 26.4532 15.1705V15.4156H26.8855V14.406ZM22.8346 14.406C22.8346 15.0187 23.2545 15.4664 23.8953 15.4664C24.1947 15.4664 24.3942 15.3987 24.6104 15.2256L24.4028 14.8707C24.2404 14.9892 24.07 15.0525 23.8824 15.0525C23.5373 15.0481 23.2835 14.7948 23.2835 14.406C23.2835 14.0173 23.5373 13.7639 23.8824 13.7596C24.07 13.7596 24.2404 13.8229 24.4028 13.9414L24.6104 13.5865C24.3942 13.4134 24.1947 13.3457 23.8953 13.3457C23.2545 13.3457 22.8346 13.7934 22.8346 14.406ZM28.408 13.3457C28.1585 13.3457 27.9962 13.4642 27.8838 13.6416V13.3965H27.4554V15.4156H27.8881V14.2837C27.8881 13.9496 28.0295 13.7639 28.3123 13.7639C28.3999 13.7639 28.4913 13.7765 28.5827 13.8147L28.716 13.4008C28.6203 13.3626 28.4956 13.3457 28.408 13.3457ZM16.8199 13.557C16.6119 13.4177 16.3253 13.3457 16.0091 13.3457C15.5055 13.3457 15.1813 13.5908 15.1813 13.9922C15.1813 14.3214 15.4226 14.5245 15.8673 14.5878L16.0715 14.6173C16.3086 14.6512 16.4205 14.7145 16.4205 14.8286C16.4205 14.9848 16.2624 15.0738 15.9672 15.0738C15.6678 15.0738 15.4517 14.9766 15.306 14.8625L15.1022 15.2043C15.3393 15.3818 15.6388 15.4664 15.963 15.4664C16.5371 15.4664 16.8699 15.1918 16.8699 14.8074C16.8699 14.4525 16.608 14.2668 16.1753 14.2035L15.9715 14.1735C15.7844 14.1483 15.6345 14.1106 15.6345 13.9752C15.6345 13.8273 15.7759 13.7388 16.0129 13.7388C16.2667 13.7388 16.5124 13.836 16.6328 13.9119L16.8199 13.557ZM22.3976 13.3457C22.1481 13.3457 21.9858 13.4642 21.8739 13.6416V13.3965H21.4454V15.4156H21.8777V14.2837C21.8777 13.9496 22.0191 13.7639 22.3019 13.7639C22.3895 13.7639 22.4809 13.7765 22.5723 13.8147L22.7056 13.4008C22.6099 13.3626 22.4852 13.3457 22.3976 13.3457ZM18.7085 13.3965H18.0015V12.7839H17.5645V13.3965H17.1612V13.7978H17.5645V14.7189C17.5645 15.1874 17.7435 15.4664 18.2548 15.4664C18.4424 15.4664 18.6585 15.4074 18.7956 15.3102L18.6709 14.934C18.5419 15.0099 18.4005 15.0481 18.2881 15.0481C18.072 15.0481 18.0015 14.9128 18.0015 14.7102V13.7978H18.7085V13.3965ZM12.2448 15.4156V14.1483C12.2448 13.6711 11.9454 13.3501 11.4626 13.3457C11.2089 13.3413 10.9471 13.4216 10.7638 13.705C10.6267 13.4811 10.4105 13.3457 10.1068 13.3457C9.89446 13.3457 9.68689 13.409 9.52455 13.6455V13.3965H9.0918V15.4156H9.52836V14.2963C9.52836 13.9457 9.71974 13.7596 10.0154 13.7596C10.3025 13.7596 10.4477 13.9496 10.4477 14.2919V15.4156H10.8847V14.2963C10.8847 13.9457 11.0842 13.7596 11.3712 13.7596C11.6664 13.7596 11.8078 13.9496 11.8078 14.2919V15.4156H12.2448Z" fill="white"/>
</g>
</g>
</g>
</g>
</svg>
