<svg width="40" height="27" viewBox="0 0 40 27" fill="none" xmlns="http://www.w3.org/2000/svg">
<g id="UnionPay">
<g id="Button container">
<rect id="Card" y="1.35352" width="40" height="26" rx="2.51813" fill="#F4F5FF"/>
<g id="Button">
<path id="Vector" d="M12.2201 6.22852H18.6044C19.4956 6.22852 20.0499 6.96626 19.842 7.87438L16.8696 20.8352C16.6599 21.7401 15.7676 22.4785 14.8758 22.4785H8.49213C7.60219 22.4785 7.04665 21.7401 7.25455 20.8352L10.2281 7.87438C10.436 6.96626 11.3278 6.22852 12.2201 6.22852Z" fill="#E21836"/>
<path id="Vector_2" d="M18.0732 6.22853H25.415C26.306 6.22853 25.9042 6.96628 25.6946 7.87439L22.7228 20.8352C22.5142 21.7402 22.5793 22.4785 21.6864 22.4785H14.3446C13.4517 22.4785 12.8991 21.7402 13.1089 20.8352L16.0806 7.87439C16.2916 6.96628 17.1816 6.22853 18.0732 6.22853Z" fill="#00447C"/>
<path id="Vector_3" d="M25.1237 6.22853H31.508C32.4004 6.22853 32.9547 6.96628 32.7451 7.87439L29.7732 20.8352C29.5635 21.7402 28.6706 22.4785 27.7783 22.4785H21.397C20.5041 22.4785 19.9502 21.7402 20.1594 20.8352L23.1317 7.87439C23.3396 6.96628 24.2308 6.22853 25.1237 6.22853Z" fill="#007B84"/>
<path id="Vector_4" d="M13.8876 10.382C13.2311 10.3888 13.0372 10.382 12.9753 10.3672C12.9515 10.4821 12.5085 12.5577 12.5072 12.5594C12.4118 12.9793 12.3424 13.2787 12.1067 13.4719C11.9728 13.5843 11.8166 13.6385 11.6355 13.6385C11.3443 13.6385 11.1747 13.4917 11.1462 13.2132L11.1408 13.1176C11.1408 13.1176 11.2295 12.5551 11.2295 12.552C11.2295 12.552 11.6945 10.6605 11.7777 10.4105C11.7821 10.3963 11.7833 10.3888 11.7844 10.382C10.8794 10.3901 10.7189 10.382 10.7079 10.3672C10.7018 10.3876 10.6794 10.5048 10.6794 10.5048L10.2046 12.6367L10.1639 12.8175L10.085 13.4089C10.085 13.5843 10.1189 13.7275 10.1864 13.8486C10.4027 14.2325 11.0197 14.29 11.3688 14.29C11.8185 14.29 12.2403 14.1929 12.5254 14.0158C13.0203 13.7188 13.1497 13.2546 13.2652 12.8421L13.3187 12.6305C13.3187 12.6305 13.7977 10.666 13.8791 10.4105C13.8822 10.3963 13.8834 10.3888 13.8876 10.382ZM15.5173 11.9668C15.4019 11.9668 15.1908 11.9953 15.0013 12.0896C14.9325 12.1255 14.8675 12.1669 14.7989 12.2081L14.8608 11.981L14.8269 11.9428C14.4249 12.0254 14.335 12.0365 13.9637 12.0896L13.9326 12.1106C13.8895 12.4737 13.8512 12.7466 13.6914 13.4602C13.6305 13.7231 13.5673 13.9887 13.504 14.251L13.5211 14.2844C13.9016 14.264 14.0171 14.264 14.3477 14.2695L14.3745 14.2399C14.4165 14.0214 14.422 13.9702 14.515 13.5275C14.5588 13.3176 14.6499 12.8564 14.6949 12.6922C14.7775 12.6533 14.8591 12.6151 14.9369 12.6151C15.1222 12.6151 15.0997 12.7793 15.0925 12.8447C15.0846 12.9546 15.017 13.3133 14.9478 13.6214L14.9016 13.8202C14.8694 13.967 14.834 14.1097 14.8018 14.2553L14.8158 14.2844C15.1908 14.264 15.3052 14.264 15.6255 14.2695L15.6631 14.2399C15.721 13.8986 15.738 13.8072 15.8407 13.3102L15.8923 13.0818C15.9927 12.6349 16.0431 12.4082 15.9672 12.2236C15.8869 12.0167 15.6943 11.9668 15.5173 11.9668ZM17.3379 12.4348C17.1385 12.4736 17.0114 12.4996 16.885 12.5163C16.7598 12.5367 16.6376 12.5552 16.445 12.5824L16.4297 12.5964L16.4157 12.6077C16.3956 12.7534 16.3816 12.8793 16.355 13.0274C16.3324 13.1806 16.2977 13.3546 16.2413 13.6046C16.1975 13.796 16.175 13.8627 16.1501 13.93C16.1258 13.9973 16.099 14.0628 16.0499 14.251L16.0614 14.2684L16.071 14.2843C16.2511 14.2756 16.3689 14.2695 16.4899 14.2684C16.6108 14.264 16.7361 14.2684 16.93 14.2695L16.947 14.2554L16.9652 14.2399C16.9932 14.0702 16.9974 14.0245 17.0145 13.9417C17.0315 13.8529 17.0607 13.7299 17.1324 13.4015C17.1664 13.2473 17.2042 13.0935 17.2394 12.9361C17.2759 12.7793 17.3142 12.6249 17.3506 12.4706L17.3452 12.452L17.3379 12.4348ZM17.3421 11.8038C17.161 11.6952 16.8431 11.7297 16.6291 11.8797C16.4157 12.0267 16.3915 12.2353 16.572 12.3453C16.75 12.4508 17.0692 12.4194 17.2813 12.2681C17.4941 12.118 17.5207 11.9113 17.3421 11.8038ZM18.4375 14.3184C18.804 14.3184 19.1796 14.2158 19.4624 13.9114C19.6799 13.6645 19.7797 13.2972 19.8142 13.146C19.9267 12.6447 19.8391 12.4106 19.7291 12.2681C19.562 12.0508 19.2666 11.9811 18.9602 11.9811C18.776 11.9811 18.3372 11.9996 17.9943 12.3205C17.7482 12.5521 17.6344 12.8663 17.5658 13.1675C17.4965 13.4744 17.4169 14.0269 17.9172 14.2325C18.0715 14.2999 18.2941 14.3184 18.4375 14.3184ZM18.4089 13.1904C18.4934 12.8108 18.5931 12.4922 18.8477 12.4922C19.0472 12.4922 19.0617 12.7292 18.973 13.1101C18.9571 13.1947 18.8843 13.509 18.7858 13.6429C18.717 13.7417 18.6356 13.8016 18.5457 13.8016C18.5189 13.8016 18.3597 13.8016 18.3572 13.5615C18.356 13.443 18.3798 13.3219 18.4089 13.1904ZM20.7303 14.2695L20.7589 14.24C20.7996 14.0214 20.8063 13.9701 20.8962 13.5275C20.9412 13.3177 21.0342 12.8565 21.078 12.6923C21.1607 12.6532 21.2409 12.615 21.3212 12.615C21.5053 12.615 21.4829 12.7792 21.4755 12.8446C21.4688 12.9546 21.4013 13.3132 21.3308 13.6213L21.2871 13.8201C21.2536 13.967 21.2172 14.1096 21.185 14.2553L21.199 14.2844C21.5753 14.264 21.6853 14.264 22.0074 14.2695L22.0463 14.24C22.1028 13.8985 22.1181 13.8071 22.2239 13.3102L22.2743 13.0817C22.3751 12.6347 22.4262 12.4083 22.3515 12.2237C22.2688 12.0168 22.075 11.9669 21.9005 11.9669C21.7849 11.9669 21.5728 11.9951 21.3844 12.0897C21.317 12.1255 21.2494 12.1668 21.1831 12.2082L21.2409 11.9811L21.2099 11.9427C20.8081 12.0255 20.7163 12.0366 20.3455 12.0897L20.317 12.1107C20.272 12.4737 20.2355 12.7465 20.0757 13.4602C20.0148 13.7232 19.9516 13.9887 19.8885 14.2511L19.9054 14.2844C20.2865 14.264 20.4003 14.264 20.7303 14.2695ZM23.4948 14.2843C23.5185 14.1671 23.659 13.472 23.6603 13.472C23.6603 13.472 23.7799 12.962 23.7872 12.9435C23.7872 12.9435 23.8249 12.8904 23.8625 12.8694H23.9179C24.4406 12.8694 25.0309 12.8694 25.4935 12.5237C25.8083 12.2867 26.0235 11.9366 26.1195 11.5111C26.1444 11.4068 26.1628 11.2828 26.1628 11.1587C26.1628 10.9958 26.1306 10.8346 26.0375 10.7086C25.8016 10.3734 25.3318 10.3672 24.7895 10.3647C24.7878 10.3647 24.5222 10.3672 24.5222 10.3672C23.828 10.3759 23.5496 10.3734 23.4352 10.3592C23.4256 10.4105 23.4074 10.5019 23.4074 10.5019C23.4074 10.5019 23.1587 11.6723 23.1587 11.6742C23.1587 11.6742 22.5637 14.1628 22.5356 14.2801C23.1418 14.2726 23.3903 14.2726 23.4948 14.2843ZM23.9556 12.2051C23.9556 12.2051 24.22 11.037 24.2187 11.0414L24.2273 10.9815L24.231 10.9359L24.3367 10.9469C24.3367 10.9469 24.882 10.9945 24.8947 10.9958C25.1099 11.0803 25.1986 11.2983 25.1367 11.5827C25.0802 11.8427 24.9142 12.0613 24.7008 12.1669C24.5251 12.2563 24.3099 12.2637 24.0882 12.2637H23.9447L23.9556 12.2051ZM25.6017 13.212C25.5319 13.5145 25.4516 14.0671 25.9494 14.264C26.1081 14.3326 26.2503 14.353 26.3949 14.3455C26.5475 14.3372 26.689 14.2594 26.82 14.1475C26.8082 14.1935 26.7964 14.2395 26.7845 14.2856L26.8071 14.3152C27.1652 14.2999 27.2763 14.2999 27.6642 14.3029L27.6994 14.2757C27.756 13.9375 27.8094 13.6091 27.9566 12.962C28.0283 12.6521 28.0999 12.3452 28.1735 12.0365L28.162 12.0025C27.7615 12.0779 27.6544 12.094 27.2691 12.1495L27.2399 12.1737C27.236 12.2052 27.2319 12.2353 27.2282 12.2655C27.1683 12.1672 27.0814 12.0833 26.9475 12.031C26.7761 11.9626 26.3737 12.0507 26.0278 12.3706C25.7847 12.599 25.668 12.9119 25.6017 13.212ZM26.443 13.2305C26.5287 12.8577 26.6272 12.5423 26.8824 12.5423C27.0438 12.5423 27.1287 12.6935 27.1115 12.9514C27.0978 13.0158 27.083 13.0836 27.0654 13.1602C27.0399 13.271 27.0122 13.3808 26.9853 13.4908C26.9579 13.5661 26.926 13.637 26.891 13.6843C26.8253 13.7788 26.6691 13.8374 26.5791 13.8374C26.5536 13.8374 26.3961 13.8374 26.3907 13.6016C26.3894 13.4842 26.4132 13.3633 26.443 13.2305ZM30.836 11.9995L30.805 11.9636C30.4087 12.0452 30.3369 12.0582 29.9728 12.1081L29.946 12.1353C29.9448 12.1397 29.9437 12.1465 29.9418 12.1527L29.9406 12.1465C29.6695 12.7817 29.6774 12.6447 29.4568 13.1447C29.4555 13.1219 29.4555 13.1077 29.4543 13.0835L29.399 11.9995L29.3643 11.9636C28.9492 12.0452 28.9394 12.0582 28.5559 12.1081L28.5261 12.1353C28.5219 12.1482 28.5219 12.1625 28.5194 12.178L28.5219 12.1835C28.5698 12.4322 28.5583 12.3768 28.6064 12.7694C28.6288 12.962 28.6586 13.1558 28.681 13.3461C28.7189 13.6645 28.74 13.8213 28.7862 14.3073C28.5273 14.7413 28.466 14.9055 28.2167 15.2863L28.2184 15.2901L28.0429 15.5721C28.0228 15.6018 28.0046 15.6222 27.9791 15.6309C27.9511 15.6449 27.9147 15.6475 27.8641 15.6475H27.7668L27.6223 16.1358L28.1182 16.1445C28.4093 16.1433 28.5924 16.005 28.6909 15.8191L29.0027 15.2764H28.9977L29.0306 15.2381C29.2403 14.7795 30.836 11.9995 30.836 11.9995ZM25.6017 18.4133H25.3913L26.17 15.7975H26.4283L26.5103 15.5281L26.5183 15.8277C26.5086 16.013 26.6521 16.1772 27.029 16.15H27.4648L27.6149 15.6463H27.4508C27.3565 15.6463 27.3128 15.6221 27.3183 15.5703L27.3103 15.2654H26.5032V15.267C26.2422 15.2725 25.4629 15.2924 25.3051 15.3351C25.1142 15.385 24.913 15.532 24.913 15.532L24.992 15.2622H24.237L24.0797 15.7975L23.2906 18.4533H23.1374L22.9873 18.9533H24.4911L24.4407 19.1201H25.1817L25.2309 18.9533H25.4388L25.6017 18.4133ZM24.9847 16.329C24.8638 16.363 24.6388 16.4661 24.6388 16.4661L24.8389 15.7975H25.4388L25.2941 16.2846C25.2941 16.2846 25.1087 16.2957 24.9847 16.329ZM24.9962 17.2841C24.9962 17.2841 24.8078 17.3081 24.6838 17.3366C24.5616 17.3742 24.3325 17.4927 24.3325 17.4927L24.5392 16.797H25.1422L24.9962 17.2841ZM24.6601 18.4195H24.0584L24.2328 17.8323H24.8327L24.6601 18.4195ZM26.1093 16.797H26.9766L26.852 17.207H25.9731L25.8411 17.6552H26.6102L26.0279 18.4879C25.9871 18.5491 25.9505 18.5707 25.9099 18.5879C25.8691 18.609 25.8156 18.6336 25.7537 18.6336H25.5403L25.3937 19.1245H25.9518C26.2418 19.1245 26.4132 18.9905 26.5397 18.8146L26.939 18.2595L27.0247 18.8231C27.0429 18.9287 27.1176 18.9905 27.1682 19.0145C27.2241 19.043 27.2818 19.0918 27.3633 19.0991C27.4508 19.1029 27.514 19.1059 27.556 19.1059H27.8302L27.9948 18.5565H27.8867C27.8246 18.5565 27.7177 18.5459 27.6994 18.5262C27.6812 18.5021 27.6812 18.4651 27.6714 18.4089L27.5845 17.844H27.2283L27.3845 17.6552H28.2617L28.3966 17.207H27.5845L27.711 16.797H28.5206L28.6708 16.2914H26.2569L26.1093 16.797ZM18.7833 18.5336L18.9858 17.8496H19.8178L19.9699 17.3409H19.137L19.2642 16.9198H20.078L20.2288 16.4272H18.1925L18.0448 16.9198H18.5074L18.384 17.3409H17.9202L17.7664 17.8583H18.2289L17.9591 18.7633C17.9226 18.8831 17.9762 18.9287 18.0101 18.9844C18.0448 19.0386 18.08 19.0745 18.159 19.0948C18.2406 19.1133 18.2964 19.1244 18.3724 19.1244H19.3104L19.4775 18.5608L19.0617 18.6188C18.9814 18.6188 18.7591 18.609 18.7833 18.5336ZM18.8788 15.2592L18.6679 15.6462C18.6228 15.7308 18.5822 15.7832 18.5456 15.8074C18.5134 15.8278 18.4496 15.8363 18.3572 15.8363H18.2471L18.1001 16.3315H18.4655C18.6411 16.3315 18.7761 16.2661 18.8405 16.2333C18.9097 16.1957 18.9279 16.2172 18.9815 16.1648L19.1049 16.0562H20.2458L20.3972 15.5406H19.5621L19.7079 15.2592H18.8788ZM20.5632 18.5436C20.5437 18.5151 20.5577 18.465 20.5874 18.3607L20.8993 17.3124H22.0086C22.1703 17.31 22.287 17.3081 22.363 17.3026C22.4445 17.2939 22.5332 17.2644 22.6299 17.2113C22.7296 17.1556 22.7806 17.097 22.8237 17.0297C22.8718 16.9625 22.949 16.8155 23.0153 16.5889L23.4073 15.2623L22.2561 15.2691C22.2561 15.2691 21.9016 15.3222 21.7455 15.3808C21.588 15.4462 21.363 15.6289 21.363 15.6289L21.467 15.2653H20.7558L19.7602 18.6188C19.7249 18.749 19.7012 18.8435 19.6958 18.9003C19.6939 18.9614 19.7717 19.022 19.8221 19.0676C19.8817 19.1133 19.9698 19.1059 20.0543 19.1133C20.1432 19.1201 20.2695 19.1244 20.444 19.1244H20.9905L21.1582 18.5491L20.669 18.596C20.6167 18.596 20.5789 18.5676 20.5632 18.5436ZM21.1005 16.6044H22.2657L22.1916 16.8402C22.1812 16.8457 22.1563 16.8285 22.0377 16.8427H21.0288L21.1005 16.6044ZM21.3339 15.8135H22.5089L22.4244 16.0975C22.4244 16.0975 21.8706 16.092 21.7819 16.1086C21.3916 16.1772 21.1637 16.389 21.1637 16.389L21.3339 15.8135ZM22.2177 17.6298C22.2081 17.6651 22.1928 17.6865 22.1715 17.7027C22.1479 17.7182 22.1096 17.7237 22.0525 17.7237H21.8864L21.8962 17.4365H21.2056L21.1776 18.8404C21.1765 18.9417 21.1862 19.0004 21.2592 19.0473C21.3321 19.1059 21.557 19.1134 21.8597 19.1134H22.2924L22.4487 18.5879L22.0719 18.6089L21.9467 18.6163C21.9295 18.6089 21.9132 18.6021 21.895 18.5836C21.8791 18.5676 21.8524 18.5774 21.8567 18.4761L21.8597 18.1163L22.2548 18.0997C22.4681 18.0997 22.5593 18.0292 22.6371 17.962C22.7113 17.8977 22.7356 17.8237 22.7636 17.7237L22.8299 17.4051H22.287L22.2177 17.6298Z" fill="#FEFEFE"/>
</g>
</g>
</g>
</svg>
