<svg width="40" height="27" viewBox="0 0 40 27" fill="none" xmlns="http://www.w3.org/2000/svg">
<g id="Visa">
<g id="Button">
<rect id="Card" y="1.35352" width="40" height="26" rx="2.51813" fill="#F4F5FF"/>
<g id="Container">
<path id="polygon9" d="M17.9724 18.8511H15.5098L17.0501 9.88477H19.5125L17.9724 18.8511Z" fill="#00579F"/>
<path id="path11" d="M26.8999 10.1044C26.4141 9.92297 25.6437 9.72266 24.6911 9.72266C22.2592 9.72266 20.5467 10.9435 20.5361 12.689C20.5159 13.9769 21.7623 14.6922 22.6944 15.1216C23.6472 15.5603 23.971 15.8467 23.971 16.2378C23.9613 16.8385 23.2012 17.1154 22.4921 17.1154C21.509 17.1154 20.9822 16.9727 20.1816 16.6385L19.8573 16.4952L19.5127 18.508C20.0903 18.7557 21.1544 18.9755 22.2592 18.9852C24.8431 18.9852 26.5254 17.7832 26.5453 15.9231C26.5551 14.9024 25.897 14.1203 24.4782 13.4812C23.6169 13.0709 23.0894 12.7943 23.0894 12.3745C23.0995 11.9929 23.5355 11.602 24.5078 11.602C25.3084 11.5829 25.8966 11.7641 26.3422 11.9454L26.5649 12.0406L26.8999 10.1044Z" fill="#00579F"/>
<path id="path13" d="M30.1733 15.6747C30.3762 15.1595 31.1565 13.1659 31.1565 13.1659C31.1463 13.1851 31.3589 12.6413 31.4805 12.3075L31.6526 13.0801C31.6526 13.0801 32.119 15.2264 32.2202 15.6747C31.8354 15.6747 30.6598 15.6747 30.1733 15.6747ZM33.2131 9.88477H31.3083C30.7209 9.88477 30.2746 10.0468 30.0212 10.6287L26.3633 18.851H28.9472C28.9472 18.851 29.3726 17.7443 29.4641 17.506C29.7475 17.506 32.2612 17.506 32.6259 17.506C32.6966 17.8208 32.9197 18.851 32.9197 18.851H35.1998L33.2131 9.88477Z" fill="#00579F"/>
<path id="path15" d="M13.453 9.88477L11.0413 15.999L10.7778 14.7589C10.3319 13.3281 8.93354 11.7735 7.37305 11.0006L9.58209 18.8416H12.1862L16.057 9.88477H13.453Z" fill="#00579F"/>
<path id="path17" d="M8.80244 9.88477H4.84034L4.7998 10.0659C7.89049 10.81 9.9374 12.6035 10.7784 14.7593L9.91706 10.6385C9.77526 10.0658 9.33948 9.90366 8.80244 9.88477Z" fill="#FAA61A"/>
</g>
</g>
</g>
</svg>
