<svg width="22" height="22" viewBox="0 0 22 22" fill="none" xmlns="http://www.w3.org/2000/svg">
<g clip-path="url(#clip0_75_189)">
<path d="M21.4951 11.8535C21.4951 6.05452 16.7941 1.35352 10.9951 1.35352C5.19612 1.35352 0.495117 6.05452 0.495117 11.8535C0.495117 17.0943 4.33479 21.4383 9.35449 22.226V14.8887H6.68848V11.8535H9.35449V9.54024C9.35449 6.90867 10.9221 5.45508 13.3205 5.45508C14.4689 5.45508 15.6709 5.66016 15.6709 5.66016V8.24414H14.3469C13.0426 8.24414 12.6357 9.05358 12.6357 9.88477V11.8535H15.5479L15.0823 14.8887H12.6357V22.226C17.6554 21.4383 21.4951 17.0943 21.4951 11.8535Z" fill="white"/>
</g>
<defs>
<clipPath id="clip0_75_189">
<rect width="21" height="21" fill="white" transform="translate(0.495117 0.926758)"/>
</clipPath>
</defs>
</svg>
