<svg width="21" height="21" viewBox="0 0 21 21" fill="none" xmlns="http://www.w3.org/2000/svg">
<g id="icon" clip-path="url(#clip0_75_191)">
<path id="Union" fill-rule="evenodd" clip-rule="evenodd" d="M14.5314 6.80976C13.4989 5.82501 12.121 5.28854 10.6953 5.31059C8.08646 5.31059 5.87078 7.07063 5.08076 9.44063C4.66188 10.6826 4.66187 12.0275 5.08076 13.2694H5.08443C5.87811 15.6358 8.09012 17.3959 10.699 17.3959C12.0457 17.3959 13.2018 17.0514 14.0979 16.443V16.4405C15.1524 15.7424 15.8726 14.6437 16.0968 13.4018H10.6953V9.55093H20.1276C20.2452 10.2197 20.3003 10.9031 20.3003 11.5829C20.3003 14.6244 19.2133 17.1959 17.322 18.9376L17.324 18.9391C15.6668 20.4677 13.3923 21.3532 10.6953 21.3532C6.9143 21.3532 3.45665 19.222 1.75905 15.8452C0.340729 13.0196 0.340732 9.69054 1.75906 6.8649C3.45666 3.48442 6.9143 1.35321 10.6953 1.35321C13.1792 1.32382 15.5786 2.25713 17.3865 3.95472L14.5314 6.80976Z" fill="white"/>
</g>
<defs>
<clipPath id="clip0_75_191">
<rect width="20" height="20" fill="white" transform="translate(0.495117 0.926758)"/>
</clipPath>
</defs>
</svg>
