<svg width="21" height="21" viewBox="0 0 21 21" fill="none" xmlns="http://www.w3.org/2000/svg">
<g id="Vector">
<path d="M10.5057 2.72988C13.1778 2.72988 13.4943 2.7416 14.5452 2.78847C15.5218 2.83145 16.0492 2.99552 16.4008 3.13225C16.8657 3.31196 17.2016 3.53073 17.5493 3.87841C17.9009 4.23 18.1158 4.56206 18.2955 5.02695C18.4322 5.37854 18.5963 5.90984 18.6393 6.88258C18.6861 7.93736 18.6979 8.25379 18.6979 10.922C18.6979 13.5941 18.6861 13.9105 18.6393 14.9614C18.5963 15.938 18.4322 16.4654 18.2955 16.817C18.1158 17.2819 17.897 17.6179 17.5493 17.9656C17.1977 18.3172 16.8657 18.532 16.4008 18.7117C16.0492 18.8485 15.5179 19.0125 14.5452 19.0555C13.4904 19.1024 13.1739 19.1141 10.5057 19.1141C7.83364 19.1141 7.5172 19.1024 6.46633 19.0555C5.48969 19.0125 4.9623 18.8485 4.6107 18.7117C4.14582 18.532 3.80985 18.3132 3.46217 17.9656C3.11058 17.614 2.89571 17.2819 2.71601 16.817C2.57928 16.4654 2.4152 15.9341 2.37223 14.9614C2.32535 13.9066 2.31363 13.5902 2.31363 10.922C2.31363 8.24988 2.32535 7.93345 2.37223 6.88258C2.4152 5.90593 2.57928 5.37854 2.71601 5.02695C2.89571 4.56206 3.11448 4.2261 3.46217 3.87841C3.81376 3.52682 4.14582 3.31196 4.6107 3.13225C4.9623 2.99552 5.49359 2.83145 6.46633 2.78847C7.5172 2.7416 7.83364 2.72988 10.5057 2.72988ZM10.5057 0.92894C7.79067 0.92894 7.45079 0.94066 6.38429 0.987539C5.3217 1.03442 4.59117 1.20631 3.9583 1.45242C3.29809 1.71026 2.73945 2.05013 2.18471 2.60877C1.62607 3.16351 1.2862 3.72215 1.02837 4.37846C0.78225 5.01523 0.610361 5.74185 0.563482 6.80445C0.516603 7.87485 0.504883 8.21472 0.504883 10.9298C0.504883 13.6449 0.516603 13.9848 0.563482 15.0512C0.610361 16.1138 0.78225 16.8444 1.02837 17.4772C1.2862 18.1375 1.62607 18.6961 2.18471 19.2508C2.73945 19.8056 3.29809 20.1493 3.9544 20.4033C4.59117 20.6494 5.3178 20.8213 6.38039 20.8682C7.44689 20.915 7.78676 20.9268 10.5018 20.9268C13.2169 20.9268 13.5568 20.915 14.6233 20.8682C15.6859 20.8213 16.4164 20.6494 17.0493 20.4033C17.7056 20.1493 18.2642 19.8056 18.819 19.2508C19.3737 18.6961 19.7175 18.1375 19.9714 17.4811C20.2175 16.8444 20.3894 16.1177 20.4363 15.0552C20.4832 13.9887 20.4949 13.6488 20.4949 10.9337C20.4949 8.21863 20.4832 7.87876 20.4363 6.81226C20.3894 5.74967 20.2175 5.01914 19.9714 4.38627C19.7253 3.72215 19.3854 3.16351 18.8268 2.60877C18.272 2.05404 17.7134 1.71026 17.0571 1.45633C16.4203 1.21021 15.6937 1.03832 14.6311 0.991445C13.5607 0.94066 13.2208 0.92894 10.5057 0.92894Z" fill="white"/>
<path d="M10.5057 5.79264C7.66956 5.79264 5.36858 8.09362 5.36858 10.9298C5.36858 13.766 7.66956 16.067 10.5057 16.067C13.3419 16.067 15.6429 13.766 15.6429 10.9298C15.6429 8.09362 13.3419 5.79264 10.5057 5.79264ZM10.5057 14.2621C8.66574 14.2621 7.17342 12.7698 7.17342 10.9298C7.17342 9.0898 8.66574 7.59748 10.5057 7.59748C12.3457 7.59748 13.8381 9.0898 13.8381 10.9298C13.8381 12.7698 12.3457 14.2621 10.5057 14.2621Z" fill="white"/>
<path d="M17.0454 5.58941C17.0454 6.25353 16.5063 6.78874 15.846 6.78874C15.1819 6.78874 14.6467 6.24963 14.6467 5.58941C14.6467 4.92529 15.1858 4.39009 15.846 4.39009C16.5063 4.39009 17.0454 4.9292 17.0454 5.58941Z" fill="white"/>
</g>
</svg>
