<svg width="22" height="23" viewBox="0 0 22 23" fill="none" xmlns="http://www.w3.org/2000/svg">
<g id="United States Container" clip-path="url(#clip0_75_76)">
<path id="United States Icon" d="M10.5 22.9082C16.5751 22.9082 21.5 17.9833 21.5 11.9082C21.5 5.83307 16.5751 0.908203 10.5 0.908203C4.42487 0.908203 -0.5 5.83307 -0.5 11.9082C-0.5 17.9833 4.42487 22.9082 10.5 22.9082Z" fill="#F0F0F0"/>
<g id="United States Icon Container">
<path id="United States Icon_2" d="M10.0215 11.9074H21.4997C21.4997 10.9146 21.3674 9.95278 21.1208 9.03784H10.0215V11.9074Z" fill="#D80027"/>
<path id="United States Icon_3" d="M10.0215 6.16841H19.8852C19.2119 5.06961 18.3509 4.09839 17.3471 3.29883H10.0215V6.16841Z" fill="#D80027"/>
<path id="United States Icon_4" d="M10.4997 22.9079C13.0885 22.9079 15.468 22.0131 17.347 20.5166H3.65234C5.53137 22.0131 7.91085 22.9079 10.4997 22.9079Z" fill="#D80027"/>
<path id="United States Icon_5" d="M1.11447 17.6469H19.8855C20.426 16.7648 20.8453 15.8006 21.121 14.7773H-0.121094C0.154637 15.8006 0.573883 16.7648 1.11447 17.6469Z" fill="#D80027"/>
</g>
<path id="United States Icon_6" d="M4.59541 2.62601H5.59782L4.6654 3.30341L5.02157 4.3995L4.08919 3.7221L3.15681 4.3995L3.46447 3.4526C2.64351 4.13645 1.92395 4.93764 1.33098 5.83036H1.65218L1.05865 6.26155C0.96618 6.41581 0.877492 6.57252 0.7925 6.73154L1.07592 7.60385L0.547148 7.21967C0.415707 7.49815 0.29548 7.7829 0.187414 8.07359L0.499668 9.03471H1.65218L0.719754 9.71211L1.07592 10.8082L0.143543 10.1308L-0.414965 10.5366C-0.470867 10.986 -0.5 11.4437 -0.5 11.9082H10.5C10.5 5.83311 10.5 5.11691 10.5 0.908203C8.32698 0.908203 6.30131 1.53855 4.59541 2.62601ZM5.02157 10.8082L4.08919 10.1308L3.15681 10.8082L3.51298 9.71211L2.58056 9.03471H3.73307L4.08919 7.93862L4.44532 9.03471H5.59782L4.6654 9.71211L5.02157 10.8082ZM4.6654 6.50776L5.02157 7.60385L4.08919 6.92645L3.15681 7.60385L3.51298 6.50776L2.58056 5.83036H3.73307L4.08919 4.73427L4.44532 5.83036H5.59782L4.6654 6.50776ZM8.96722 10.8082L8.03484 10.1308L7.10246 10.8082L7.45863 9.71211L6.52621 9.03471H7.67871L8.03484 7.93862L8.39097 9.03471H9.54347L8.61105 9.71211L8.96722 10.8082ZM8.61105 6.50776L8.96722 7.60385L8.03484 6.92645L7.10246 7.60385L7.45863 6.50776L6.52621 5.83036H7.67871L8.03484 4.73427L8.39097 5.83036H9.54347L8.61105 6.50776ZM8.61105 3.30341L8.96722 4.3995L8.03484 3.7221L7.10246 4.3995L7.45863 3.30341L6.52621 2.62601H7.67871L8.03484 1.52992L8.39097 2.62601H9.54347L8.61105 3.30341Z" fill="#0052B4"/>
</g>
<defs>
<clipPath id="clip0_75_76">
<rect width="22" height="22" fill="white" transform="translate(0 0.920898)"/>
</clipPath>
</defs>
</svg>
