<svg width="120" height="56" viewBox="0 0 120 56" fill="none" xmlns="http://www.w3.org/2000/svg">
<rect width="120" height="56" fill="#A9A9A9"/>
<path d="M-1435 -991C-1435 -992.104 -1434.1 -993 -1433 -993H4188C4189.1 -993 4190 -992.105 4190 -991V5442C4190 5443.1 4189.1 5444 4188 5444H-1433C-1434.1 5444 -1435 5443.1 -1435 5442V-991Z" fill="#FFABAB"/>
<path d="M-1433 -992H4188V-994H-1433V-992ZM4189 -991V5442H4191V-991H4189ZM4188 5443H-1433V5445H4188V5443ZM-1434 5442V-991H-1436V5442H-1434ZM-1433 5443C-1433.55 5443 -1434 5442.55 -1434 5442H-1436C-1436 5443.66 -1434.66 5445 -1433 5445V5443ZM4189 5442C4189 5442.55 4188.55 5443 4188 5443V5445C4189.66 5445 4191 5443.66 4191 5442H4189ZM4188 -992C4188.55 -992 4189 -991.552 4189 -991H4191C4191 -992.657 4189.66 -994 4188 -994V-992ZM-1433 -994C-1434.66 -994 -1436 -992.657 -1436 -991H-1434C-1434 -991.552 -1433.55 -992 -1433 -992V-994Z" fill="black" fill-opacity="0.1"/>
<rect width="1399" height="3608.43" transform="translate(-140 -10)" fill="white"/>
<g clip-path="url(#clip0_0_1)">
<path d="M59.5271 23.3252C45.8602 23.5063 39.9528 24.7625 35.7842 25.9735C35.8578 26.1886 35.9031 26.4036 35.9031 26.613V26.7771C35.8352 27.7504 35.7785 28.6728 35.7275 29.5499C36.0957 29.4254 36.4808 29.2896 36.8943 29.1482C40.9043 27.7504 47.2761 25.5321 58.4679 24.8984C58.7624 24.208 59.1136 23.6874 59.5271 23.3252Z" fill="#0B284C"/>
<path d="M32.6295 11.5155C31.7799 9.46701 30.1997 8.42578 27.9455 8.42578C26.9203 8.42578 25.9348 8.66345 25.0173 9.13314C23.4257 9.94235 22.5025 11.1194 22.2646 12.6869V12.8057C22.2646 12.9359 22.2873 13.0717 22.3383 13.2301C22.5648 13.847 22.9896 13.9941 23.3295 13.9771C23.3408 13.9771 23.3521 13.9771 23.3634 13.9771C22.9273 14.3959 22.6894 15.256 22.6441 16.5745V16.5859C22.6441 18.1477 23.0066 19.4719 23.7259 20.5188C24.5812 21.7524 25.7309 22.3805 27.1469 22.3805C28.7837 22.3579 30.2054 21.6222 31.3778 20.1792C32.5899 18.623 33.2072 16.733 33.2072 14.5543C33.2072 13.4395 33.009 12.4209 32.6238 11.5268L32.6295 11.5155ZM24.3263 12.9359C24.3999 12.6643 24.5019 12.3926 24.6265 12.1493C25.1249 11.2552 25.8442 10.8195 26.8241 10.8195C27.5207 10.8195 28.1267 11.0628 28.6648 11.5664C29.5823 12.4492 30.0524 13.8074 30.0524 15.6069C30.0524 16.5066 29.8995 17.3555 29.5993 18.1251C29.0499 19.5511 28.2117 20.2415 27.0336 20.2415C26.8807 20.2415 26.7278 20.2019 26.5635 20.1226C25.9008 19.8171 25.578 19.2172 25.578 18.2892C25.578 17.7855 25.663 17.1857 25.8272 16.5236C25.8782 16.3765 25.9008 16.1614 25.9008 15.8728C25.9008 15.5446 25.8215 15.1994 25.663 14.8316C25.2778 14.0677 24.7284 13.6772 23.9978 13.6772C23.9978 13.6772 23.9525 13.6829 23.9298 13.6885C24.0941 13.5188 24.2243 13.2698 24.3376 12.9415L24.3263 12.9359Z" fill="#0B284C"/>
<path d="M40.632 21.5205C40.6093 21.4299 40.5867 21.2771 40.5527 21.0847C40.2978 19.5682 40.1222 18.94 39.6748 18.94C39.5842 18.94 39.4992 18.957 39.4143 18.9796C39.1027 19.0758 38.9215 19.4833 38.661 20.151C38.5647 20.3887 38.4287 20.7395 38.3381 20.8584C38.2305 20.8584 38.1455 20.8471 38.0832 20.8357C37.8793 20.7905 37.2167 20.2699 37.2167 15.4259C37.2167 14.645 37.2507 13.5188 37.3243 12.0702C38.0096 11.9457 39.335 11.6118 39.3689 10.5593C39.3689 10.4291 39.3463 10.2933 39.301 10.1688C39.1084 9.40485 38.678 9.2464 38.3494 9.2464C38.2475 9.2464 38.1342 9.2747 38.0096 9.33694C37.8001 9.45012 37.6131 9.54632 37.4602 9.62555C37.6301 7.27712 37.834 5.27389 38.0889 3.67243L38.1229 3.60452C38.1569 3.50832 38.1682 3.45174 38.1682 3.40081C38.1682 3.25368 38.1229 3.10654 38.0436 2.96507C37.7547 2.46144 37.2167 2.20679 36.4237 2.20679C35.6421 2.27469 35.1437 2.57461 34.9455 3.09523L34.9285 3.16313C34.6283 5.55683 34.0732 13.6603 34.0732 14.2205C34.0732 19.7719 35.0531 22.6579 37.0807 23.0427C37.5508 23.1219 37.9813 23.1672 38.3664 23.1672C38.6723 23.1672 39.1481 23.1276 39.8334 23.0483C39.8787 23.0483 39.9353 23.0314 40.0429 22.9974C40.3375 22.8673 40.683 22.5673 40.683 21.8543C40.683 21.7581 40.6716 21.6563 40.649 21.5261L40.632 21.5205Z" fill="#0B284C"/>
<path d="M46.2168 42.3512C45.9903 41.6778 45.5598 41.5363 45.2426 41.5363C45.0331 41.5363 44.7839 41.6608 44.4497 41.9437C44.3987 41.9947 44.3421 42.0456 44.2571 42.1078C44.0419 42.3002 43.8323 42.4983 43.6171 42.702C42.7732 43.4943 41.901 44.3148 41.193 44.3148C39.8676 44.2978 39.3805 42.1588 39.3635 40.1668C39.3635 38.7804 39.6241 37.4563 40.1338 36.2453L40.3547 35.7303C40.8531 34.5589 41.2779 33.5516 41.8783 33.5516C42.6203 33.6139 42.8412 33.7384 42.9035 33.812C43.2546 34.2024 43.4698 34.9437 43.6624 35.6001C43.7304 35.8265 43.7927 36.0415 43.855 36.2283L43.8776 36.2792C44.1212 36.698 44.427 36.9243 44.8008 36.947C44.8858 36.947 44.9764 36.9356 45.1237 36.896C45.4409 36.7546 45.8203 36.4377 45.8203 35.7246C45.8203 35.5322 45.792 35.3738 45.7524 35.2606C45.5655 34.6381 45.2596 34.0609 44.8462 33.5403C43.8493 32.3406 42.558 31.7295 40.9947 31.7295C39.7997 31.7521 38.7179 32.4765 37.7833 33.8912C36.6789 35.6171 36.1182 37.7335 36.1182 40.1725C36.1182 41.3665 36.3051 42.4134 36.6732 43.2905C37.4265 45.0674 38.8142 45.9672 40.7965 45.9672C41.227 45.9672 41.6801 45.9162 42.1558 45.8144C43.7644 45.4692 45.067 44.6996 46.0526 43.5056C46.1772 43.3132 46.2508 43.0698 46.2734 42.7643C46.2734 42.6511 46.2621 42.5266 46.2281 42.3512H46.2168Z" fill="#0B284C"/>
<path d="M57.0692 42.322C56.8426 41.6486 56.4121 41.5071 56.095 41.5071C55.8854 41.5071 55.6362 41.6316 55.302 41.9146C55.2511 41.9655 55.1944 42.0164 55.1095 42.0787C54.8206 42.3333 54.5374 42.6219 54.2486 42.9105C53.4783 43.6801 52.6853 44.478 52.0453 44.478C50.8956 44.4611 50.3178 42.5936 50.2272 40.647C51.4223 40.8224 52.4928 40.7602 53.4669 40.4659C55.5966 39.7982 56.6727 38.1911 56.6727 35.6898C56.6727 34.8467 56.4235 34.094 55.9364 33.4603C55.1548 32.4077 53.9993 31.8701 52.4928 31.8701C51.0938 31.8928 49.8931 32.4813 48.9189 33.6244C47.6219 35.2032 46.9648 37.4045 46.9648 40.166C46.9648 41.2978 47.1291 42.2994 47.4576 43.1595C48.2109 44.9987 49.6155 45.9267 51.6432 45.9267C52.0736 45.9267 52.5324 45.8758 53.0025 45.7739C54.611 45.4287 55.9137 44.6648 56.8992 43.4651C57.0238 43.2727 57.0975 43.0294 57.1201 42.7238C57.1201 42.6106 57.1088 42.4861 57.0748 42.3107L57.0692 42.322ZM50.4028 38.1401C50.5104 37.6082 50.6577 37.0932 50.8389 36.6236C50.9295 36.4029 51.0088 36.1878 51.0938 35.9728C51.6205 34.6033 52.0793 33.4263 53.0252 33.4263C53.6822 33.4433 54.6394 34.6769 54.6564 35.8087C54.6394 37.4894 53.8181 39.204 52.034 39.2379C51.932 39.2379 51.6432 38.9946 51.4506 38.8362C51.1391 38.5759 50.7936 38.2816 50.4028 38.1401Z" fill="#0B284C"/>
<path d="M61.4471 37.2524V36.6413C61.6341 36.2565 61.838 35.8151 62.0418 35.3341C63.5258 31.8765 64.2791 29.0471 64.2791 26.9137C64.2564 24.769 63.1916 23.6146 61.1923 23.5693C61.079 23.5693 60.9544 23.5807 60.7958 23.6089C58.9777 24.0673 58.1338 27.7003 58.1338 35.0512C58.1338 43.1037 59.057 46.8612 61.0393 46.8838C61.147 46.8838 61.2772 46.8612 61.4528 46.7989C61.9852 46.5556 62.2684 46.1199 62.2684 45.537C62.2684 45.3729 62.2118 45.1805 62.0985 44.9485C61.6624 43.9695 61.4471 41.3834 61.4471 37.2524ZM61.5944 31.6445C61.6001 31.5144 61.6114 31.3842 61.6227 31.2597C61.821 27.5192 62.0135 26.3365 62.1211 25.9687C62.2231 26.0932 62.2854 26.3705 62.2967 26.7666C62.2967 28.3228 62.0645 29.9582 61.6001 31.6445H61.5944Z" fill="#0B284C"/>
<path d="M75.8271 34.5644C75.8497 34.5192 75.8667 34.4626 75.8667 34.4003C75.8667 34.2871 75.8384 34.1626 75.7874 34.0325C75.5666 33.4666 75.0285 33.178 74.1846 33.178C73.4936 33.2176 73.0065 33.4723 72.746 33.9137C71.7548 32.9347 70.5937 32.431 69.274 32.4141C67.892 32.4367 66.646 33.1441 65.5755 34.5305C64.3635 36.1036 63.7461 37.988 63.7461 40.1214C63.7461 41.3154 63.95 42.4019 64.3578 43.3583C65.1337 45.1125 66.3515 46.001 67.977 46.001H68.3565C69.8404 45.8708 71.1544 45.1521 72.2759 43.8619C72.3268 44.1732 72.3948 44.5806 72.4798 45.0673C72.5704 45.4747 72.8932 45.967 73.9354 45.9953C74.1562 45.9953 74.3828 45.9614 74.598 45.8991C75.5269 45.6614 75.7251 45.1521 75.7251 44.773C75.7251 44.6711 75.7138 44.5693 75.6798 44.4448C75.34 43.4771 75.1644 42.3623 75.1644 41.123C75.1644 40.0422 75.323 38.3615 75.6345 36.1206C75.7308 35.4246 75.7931 34.904 75.8384 34.5701L75.8271 34.5644ZM72.055 40.0535C71.313 43.7148 69.7215 44.1675 69.1041 44.1675C68.9002 44.1675 68.6906 44.1336 68.4811 44.0656C67.5749 43.777 67.0141 42.2605 67.0141 40.1158V39.6517C67.0028 38.5143 66.9858 37.0939 67.4842 36.1885C68.1299 35.0171 69.3476 34.157 70.1746 34.2532C72.0153 34.4626 72.4798 37.9371 72.0493 40.0535H72.055Z" fill="#0B284C"/>
<path d="M119.626 32.3798C118.521 28.9505 115.282 26.8511 109.148 25.7363C108.593 26.2908 107.721 26.6021 106.661 26.6021C105.851 26.6021 105.025 26.421 104.266 26.0758C103.631 25.7872 103.104 25.408 102.668 24.9667C92.8586 24.2933 84.5554 23.8519 77.4869 23.5916L78.58 23.7726C79.0048 23.8575 79.4692 24.1914 79.5655 24.6611C79.5939 24.8082 79.6165 25.1364 79.3333 25.4477C84.7536 25.957 90.8196 26.7662 97.6049 27.9489C97.6445 27.598 97.6785 27.2528 97.7238 26.9133L97.7521 26.7775C97.9277 26.1663 98.4601 25.21 100.142 25.1647C101.796 25.1647 102.397 26.0192 102.606 26.5342C102.702 26.7775 102.753 27.0095 102.753 27.2359V27.4226C102.725 27.8414 102.685 28.3959 102.629 29.058C107.313 30.4274 109.204 32.2609 110.671 34.847C112.773 38.5649 112.931 42.3167 111.119 45.695C109.233 49.2148 105.268 51.0144 102.278 51.9028C97.0158 53.4703 91.1764 53.2666 89.0242 52.0895C87.3703 51.1898 87.6818 49.2035 88.1519 46.1987C88.2709 45.4178 88.4125 44.5406 88.5257 43.6069L88.5371 43.5277C88.741 42.1696 88.8429 40.8115 88.8429 39.459C88.8429 38.6102 88.8033 37.7896 88.724 37.0144C88.3898 33.9303 87.5516 32.4307 86.1639 32.4307C85.5239 32.4533 84.7253 32.8721 83.7228 33.7039C82.3748 34.83 81.2534 36.2278 80.3698 37.8632C80.4378 37.3086 80.5171 36.6748 80.619 35.9562C80.6983 35.311 80.7549 34.83 80.8003 34.4792V34.3604C80.8003 34.2302 80.7719 34.0944 80.721 33.9586C80.4944 33.4153 79.9733 33.138 79.1464 33.138C78.3648 33.1833 77.8437 33.5002 77.5889 34.1283C77.232 35.8486 77.0508 38.0386 77.0508 40.636C77.0508 42.1413 77.1924 43.6239 77.4699 45.0612C77.5605 45.4517 77.8834 45.9271 78.9255 45.961C79.1238 45.961 79.322 45.9384 79.5259 45.8931C80.4831 45.6554 80.6813 45.1461 80.6813 44.7613C80.6813 44.6764 80.67 44.5859 80.653 44.4954C80.653 44.2577 80.6756 43.9917 80.7096 43.7031C80.9192 41.7904 81.6442 39.7532 82.8562 37.6538C83.8078 36.0014 85.3653 34.7338 85.6938 34.7338C86.3282 34.7508 86.4698 36.9182 86.5207 37.733C86.6114 39.1138 86.2942 40.0079 85.9317 41.0435C85.6825 41.7565 85.2577 43.8106 85.0651 44.7444C83.8361 50.7937 86.753 53.3515 89.296 54.7379C90.6327 55.4679 92.2469 55.8357 94.0876 55.8357C99.1851 55.8357 106.078 52.8592 111.657 48.2472C118.131 42.8996 121.11 36.9634 119.632 32.3741L119.626 32.3798Z" fill="#0B284C"/>
<path d="M103.971 46.1366C103.886 45.9329 103.671 45.814 103.45 45.8536C103.156 45.9046 102.929 45.9216 102.765 45.9046H102.736C101.927 45.9046 101.734 45.1972 101.536 44.122C101.496 43.89 101.451 43.6693 101.405 43.5052C101.247 42.1924 101.168 40.7041 101.168 39.0857C101.168 37.173 101.326 34.2473 101.638 30.388C101.757 29.0299 101.836 28.0339 101.876 27.3888V27.2417C101.876 27.1285 101.847 27.004 101.796 26.8682C101.57 26.3193 101.026 26.042 100.171 26.042C99.1002 26.0703 98.7321 26.5683 98.6018 27.0266C98.33 29.1996 98.1544 31.5707 98.0807 34.0889C97.1575 33.4211 96.1097 33.0759 94.9543 33.059C93.6006 33.0816 92.4112 33.8456 91.4201 35.3395C90.3553 36.9692 89.8115 38.9046 89.8115 41.0945C89.8115 42.0622 89.9475 42.9563 90.208 43.7485C90.8763 45.6952 92.1507 46.6798 93.9858 46.6798C94.235 46.6798 94.4955 46.6572 94.7731 46.6176C96.0984 46.3969 97.2651 45.7235 98.2563 44.6144C98.2507 45.7348 98.7038 46.6402 99.5477 47.1552C100.035 47.4494 100.601 47.5966 101.196 47.5966C102.057 47.5966 102.986 47.291 103.818 46.7025C103.999 46.578 104.062 46.346 103.977 46.1422L103.971 46.1366ZM98.0921 40.6192C97.9165 41.3831 97.571 42.4696 97.2595 43.0242C96.6081 44.1616 95.8662 44.7388 95.0562 44.7388C94.8297 44.7388 94.6145 44.7049 94.4049 44.6313C93.544 44.3597 93.0229 43.0412 93.0229 41.1115C93.0229 39.8836 93.2891 38.6952 93.8215 37.5804C94.4219 36.3128 95.0846 35.1358 95.8775 35.0056C95.8832 35.0169 95.8888 35.0283 95.8945 35.0396C96.0871 35.3734 96.2796 35.679 96.5288 35.8205C97.3218 36.2392 97.8259 36.6637 98.0298 37.0768V37.0994C98.0298 38.6273 98.0468 39.81 98.0864 40.6079L98.0921 40.6192Z" fill="#0B284C"/>
<path d="M37.9812 46.5444C37.9189 46.4369 37.8283 46.3633 37.7093 46.335C37.4091 46.2558 37.041 46.4765 36.6162 46.7255C36.4123 46.85 36.0668 47.0537 35.9309 47.0537C34.951 47.0537 34.7924 45.7182 34.7131 44.3544L34.7018 44.1394C34.7018 44.0375 34.6905 43.9357 34.6678 43.8564C34.4696 42.6568 34.4809 41.5307 34.4923 39.8217C34.4923 39.3577 34.4979 38.8484 34.4979 38.2825C34.4979 35.9623 34.6735 32.086 35.0303 26.7045V26.6139C35.0303 26.4838 35.002 26.3479 34.951 26.2121C34.7245 25.6632 34.1807 25.3973 33.3538 25.3916C32.6288 25.4821 32.1191 25.799 31.8416 26.3366L31.8189 26.4045C31.3035 28.6341 31.043 31.4805 31.043 34.8645C31.043 37.6204 31.2242 40.812 31.5867 44.3318C31.632 46.4539 32.7761 48.1119 34.6395 48.7683C35.1323 48.9438 35.6364 49.023 36.1008 49.023C36.8881 49.023 37.5791 48.7853 37.9585 48.3383C38.1907 48.061 38.5023 47.4668 37.9812 46.5444Z" fill="#0B284C"/>
<path d="M28.3248 29.1992C25.3796 29.5387 24.4394 29.0973 23.1311 28.0844C21.0128 26.449 20.8825 23.4271 20.8825 21.7408C20.8825 21.5201 20.8995 21.09 20.9165 20.858C21.0751 16.0706 21.1544 13.3714 21.1544 12.6018C21.1544 4.97362 20.2029 1.40854 18.1639 1.38591H18.1525C17.0594 1.40854 16.0229 2.57427 14.9751 4.95665C14.7033 5.67532 14.4484 6.48454 14.2162 7.37863C13.6554 3.27596 12.7549 1.33498 11.4069 1.29537C10.4271 1.31234 9.53783 2.21776 8.71657 4.05689C8.73923 3.6834 8.75055 3.38348 8.75055 3.17411V3.08356C8.75055 2.96473 8.7279 2.84589 8.68825 2.72706C8.67126 2.529 8.56365 1.84993 7.9123 1.33498C7.1137 0.701186 5.83367 0.565374 4.1062 0.933199C2.26544 1.318 0.928775 2.48938 0.322743 4.22665C-0.25497 5.8847 -0.0454071 7.84832 0.821162 8.88955C0.821162 8.88955 3.31326 10.1854 4.12319 8.8556C4.42904 8.36328 4.2931 7.37298 4.15717 6.32043C4.06655 5.61307 3.95894 4.81517 4.06655 4.5096C4.20248 4.13045 4.72922 3.66643 4.96144 3.71736C5.05772 3.73433 5.21065 3.96635 5.17666 4.66804C4.88781 6.55244 4.74621 8.79335 4.74621 11.3229C4.74621 14.2824 4.63293 19.1094 5.36923 21.5654C5.65809 22.5161 6.76821 22.8499 7.24397 22.8499C7.37424 22.8499 7.50451 22.833 7.63477 22.799C8.78454 22.4934 9.33393 20.9316 9.35659 20.8637L9.57181 20.2356L8.97144 20.5128C8.80719 20.5864 8.67692 20.609 8.60329 20.5751C8.54099 20.5411 8.50701 20.4449 8.49568 20.3827C8.33143 19.1038 8.13886 17.4174 8.20116 15.4029C8.26913 13.2355 8.64294 11.2097 8.9941 9.36489C9.75306 5.28486 10.4327 4.50394 10.7329 4.37378C10.9481 4.7982 11.3616 6.95422 11.5258 16.9987C11.5258 18.3285 11.6051 19.6187 11.9789 20.3035C12.2791 20.858 13.31 21.4126 13.9613 21.2598C15.145 20.9882 15.7114 19.3811 15.7341 19.3132L15.9493 18.685L15.3489 18.9623C15.1564 19.0529 14.9978 19.0811 14.9185 19.0359C14.8618 19.0076 14.8449 18.9227 14.8392 18.9227L14.8335 17.525C14.8505 16.8402 14.8845 16.1272 14.9185 15.3859C15.2073 11.1531 15.7794 7.89925 16.595 5.74888C17.1104 4.78122 17.4219 4.47564 17.5522 4.37944C17.6598 4.67936 17.858 5.79981 17.858 9.91946C17.858 12.3132 17.7787 15.7311 17.6201 20.0771C17.5975 20.8863 17.5918 21.3334 17.5918 21.4126C17.5918 21.4239 17.5918 21.4409 17.5918 21.4522C17.5862 21.871 17.6145 26.2339 20.1859 28.9219C22.1909 31.01 24.7169 31.7117 28.625 31.259C29.2084 31.1911 29.7521 31.1062 30.2675 31.0157C30.3355 30.0706 30.4261 29.1822 30.5451 28.3503C29.8541 28.7521 29.1234 29.086 28.3022 29.1822L28.3248 29.1992Z" fill="#0B284C"/>
<path d="M45.9623 8.42554C44.9371 8.42554 43.9516 8.66321 43.0341 9.13289C41.4425 9.94211 40.5193 11.1192 40.2871 12.6867V12.8055C40.2871 12.9356 40.3098 13.0771 40.3607 13.2299C40.5873 13.8467 41.0347 13.9939 41.3519 13.9769C41.3632 13.9769 41.3746 13.9769 41.3859 13.9769C40.9498 14.3956 40.7119 15.2558 40.6666 16.5743V16.5856C40.6666 18.1475 41.0291 19.4716 41.7484 20.5185C42.6036 21.7521 43.7534 22.3803 45.1694 22.3803C46.8062 22.3576 48.2278 21.622 49.4003 20.179C50.6123 18.6228 51.2297 16.7327 51.2297 14.5541C51.2297 13.4393 51.0314 12.4207 50.6463 11.5266C49.7967 9.47808 48.2222 8.43685 45.9623 8.43685V8.42554ZM42.3431 12.9356C42.4167 12.664 42.5187 12.3924 42.6433 12.1491C43.1417 11.255 43.861 10.8192 44.8408 10.8192C45.5375 10.8192 46.1435 11.0626 46.6816 11.5662C47.5991 12.449 48.0692 13.8071 48.0692 15.6066C48.0692 16.5064 47.9163 17.3552 47.6161 18.1248C47.0667 19.5508 46.2285 20.2412 45.0504 20.2412C44.8975 20.2412 44.7446 20.2016 44.5803 20.1224C43.9176 19.8168 43.5948 19.217 43.5948 18.2889C43.5948 17.7853 43.6798 17.1798 43.844 16.5234C43.895 16.3762 43.9176 16.1612 43.9176 15.8726C43.9176 15.5387 43.8383 15.1935 43.6798 14.8314C43.2946 14.0674 42.7452 13.677 42.0146 13.677C42.0146 13.677 41.9693 13.6826 41.9466 13.6883C42.1109 13.5185 42.2411 13.2695 42.3544 12.9413L42.3431 12.9356Z" fill="#0B284C"/>
<path d="M61.2266 9.0144C60.5186 9.03704 59.7087 9.48409 58.7402 10.3895C57.5678 11.5326 56.5426 12.9643 55.6874 14.6563C55.7553 14.0338 55.8403 13.3208 55.9422 12.5059C56.0215 11.7986 56.0782 11.2779 56.1235 10.9158V10.8252C56.1235 10.6951 56.0952 10.5593 56.0442 10.4235C55.8403 9.92548 55.3929 10.0217 55.07 10.0952C54.9001 10.1292 54.7019 10.1745 54.4696 10.1745C53.688 10.2197 53.167 10.5366 52.9121 11.1648C52.5213 13.0548 52.374 14.6619 52.374 17.1009C52.374 18.5835 52.5156 20.0605 52.7931 21.4922C52.8838 21.8996 53.2066 22.3919 54.2488 22.4202C54.4527 22.4202 54.6679 22.3863 54.8774 22.324C55.8063 22.0864 56.0046 21.5771 56.0046 21.1979C56.0046 21.113 55.9932 21.0225 55.9762 20.932C55.9876 20.5472 56.1461 16.3766 57.4658 14.3564C58.7345 12.4041 59.3236 11.991 59.5728 11.991C59.7993 12.0023 59.8333 12.5965 59.839 12.7719C59.839 13.0209 59.7823 13.3265 59.6747 13.6886C59.2499 14.9958 59.2499 15.1656 59.2499 15.2505C59.2499 15.3523 59.2613 15.4542 59.2839 15.5334C59.4255 16.3483 61.4419 16.4445 61.4815 16.4445C61.7081 16.4162 61.9233 16.2917 62.1782 16.037C62.7106 15.3127 62.9711 14.0734 62.9711 12.24C62.9484 10.1462 62.3707 9.05968 61.2323 9.0144H61.2266Z" fill="#0B284C"/>
<path d="M82.7375 8.42554C81.7123 8.42554 80.7268 8.66321 79.8093 9.13289C78.2177 9.94211 77.2945 11.1192 77.0566 12.6867V12.8055C77.0566 12.9356 77.0793 13.0771 77.1359 13.2299C77.3625 13.8467 77.7816 13.9939 78.1271 13.9769C78.1384 13.9769 78.1498 13.9769 78.1611 13.9769C77.725 14.3956 77.4871 15.2558 77.4418 16.5743V16.5856C77.4418 18.1475 77.8043 19.4716 78.5236 20.5185C79.3788 21.7521 80.5286 22.3803 81.9445 22.3803C83.5814 22.3576 85.003 21.622 86.1754 20.179C87.3875 18.6228 88.0049 16.7327 88.0049 14.5541C88.0049 13.4393 87.8066 12.4207 87.4215 11.5266C86.5719 9.47808 84.9974 8.43685 82.7375 8.43685V8.42554ZM79.1183 12.9356C79.1919 12.664 79.2939 12.3924 79.4128 12.1491C79.9112 11.255 80.6362 10.8192 81.616 10.8192C82.3127 10.8192 82.9187 11.0626 83.4568 11.5662C84.3743 12.449 84.8444 13.8071 84.8444 15.6066C84.8444 16.5064 84.6915 17.3552 84.3913 18.1248C83.8419 19.5508 83.0037 20.2412 81.8256 20.2412C81.6727 20.2412 81.5198 20.2016 81.3555 20.1224C80.6928 19.8168 80.37 19.217 80.37 18.2889C80.37 17.7853 80.4549 17.1798 80.6192 16.5234C80.6702 16.3762 80.6928 16.1612 80.6928 15.8726C80.6928 15.5444 80.6135 15.1992 80.455 14.8314C80.0698 14.0674 79.5204 13.677 78.7898 13.677C78.7898 13.677 78.7445 13.6826 78.7218 13.6883C78.8861 13.5185 79.0163 13.2695 79.1296 12.9413L79.1183 12.9356Z" fill="#0B284C"/>
<path d="M117.066 18.7868C116.84 18.1134 116.409 17.9719 116.092 17.9719C115.883 17.9719 115.633 18.0964 115.305 18.3794C115.254 18.4303 115.197 18.4812 115.112 18.5435C114.858 18.7698 114.603 19.0188 114.348 19.2678C113.549 20.0431 112.717 20.8523 112.048 20.8523C110.825 20.8353 110.315 18.9 110.23 17.1175C111.425 17.2929 112.496 17.225 113.47 16.9364C115.599 16.2686 116.676 14.6615 116.676 12.1603C116.676 11.3171 116.426 10.5645 115.939 9.93071C115.158 8.87817 114.002 8.34058 112.496 8.34058C111.102 8.36321 109.896 8.95173 108.922 10.0948C107.625 11.6736 106.968 13.8749 106.968 16.6365C106.968 17.7682 107.132 18.7698 107.461 19.63C108.214 21.4691 109.618 22.3972 111.646 22.3972C112.077 22.3972 112.535 22.3462 113.005 22.2444C114.614 21.8992 115.917 21.1352 116.902 19.9356C117.027 19.7432 117.1 19.4998 117.123 19.1943C117.123 19.0811 117.112 18.9566 117.078 18.7812L117.066 18.7868ZM110.406 14.5993C110.519 14.0673 110.661 13.558 110.842 13.0884C111.425 11.6453 112.246 9.98164 113.447 9.98164C114.144 9.99862 114.642 11.204 114.659 12.2678C114.642 13.7561 113.946 15.499 112.037 15.5386C111.918 15.5386 111.646 15.3406 111.425 15.1821C111.119 14.9614 110.78 14.7181 110.406 14.5936V14.5993Z" fill="#0B284C"/>
<path d="M77.4646 24.6101C77.2776 24.6328 77.1191 24.6384 77.0001 24.6271H76.9718C76.5866 24.6271 76.2751 24.48 76.0316 24.1914C75.5842 23.6594 75.4992 22.7767 75.6068 22.1881L75.6634 21.8543C75.9466 20.1396 76.0882 18.3231 76.0882 16.4557C76.0882 15.7144 76.0656 14.9844 76.0259 14.2827C75.7541 10.6384 74.9101 8.86718 73.4319 8.86718C72.8485 8.88982 72.1179 9.28028 71.189 10.0555C69.7957 11.2835 68.6176 12.8454 67.6774 14.7241L67.6661 12.4549C70.1978 9.62547 71.4948 6.6093 71.5118 3.49127C71.5118 3.11213 71.5005 2.81787 71.4779 2.60283C71.4156 2.03694 71.172 1.51067 70.7529 1.02967C70.1072 0.344946 69.3539 -0.000244141 68.51 -0.000244141C68.3401 -0.000244141 68.1702 0.0110736 67.9889 0.033709C65.4685 0.4751 64.2451 4.22126 64.2451 11.4816C64.2451 14.8769 64.4037 18.2665 64.7152 21.5487C64.7379 21.8373 64.8058 22.1089 64.9135 22.3466C65.2306 23.0935 65.7913 23.4897 66.5333 23.4897C66.6296 23.4897 66.7372 23.4783 66.8618 23.4501C67.3659 23.3312 67.9663 22.9521 67.9663 21.792C67.9663 21.792 67.9436 21.2601 67.9663 21.0847C68.1532 19.3191 68.9291 16.6538 70.1469 14.3167C71.274 12.0927 71.8517 11.8494 72.0386 11.8494C72.2935 11.8551 72.8882 12.1946 72.9108 15.1598C72.9108 16.3821 72.7635 18.2779 72.469 20.7847C72.3897 21.4581 72.3388 21.9108 72.3218 22.1712V22.273C72.2312 23.7556 72.8202 24.9893 73.9303 25.6683C74.4684 25.9965 75.0801 26.155 75.7144 26.155C76.4111 26.155 77.1304 25.9569 77.7874 25.5665C77.9969 25.442 78.0876 25.1873 78.0083 24.9553C77.929 24.7176 77.6968 24.5762 77.4476 24.6101H77.4646ZM69.3029 2.33686C69.3369 2.39345 69.4332 2.59717 69.4502 3.25926C69.4502 5.30776 68.8838 7.36759 67.7624 9.38214C67.7737 9.15578 67.7907 8.92943 67.802 8.70308C68.1192 3.19701 68.9235 2.39911 69.3029 2.34252V2.33686Z" fill="#0B284C"/>
<path d="M108.633 23.3485C108.412 22.9524 107.744 23.009 106.747 23.1391C106.469 23.1731 106.18 23.2127 106.039 23.2014C105.75 23.2014 105.557 23.1335 105.444 23.0033C105.206 22.7204 105.291 22.0979 105.399 21.5263C105.399 21.5263 105.869 16.5918 105.869 15.4317C105.869 11.165 105.048 9.06553 103.343 9.02026C102.946 9.02026 102.516 9.1391 102.063 9.37677C100.964 9.95397 99.9389 11.0292 99.0043 12.574C98.5795 11.1763 97.8489 10.4633 96.8294 10.4633C96.28 10.4633 95.6853 10.6896 95.0736 11.131C94.0824 11.8327 93.2045 12.8739 92.4569 14.2321C92.5475 13.3832 92.6721 12.3703 92.7967 11.4083C92.8534 10.899 92.5928 10.186 92.1681 9.71064C91.8849 9.39375 91.579 9.21832 91.2222 9.22964C90.231 9.35414 89.1436 14.5716 89.1436 16.7276C89.1436 18.2102 89.2852 19.6872 89.5627 21.1189C89.6533 21.5263 89.9761 22.0187 91.0183 22.047C91.2165 22.047 91.4148 22.0243 91.6187 21.979C92.5758 21.7414 92.7741 21.2321 92.7741 20.8473C92.7741 20.7567 92.7628 20.6718 92.7458 20.5813C92.7514 19.3364 93.1932 17.7519 94.0485 15.8675C95.5267 12.6136 96.0308 12.2798 96.1327 12.2571C96.1497 12.2571 96.5745 12.3024 96.5972 14.3905C96.5972 15.0922 96.1894 17.0841 95.8949 18.5328L95.7816 19.093C95.7419 19.3194 95.7136 19.4665 95.6966 19.5457V19.7042C95.691 19.84 95.7136 19.9758 95.7703 20.106C95.9968 20.6549 96.5179 20.9322 97.3448 20.9322C98.1264 20.8869 98.6475 20.57 98.8967 19.9645C99.1346 19.1892 99.1742 18.2216 99.3498 17.1294C99.5141 16.1165 99.9785 15.1488 100.415 14.1981C101.287 12.2628 102.703 10.6161 103.037 10.5934C103.037 10.5934 103.479 10.6896 103.501 13.4342C103.501 14.3735 103.207 15.7939 102.901 17.2992C102.663 18.4649 102.414 19.6646 102.267 20.8246L102.227 21.0793C102.023 22.975 102.895 24.5086 104.623 25.2895C105.28 25.5894 106.005 25.7309 106.662 25.7309C107.466 25.7309 108.174 25.5158 108.565 25.0914C108.803 24.8311 109.131 24.2596 108.627 23.3598L108.633 23.3485Z" fill="#0B284C"/>
</g>
<defs>
<clipPath id="clip0_0_1">
<rect width="120" height="55.8416" fill="white"/>
</clipPath>
</defs>
</svg>
