<svg width="120" height="56" viewBox="0 0 120 56" fill="none" xmlns="http://www.w3.org/2000/svg">
<g id="Logo" clip-path="url(#clip0_75_167)">
<path id="Vector" d="M59.5271 23.8381C45.8602 24.0192 39.9528 25.2755 35.7842 26.4865C35.8578 26.7015 35.9031 26.9166 35.9031 27.1259V27.29C35.8352 28.2634 35.7785 29.1858 35.7275 30.0629C36.0957 29.9384 36.4808 29.8026 36.8943 29.6611C40.9043 28.2634 47.2761 26.0451 58.4679 25.4113C58.7624 24.7209 59.1136 24.2003 59.5271 23.8381Z" fill="white"/>
<path id="Vector_2" d="M32.6295 12.0276C31.7799 9.9791 30.1997 8.93787 27.9455 8.93787C26.9203 8.93787 25.9348 9.17554 25.0173 9.64522C23.4257 10.4544 22.5025 11.6315 22.2646 13.199V13.3178C22.2646 13.448 22.2873 13.5838 22.3383 13.7422C22.5648 14.359 22.9896 14.5062 23.3295 14.4892C23.3408 14.4892 23.3521 14.4892 23.3634 14.4892C22.9273 14.908 22.6894 15.7681 22.6441 17.0866V17.0979C22.6441 18.6598 23.0066 19.984 23.7259 21.0308C24.5812 22.2645 25.7309 22.8926 27.1469 22.8926C28.7837 22.87 30.2054 22.1343 31.3778 20.6913C32.5899 19.1351 33.2072 17.2451 33.2072 15.0664C33.2072 13.9516 33.009 12.933 32.6238 12.0389L32.6295 12.0276ZM24.3263 13.448C24.3999 13.1763 24.5019 12.9047 24.6265 12.6614C25.1249 11.7673 25.8442 11.3316 26.8241 11.3316C27.5207 11.3316 28.1267 11.5749 28.6648 12.0785C29.5823 12.9613 30.0524 14.3194 30.0524 16.119C30.0524 17.0187 29.8995 17.8675 29.5993 18.6371C29.0499 20.0632 28.2117 20.7536 27.0336 20.7536C26.8807 20.7536 26.7278 20.7139 26.5635 20.6347C25.9008 20.3291 25.578 19.7293 25.578 18.8013C25.578 18.2976 25.663 17.6978 25.8272 17.0357C25.8782 16.8886 25.9008 16.6735 25.9008 16.3849C25.9008 16.0567 25.8215 15.7115 25.663 15.3437C25.2778 14.5797 24.7284 14.1893 23.9978 14.1893C23.9978 14.1893 23.9525 14.1949 23.9298 14.2006C24.0941 14.0308 24.2243 13.7818 24.3376 13.4536L24.3263 13.448Z" fill="white"/>
<path id="Vector_3" d="M40.633 22.0327C40.6103 21.9421 40.5876 21.7893 40.5537 21.5969C40.2988 20.0804 40.1232 19.4522 39.6758 19.4522C39.5851 19.4522 39.5002 19.4692 39.4152 19.4918C39.1037 19.588 38.9225 19.9955 38.6619 20.6632C38.5657 20.9009 38.4297 21.2517 38.3391 21.3706C38.2315 21.3706 38.1465 21.3593 38.0842 21.3479C37.8803 21.3027 37.2177 20.7821 37.2177 15.9381C37.2177 15.1572 37.2516 14.031 37.3253 12.5824C38.0106 12.4579 39.3359 12.124 39.3699 11.0715C39.3699 10.9413 39.3473 10.8055 39.302 10.681C39.1094 9.91706 38.6789 9.75861 38.3504 9.75861C38.2485 9.75861 38.1352 9.7869 38.0106 9.84915C37.801 9.96233 37.6141 10.0585 37.4612 10.1378C37.6311 7.78933 37.835 5.78609 38.0899 4.18464L38.1239 4.11673C38.1579 4.02053 38.1692 3.96394 38.1692 3.91301C38.1692 3.76588 38.1239 3.61875 38.0446 3.47728C37.7557 2.97364 37.2177 2.71899 36.4247 2.71899C35.6431 2.7869 35.1447 3.08682 34.9465 3.60743L34.9295 3.67534C34.6293 6.06904 34.0742 14.1725 34.0742 14.7327C34.0742 20.2841 35.0541 23.1701 37.0817 23.5549C37.5518 23.6341 37.9823 23.6794 38.3674 23.6794C38.6733 23.6794 39.149 23.6398 39.8344 23.5606C39.8797 23.5606 39.9363 23.5436 40.0439 23.5096C40.3384 23.3795 40.6839 23.0796 40.6839 22.3665C40.6839 22.2703 40.6726 22.1685 40.6499 22.0383L40.633 22.0327Z" fill="white"/>
<path id="Vector_4" d="M46.2168 42.8621C45.9903 42.1887 45.5598 42.0473 45.2426 42.0473C45.0331 42.0473 44.7839 42.1718 44.4497 42.4547C44.3987 42.5056 44.3421 42.5566 44.2571 42.6188C44.0419 42.8112 43.8323 43.0093 43.6171 43.213C42.7732 44.0052 41.901 44.8258 41.193 44.8258C39.8676 44.8088 39.3805 42.6698 39.3635 40.6778C39.3635 39.2914 39.6241 37.9672 40.1338 36.7562L40.3547 36.2413C40.8531 35.0699 41.2779 34.0626 41.8783 34.0626C42.6203 34.1249 42.8412 34.2494 42.9035 34.3229C43.2546 34.7134 43.4698 35.4547 43.6624 36.1111C43.7304 36.3375 43.7927 36.5525 43.855 36.7393L43.8776 36.7902C44.1212 37.209 44.427 37.4353 44.8008 37.4579C44.8858 37.4579 44.9764 37.4466 45.1237 37.407C45.4409 37.2655 45.8203 36.9486 45.8203 36.2356C45.8203 36.0432 45.792 35.8848 45.7524 35.7716C45.5655 35.1491 45.2596 34.5719 44.8462 34.0513C43.8493 32.8516 42.558 32.2405 40.9947 32.2405C39.7997 32.2631 38.7179 32.9874 37.7833 34.4022C36.6789 36.1281 36.1182 38.2445 36.1182 40.6835C36.1182 41.8775 36.3051 42.9244 36.6732 43.8015C37.4265 45.5784 38.8142 46.4782 40.7965 46.4782C41.227 46.4782 41.6801 46.4272 42.1558 46.3254C43.7644 45.9802 45.067 45.2106 46.0526 44.0166C46.1772 43.8242 46.2508 43.5808 46.2734 43.2752C46.2734 43.1621 46.2621 43.0376 46.2281 42.8621H46.2168Z" fill="white"/>
<path id="Vector_5" d="M57.0692 42.834C56.8426 42.1606 56.4121 42.0191 56.095 42.0191C55.8854 42.0191 55.6362 42.1436 55.302 42.4265C55.2511 42.4775 55.1944 42.5284 55.1095 42.5907C54.8206 42.8453 54.5374 43.1339 54.2486 43.4225C53.4783 44.1921 52.6853 44.99 52.0453 44.99C50.8956 44.973 50.3178 43.1056 50.2272 41.159C51.4223 41.3344 52.4928 41.2721 53.4669 40.9779C55.5966 40.3101 56.6727 38.703 56.6727 36.2018C56.6727 35.3586 56.4235 34.606 55.9364 33.9722C55.1548 32.9197 53.9993 32.3821 52.4928 32.3821C51.0938 32.4047 49.8931 32.9932 48.9189 34.1363C47.6219 35.7151 46.9648 37.9164 46.9648 40.678C46.9648 41.8097 47.1291 42.8113 47.4576 43.6715C48.2109 45.5106 49.6155 46.4387 51.6432 46.4387C52.0736 46.4387 52.5324 46.3877 53.0025 46.2859C54.611 45.9407 55.9137 45.1767 56.8992 43.9771C57.0238 43.7847 57.0975 43.5413 57.1201 43.2358C57.1201 43.1226 57.1088 42.9981 57.0748 42.8227L57.0692 42.834ZM50.4028 38.6521C50.5104 38.1202 50.6577 37.6052 50.8389 37.1355C50.9295 36.9148 51.0088 36.6998 51.0938 36.4847C51.6205 35.1153 52.0793 33.9383 53.0252 33.9383C53.6822 33.9552 54.6394 35.1889 54.6564 36.3206C54.6394 38.0013 53.8181 39.716 52.034 39.7499C51.932 39.7499 51.6432 39.5066 51.4506 39.3481C51.1391 39.0878 50.7936 38.7936 50.4028 38.6521Z" fill="white"/>
<path id="Vector_6" d="M61.4471 37.7644V37.1533C61.6341 36.7685 61.838 36.3271 62.0418 35.8461C63.5258 32.3885 64.2791 29.5591 64.2791 27.4257C64.2564 25.281 63.1916 24.1266 61.1923 24.0813C61.079 24.0813 60.9544 24.0926 60.7958 24.1209C58.9777 24.5793 58.1338 28.2123 58.1338 35.5631C58.1338 43.6157 59.057 47.3731 61.0393 47.3958C61.147 47.3958 61.2772 47.3731 61.4528 47.3109C61.9852 47.0676 62.2684 46.6318 62.2684 46.049C62.2684 45.8849 62.2118 45.6925 62.0985 45.4605C61.6624 44.4815 61.4471 41.8954 61.4471 37.7644ZM61.5944 32.1565C61.6001 32.0263 61.6114 31.8962 61.6227 31.7717C61.821 28.0312 62.0135 26.8485 62.1211 26.4807C62.2231 26.6051 62.2854 26.8824 62.2967 27.2786C62.2967 28.8347 62.0645 30.4701 61.6001 32.1565H61.5944Z" fill="white"/>
<path id="Vector_7" d="M75.8271 35.0764C75.8497 35.0311 75.8667 34.9745 75.8667 34.9123C75.8667 34.7991 75.8384 34.6746 75.7874 34.5445C75.5666 33.9786 75.0285 33.69 74.1846 33.69C73.4936 33.7296 73.0065 33.9842 72.746 34.4256C71.7548 33.4466 70.5937 32.943 69.274 32.926C67.892 32.9487 66.646 33.656 65.5755 35.0424C64.3635 36.6156 63.7461 38.5 63.7461 40.6334C63.7461 41.8274 63.95 42.9139 64.3578 43.8703C65.1337 45.6245 66.3515 46.5129 67.977 46.5129H68.3565C69.8404 46.3828 71.1544 45.6641 72.2759 44.3739C72.3268 44.6851 72.3948 45.0926 72.4798 45.5792C72.5704 45.9867 72.8932 46.479 73.9354 46.5073C74.1562 46.5073 74.3828 46.4733 74.598 46.4111C75.5269 46.1734 75.7251 45.6641 75.7251 45.285C75.7251 45.1831 75.7138 45.0812 75.6798 44.9568C75.34 43.9891 75.1644 42.8743 75.1644 41.635C75.1644 40.5542 75.323 38.8735 75.6345 36.6326C75.7308 35.9365 75.7931 35.4159 75.8384 35.082L75.8271 35.0764ZM72.055 40.5655C71.313 44.2268 69.7215 44.6795 69.1041 44.6795C68.9002 44.6795 68.6906 44.6455 68.4811 44.5776C67.5749 44.289 67.0141 42.7724 67.0141 40.6277V40.1637C67.0028 39.0263 66.9858 37.6059 67.4842 36.7005C68.1299 35.5291 69.3476 34.669 70.1746 34.7652C72.0153 34.9745 72.4798 38.4491 72.0493 40.5655H72.055Z" fill="white"/>
<path id="Vector_8" d="M119.626 32.8918C118.521 29.4626 115.282 27.3631 109.148 26.2483C108.593 26.8029 107.721 27.1141 106.661 27.1141C105.851 27.1141 105.025 26.9331 104.266 26.5879C103.631 26.2993 103.104 25.9201 102.668 25.4787C92.8586 24.8053 84.5554 24.3639 77.4869 24.1036L78.58 24.2847C79.0048 24.3696 79.4692 24.7035 79.5655 25.1732C79.5939 25.3203 79.6165 25.6485 79.3333 25.9597C84.7536 26.469 90.8196 27.2783 97.6049 28.461C97.6445 28.1101 97.6785 27.7649 97.7238 27.4254L97.7521 27.2896C97.9277 26.6784 98.4601 25.7221 100.142 25.6768C101.796 25.6768 102.397 26.5313 102.606 27.0462C102.702 27.2896 102.753 27.5216 102.753 27.7479V27.9347C102.725 28.3534 102.685 28.908 102.629 29.5701C107.313 30.9395 109.204 32.773 110.671 35.3591C112.773 39.077 112.931 42.8288 111.119 46.2071C109.233 49.7269 105.268 51.5264 102.278 52.4149C97.0158 53.9824 91.1764 53.7787 89.0242 52.6016C87.3703 51.7019 87.6818 49.7156 88.1519 46.7108C88.2709 45.9298 88.4125 45.0527 88.5257 44.119L88.5371 44.0398C88.741 42.6817 88.8429 41.3235 88.8429 39.9711C88.8429 39.1222 88.8033 38.3017 88.724 37.5264C88.3898 34.4424 87.5516 32.9428 86.1639 32.9428C85.5239 32.9654 84.7253 33.3842 83.7228 34.216C82.3748 35.3421 81.2534 36.7399 80.3698 38.3753C80.4378 37.8207 80.5171 37.1869 80.619 36.4682C80.6983 35.8231 80.7549 35.3421 80.8003 34.9913V34.8724C80.8003 34.7423 80.7719 34.6065 80.721 34.4707C80.4944 33.9274 79.9733 33.6501 79.1464 33.6501C78.3648 33.6954 77.8437 34.0123 77.5889 34.6404C77.232 36.3607 77.0508 38.5507 77.0508 41.1481C77.0508 42.6534 77.1924 44.136 77.4699 45.5733C77.5605 45.9638 77.8834 46.4391 78.9255 46.4731C79.1238 46.4731 79.322 46.4505 79.5259 46.4052C80.4831 46.1675 80.6813 45.6582 80.6813 45.2734C80.6813 45.1885 80.67 45.098 80.653 45.0074C80.653 44.7698 80.6756 44.5038 80.7096 44.2152C80.9192 42.3025 81.6442 40.2653 82.8562 38.1659C83.8078 36.5135 85.3653 35.2459 85.6938 35.2459C86.3282 35.2629 86.4698 37.4302 86.5207 38.2451C86.6114 39.6259 86.2942 40.52 85.9317 41.5555C85.6825 42.2686 85.2577 44.3227 85.0651 45.2564C83.8361 51.3058 86.753 53.8636 89.296 55.25C90.6327 55.98 92.2469 56.3478 94.0876 56.3478C99.1851 56.3478 106.078 53.3712 111.657 48.7593C118.131 43.4117 121.11 37.4755 119.632 32.8862L119.626 32.8918Z" fill="white"/>
<path id="Vector_9" d="M103.971 46.6484C103.886 46.4447 103.671 46.3259 103.45 46.3655C103.156 46.4164 102.929 46.4334 102.765 46.4164H102.736C101.927 46.4164 101.734 45.7091 101.536 44.6339C101.496 44.4019 101.451 44.1812 101.405 44.0171C101.247 42.7042 101.168 41.2159 101.168 39.5975C101.168 37.6848 101.326 34.7592 101.638 30.8998C101.757 29.5417 101.836 28.5458 101.876 27.9006V27.7535C101.876 27.6403 101.847 27.5158 101.796 27.38C101.57 26.8311 101.026 26.5538 100.171 26.5538C99.1002 26.5821 98.7321 27.0801 98.6018 27.5385C98.33 29.7115 98.1544 32.0825 98.0807 34.6007C97.1575 33.933 96.1097 33.5878 94.9543 33.5708C93.6006 33.5934 92.4112 34.3574 91.4201 35.8513C90.3553 37.4811 89.8115 39.4164 89.8115 41.6064C89.8115 42.5741 89.9475 43.4681 90.208 44.2604C90.8763 46.207 92.1507 47.1917 93.9858 47.1917C94.235 47.1917 94.4955 47.169 94.7731 47.1294C96.0984 46.9087 97.2651 46.2353 98.2563 45.1262C98.2507 46.2466 98.7038 47.1521 99.5477 47.667C100.035 47.9613 100.601 48.1084 101.196 48.1084C102.057 48.1084 102.986 47.8028 103.818 47.2143C103.999 47.0898 104.062 46.8578 103.977 46.6541L103.971 46.6484ZM98.0921 41.131C97.9165 41.895 97.571 42.9815 97.2595 43.5361C96.6081 44.6735 95.8662 45.2507 95.0562 45.2507C94.8297 45.2507 94.6145 45.2167 94.4049 45.1432C93.544 44.8715 93.0229 43.553 93.0229 41.6234C93.0229 40.3954 93.2891 39.207 93.8215 38.0922C94.4219 36.8247 95.0846 35.6476 95.8775 35.5175C95.8832 35.5288 95.8888 35.5401 95.8945 35.5514C96.0871 35.8853 96.2796 36.1909 96.5288 36.3323C97.3218 36.7511 97.8259 37.1755 98.0298 37.5886V37.6112C98.0298 39.1391 98.0468 40.3218 98.0864 41.1197L98.0921 41.131Z" fill="white"/>
<path id="Vector_10" d="M37.9812 47.0554C37.9189 46.9479 37.8283 46.8743 37.7093 46.846C37.4091 46.7668 37.041 46.9875 36.6162 47.2365C36.4123 47.361 36.0668 47.5647 35.9309 47.5647C34.951 47.5647 34.7924 46.2292 34.7131 44.8654L34.7018 44.6504C34.7018 44.5485 34.6905 44.4467 34.6678 44.3674C34.4696 43.1678 34.4809 42.0416 34.4923 40.3327C34.4923 39.8686 34.4979 39.3593 34.4979 38.7935C34.4979 36.4733 34.6735 32.597 35.0303 27.2154V27.1249C35.0303 26.9947 35.002 26.8589 34.951 26.7231C34.7245 26.1742 34.1807 25.9082 33.3538 25.9026C32.6288 25.9931 32.1191 26.31 31.8416 26.8476L31.8189 26.9155C31.3035 29.1451 31.043 31.9915 31.043 35.3755C31.043 38.1314 31.2242 41.323 31.5867 44.8428C31.632 46.9648 32.7761 48.6229 34.6395 49.2793C35.1323 49.4547 35.6364 49.534 36.1008 49.534C36.8881 49.534 37.5791 49.2963 37.9585 48.8492C38.1907 48.572 38.5023 47.9778 37.9812 47.0554Z" fill="white"/>
<path id="Vector_11" d="M28.3248 29.7111C25.3796 30.0507 24.4394 29.6093 23.1311 28.5963C21.0128 26.9609 20.8825 23.9391 20.8825 22.2528C20.8825 22.0321 20.8995 21.602 20.9165 21.37C21.0751 16.5826 21.1544 13.8833 21.1544 13.1137C21.1544 5.48558 20.2029 1.92051 18.1639 1.89787H18.1525C17.0594 1.92051 16.0229 3.08623 14.9751 5.46861C14.7033 6.18728 14.4484 6.9965 14.2162 7.8906C13.6554 3.78793 12.7549 1.84694 11.4069 1.80733C10.4271 1.82431 9.53783 2.72972 8.71657 4.56885C8.73923 4.19537 8.75055 3.89545 8.75055 3.68607V3.59553C8.75055 3.47669 8.7279 3.35786 8.68825 3.23902C8.67126 3.04096 8.56365 2.3619 7.9123 1.84694C7.1137 1.21315 5.83367 1.07734 4.1062 1.44516C2.26544 1.82996 0.928775 3.00135 0.322743 4.73862C-0.25497 6.39666 -0.0454071 8.36028 0.821162 9.40151C0.821162 9.40151 3.31326 10.6974 4.12319 9.36756C4.42904 8.87524 4.2931 7.88494 4.15717 6.83239C4.06655 6.12504 3.95894 5.32714 4.06655 5.02156C4.20248 4.64241 4.72922 4.17839 4.96144 4.22932C5.05772 4.2463 5.21065 4.47831 5.17666 5.18001C4.88781 7.0644 4.74621 9.30531 4.74621 11.8348C4.74621 14.7944 4.63293 19.6214 5.36923 22.0773C5.65809 23.028 6.76821 23.3619 7.24397 23.3619C7.37424 23.3619 7.50451 23.3449 7.63477 23.311C8.78454 23.0054 9.33393 21.4436 9.35659 21.3756L9.57181 20.7475L8.97144 21.0248C8.80719 21.0984 8.67692 21.121 8.60329 21.087C8.54099 21.0531 8.50701 20.9569 8.49568 20.8946C8.33143 19.6157 8.13886 17.9294 8.20116 15.9149C8.26913 13.7475 8.64294 11.7216 8.9941 9.87685C9.75306 5.79682 10.4327 5.0159 10.7329 4.88575C10.9481 5.31016 11.3616 7.46618 11.5258 17.5107C11.5258 18.8405 11.6051 20.1307 11.9789 20.8154C12.2791 21.37 13.31 21.9246 13.9613 21.7718C15.145 21.5001 15.7114 19.893 15.7341 19.8251L15.9493 19.197L15.3489 19.4743C15.1564 19.5648 14.9978 19.5931 14.9185 19.5478C14.8618 19.5195 14.8449 19.4347 14.8392 19.4347L14.8335 18.0369C14.8505 17.3522 14.8845 16.6392 14.9185 15.8979C15.2073 11.6651 15.7794 8.41121 16.595 6.26085C17.1104 5.29318 17.4219 4.98761 17.5522 4.8914C17.6598 5.19132 17.858 6.31178 17.858 10.4314C17.858 12.8251 17.7787 16.2431 17.6201 20.5891C17.5975 21.3983 17.5918 21.8453 17.5918 21.9246C17.5918 21.9359 17.5918 21.9529 17.5918 21.9642C17.5862 22.3829 17.6145 26.7459 20.1859 29.4339C22.1909 31.522 24.7169 32.2237 28.625 31.771C29.2084 31.7031 29.7521 31.6182 30.2675 31.5276C30.3355 30.5826 30.4261 29.6942 30.5451 28.8623C29.8541 29.2641 29.1234 29.598 28.3022 29.6942L28.3248 29.7111Z" fill="white"/>
<g id="Group">
<path id="Vector_12" d="M45.9623 8.93762C44.9371 8.93762 43.9516 9.17529 43.0341 9.64498C41.4425 10.4542 40.5193 11.6312 40.2871 13.1987V13.3176C40.2871 13.4477 40.3098 13.5892 40.3607 13.742C40.5873 14.3588 41.0347 14.5059 41.3519 14.489C41.3632 14.489 41.3746 14.489 41.3859 14.489C40.9498 14.9077 40.7119 15.7679 40.6666 17.0864V17.0977C40.6666 18.6595 41.0291 19.9837 41.7484 21.0306C42.6036 22.2642 43.7534 22.8924 45.1694 22.8924C46.8062 22.8697 48.2278 22.1341 49.4003 20.6911C50.6123 19.1349 51.2297 17.2448 51.2297 15.0662C51.2297 13.9514 51.0314 12.9328 50.6463 12.0387C49.7967 9.99017 48.2222 8.94894 45.9623 8.94894V8.93762ZM42.3431 13.4477C42.4167 13.1761 42.5187 12.9045 42.6433 12.6611C43.1417 11.767 43.861 11.3313 44.8408 11.3313C45.5375 11.3313 46.1435 11.5746 46.6816 12.0783C47.5991 12.9611 48.0692 14.3192 48.0692 16.1187C48.0692 17.0185 47.9163 17.8673 47.6161 18.6369C47.0667 20.0629 46.2285 20.7533 45.0504 20.7533C44.8975 20.7533 44.7446 20.7137 44.5803 20.6345C43.9176 20.3289 43.5948 19.7291 43.5948 18.801C43.5948 18.2974 43.6798 17.6919 43.844 17.0354C43.895 16.8883 43.9176 16.6733 43.9176 16.3847C43.9176 16.0508 43.8383 15.7056 43.6798 15.3434C43.2946 14.5795 42.7452 14.189 42.0146 14.189C42.0146 14.189 41.9693 14.1947 41.9466 14.2004C42.1109 14.0306 42.2411 13.7816 42.3544 13.4534L42.3431 13.4477Z" fill="white"/>
<path id="Vector_13" d="M61.2266 9.5264C60.5186 9.54903 59.7087 9.99608 58.7402 10.9015C57.5678 12.0446 56.5426 13.4763 55.6874 15.1683C55.7553 14.5458 55.8403 13.8328 55.9422 13.0179C56.0215 12.3106 56.0782 11.7899 56.1235 11.4278V11.3372C56.1235 11.2071 56.0952 11.0713 56.0442 10.9355C55.8403 10.4375 55.3929 10.5337 55.07 10.6072C54.9001 10.6412 54.7019 10.6865 54.4696 10.6865C53.688 10.7317 53.167 11.0486 52.9121 11.6768C52.5213 13.5668 52.374 15.1739 52.374 17.6129C52.374 19.0955 52.5156 20.5725 52.7931 22.0042C52.8838 22.4116 53.2066 22.9039 54.2488 22.9322C54.4527 22.9322 54.6679 22.8983 54.8774 22.836C55.8063 22.5984 56.0046 22.0891 56.0046 21.7099C56.0046 21.625 55.9932 21.5345 55.9762 21.4439C55.9876 21.0591 56.1461 16.8886 57.4658 14.8684C58.7345 12.9161 59.3236 12.503 59.5728 12.503C59.7993 12.5143 59.8333 13.1085 59.839 13.2839C59.839 13.5329 59.7823 13.8384 59.6747 14.2006C59.2499 15.5078 59.2499 15.6776 59.2499 15.7625C59.2499 15.8643 59.2613 15.9662 59.2839 16.0454C59.4255 16.8603 61.4419 16.9565 61.4815 16.9565C61.7081 16.9282 61.9233 16.8037 62.1782 16.549C62.7106 15.8247 62.9711 14.5854 62.9711 12.7519C62.9484 10.6582 62.3707 9.57167 61.2323 9.5264H61.2266Z" fill="white"/>
<path id="Vector_14" d="M82.7375 8.93762C81.7123 8.93762 80.7268 9.17529 79.8093 9.64498C78.2177 10.4542 77.2945 11.6312 77.0566 13.1987V13.3176C77.0566 13.4477 77.0793 13.5892 77.1359 13.742C77.3625 14.3588 77.7816 14.5059 78.1271 14.489C78.1384 14.489 78.1498 14.489 78.1611 14.489C77.725 14.9077 77.4871 15.7679 77.4418 17.0864V17.0977C77.4418 18.6595 77.8043 19.9837 78.5236 21.0306C79.3788 22.2642 80.5286 22.8924 81.9445 22.8924C83.5814 22.8697 85.003 22.1341 86.1754 20.6911C87.3875 19.1349 88.0049 17.2448 88.0049 15.0662C88.0049 13.9514 87.8066 12.9328 87.4215 12.0387C86.5719 9.99017 84.9974 8.94894 82.7375 8.94894V8.93762ZM79.1183 13.4477C79.1919 13.1761 79.2939 12.9045 79.4128 12.6611C79.9112 11.767 80.6362 11.3313 81.616 11.3313C82.3127 11.3313 82.9187 11.5746 83.4568 12.0783C84.3743 12.9611 84.8444 14.3192 84.8444 16.1187C84.8444 17.0185 84.6915 17.8673 84.3913 18.6369C83.8419 20.0629 83.0037 20.7533 81.8256 20.7533C81.6727 20.7533 81.5198 20.7137 81.3555 20.6345C80.6928 20.3289 80.37 19.7291 80.37 18.801C80.37 18.2974 80.4549 17.6919 80.6192 17.0354C80.6702 16.8883 80.6928 16.6733 80.6928 16.3847C80.6928 16.0565 80.6135 15.7113 80.455 15.3434C80.0698 14.5795 79.5204 14.189 78.7898 14.189C78.7898 14.189 78.7445 14.1947 78.7218 14.2004C78.8861 14.0306 79.0163 13.7816 79.1296 13.4534L79.1183 13.4477Z" fill="white"/>
<path id="Vector_15" d="M117.066 19.2989C116.84 18.6255 116.409 18.484 116.092 18.484C115.883 18.484 115.633 18.6085 115.305 18.8915C115.254 18.9424 115.197 18.9933 115.112 19.0556C114.858 19.2819 114.603 19.5309 114.348 19.7799C113.549 20.5552 112.717 21.3644 112.048 21.3644C110.825 21.3474 110.315 19.4121 110.23 17.6295C111.425 17.805 112.496 17.7371 113.47 17.4485C115.599 16.7807 116.676 15.1736 116.676 12.6724C116.676 11.8292 116.426 11.0766 115.939 10.4428C115.158 9.39025 114.002 8.85266 112.496 8.85266C111.102 8.8753 109.896 9.46382 108.922 10.6069C107.625 12.1857 106.968 14.387 106.968 17.1485C106.968 18.2803 107.132 19.2819 107.461 20.1421C108.214 21.9812 109.618 22.9093 111.646 22.9093C112.077 22.9093 112.535 22.8583 113.005 22.7565C114.614 22.4113 115.917 21.6473 116.902 20.4477C117.027 20.2553 117.1 20.0119 117.123 19.7063C117.123 19.5932 117.112 19.4687 117.078 19.2932L117.066 19.2989ZM110.406 15.1114C110.519 14.5794 110.661 14.0701 110.842 13.6004C111.425 12.1574 112.246 10.4937 113.447 10.4937C114.144 10.5107 114.642 11.716 114.659 12.7799C114.642 14.2682 113.946 16.0111 112.037 16.0507C111.918 16.0507 111.646 15.8527 111.425 15.6942C111.119 15.4735 110.78 15.2302 110.406 15.1057V15.1114Z" fill="white"/>
<path id="Vector_16" d="M77.4646 25.1222C77.2776 25.1448 77.1191 25.1505 77.0001 25.1392H76.9718C76.5866 25.1392 76.2751 24.9921 76.0316 24.7035C75.5842 24.1715 75.4992 23.2887 75.6068 22.7002L75.6634 22.3663C75.9466 20.6517 76.0882 18.8352 76.0882 16.9678C76.0882 16.2265 76.0656 15.4965 76.0259 14.7948C75.7541 11.1505 74.9101 9.37927 73.4319 9.37927C72.8485 9.4019 72.1179 9.79237 71.189 10.5676C69.7957 11.7956 68.6176 13.3574 67.6774 15.2362L67.6661 12.967C70.1978 10.1376 71.4948 7.12138 71.5118 4.00336C71.5118 3.62421 71.5005 3.32995 71.4779 3.11491C71.4156 2.54903 71.172 2.02276 70.7529 1.54175C70.1072 0.857031 69.3539 0.511841 68.51 0.511841C68.3401 0.511841 68.1702 0.523159 67.9889 0.545794C65.4685 0.987185 64.2451 4.73335 64.2451 11.9937C64.2451 15.389 64.4037 18.7786 64.7152 22.0608C64.7379 22.3494 64.8058 22.621 64.9135 22.8587C65.2306 23.6056 65.7913 24.0018 66.5333 24.0018C66.6296 24.0018 66.7372 23.9904 66.8618 23.9621C67.3659 23.8433 67.9663 23.4642 67.9663 22.3041C67.9663 22.3041 67.9436 21.7722 67.9663 21.5967C68.1532 19.8312 68.9291 17.1659 70.1469 14.8287C71.274 12.6048 71.8517 12.3615 72.0386 12.3615C72.2935 12.3671 72.8882 12.7067 72.9108 15.6719C72.9108 16.8942 72.7635 18.7899 72.469 21.2968C72.3897 21.9702 72.3388 22.4229 72.3218 22.6832V22.7851C72.2312 24.2677 72.8202 25.5013 73.9303 26.1804C74.4684 26.5086 75.0801 26.6671 75.7144 26.6671C76.4111 26.6671 77.1304 26.469 77.7874 26.0786C77.9969 25.9541 78.0876 25.6994 78.0083 25.4674C77.929 25.2297 77.6968 25.0883 77.4476 25.1222H77.4646ZM69.3029 2.84895C69.3369 2.90554 69.4332 3.10926 69.4502 3.77134C69.4502 5.81985 68.8838 7.87967 67.7624 9.89422C67.7737 9.66787 67.7907 9.44152 67.802 9.21516C68.1192 3.70909 68.9235 2.9112 69.3029 2.85461V2.84895Z" fill="white"/>
<path id="Vector_17" d="M108.633 23.8606C108.412 23.4645 107.744 23.521 106.747 23.6512C106.469 23.6851 106.18 23.7248 106.039 23.7134C105.75 23.7134 105.557 23.6455 105.444 23.5154C105.206 23.2324 105.291 22.61 105.399 22.0384C105.399 22.0384 105.869 17.1039 105.869 15.9438C105.869 11.6771 105.048 9.57762 103.343 9.53235C102.946 9.53235 102.516 9.65118 102.063 9.88886C100.964 10.4661 99.9389 11.5412 99.0043 13.0861C98.5795 11.6884 97.8489 10.9754 96.8294 10.9754C96.28 10.9754 95.6853 11.2017 95.0736 11.6431C94.0824 12.3448 93.2045 13.386 92.4569 14.7442C92.5475 13.8953 92.6721 12.8824 92.7967 11.9204C92.8534 11.4111 92.5928 10.6981 92.1681 10.2227C91.8849 9.90583 91.579 9.73041 91.2222 9.74173C90.231 9.86622 89.1436 15.0837 89.1436 17.2397C89.1436 18.7223 89.2852 20.1993 89.5627 21.631C89.6533 22.0384 89.9761 22.5307 91.0183 22.559C91.2165 22.559 91.4148 22.5364 91.6187 22.4911C92.5758 22.2535 92.7741 21.7442 92.7741 21.3594C92.7741 21.2688 92.7628 21.1839 92.7458 21.0934C92.7514 19.8484 93.1932 18.264 94.0485 16.3796C95.5267 13.1257 96.0308 12.7918 96.1327 12.7692C96.1497 12.7692 96.5745 12.8145 96.5972 14.9026C96.5972 15.6043 96.1894 17.5962 95.8949 19.0449L95.7816 19.6051C95.7419 19.8315 95.7136 19.9786 95.6966 20.0578V20.2163C95.691 20.3521 95.7136 20.4879 95.7703 20.618C95.9968 21.167 96.5179 21.4442 97.3448 21.4442C98.1264 21.399 98.6475 21.0821 98.8967 20.4766C99.1346 19.7013 99.1742 18.7336 99.3498 17.6415C99.5141 16.6286 99.9785 15.6609 100.415 14.7102C101.287 12.7749 102.703 11.1281 103.037 11.1055C103.037 11.1055 103.479 11.2017 103.501 13.9463C103.501 14.8856 103.207 16.306 102.901 17.8113C102.663 18.977 102.414 20.1767 102.267 21.3367L102.227 21.5914C102.023 23.4871 102.895 25.0206 104.623 25.8016C105.28 26.1015 106.005 26.243 106.662 26.243C107.466 26.243 108.174 26.0279 108.565 25.6035C108.803 25.3432 109.131 24.7716 108.627 23.8719L108.633 23.8606Z" fill="white"/>
</g>
</g>
<defs>
<clipPath id="clip0_75_167">
<rect width="120" height="55.8416" fill="white" transform="translate(0 0.0852051)"/>
</clipPath>
</defs>
</svg>
